<?xml version="1.0" encoding="UTF-8"?>
<svg width="90px" height="80px" viewBox="0 0 90 80" version="1.1" xmlns="http://www.w3.org/2000/svg" xmlns:xlink="http://www.w3.org/1999/xlink">
    <!-- Generator: Sketch 58 (84663) - https://sketch.com -->
    <title>noun_cart_927424</title>
    <desc>Created with Sketch.</desc>
    <g id="Page-1" stroke="none" stroke-width="1" fill="none" fill-rule="evenodd">
        <g id="Custom-Preset" transform="translate(-5.000000, -10.000000)" fill="#4A4A4A" fill-rule="nonzero">
            <g id="noun_cart_927424" transform="translate(5.000000, 9.000000)">
                <g id="Group" transform="translate(0.000000, 0.637820)">
                    <path d="M3,0.362181403 C1.3431,0.362181403 0,1.70533281 0,3.3621814 C0,5.01903281 1.3431,6.3621814 3,6.3621814 L12.5625002,6.3621814 L22.8750002,55.0184328 C23.2830002,56.8500328 24.4834002,58.3744328 26,58.3624822 L76,58.3624822 C77.5849002,58.3842328 79.0426952,56.9473328 79.0426952,55.3622328 C79.0426952,53.7771328 77.5849002,52.3398328 76,52.3622328 L28.4375002,52.3622328 L27.1562002,46.3621328 L80,46.3621328 C81.3431952,46.3521328 82.6122952,45.3291328 82.9061952,44.0184328 L89.9061952,14.0184328 C90.2962952,12.2773628 88.7841952,10.3749728 87,10.3621814 L19.5625002,10.3621814 L17.9375002,2.73718281 C17.6536002,1.40508281 16.3620002,0.360782809 15,0.362181403 L3,0.362181403 Z M20.8125002,16.3621828 L83.2187952,16.3621828 L77.6250002,40.3621328 L25.9062002,40.3621328 L20.8125002,16.3621828 Z M36.0000002,60.3622328 C30.5127002,60.3622328 26.0000002,64.8748328 26.0000002,70.3622328 C26.0000002,75.8495328 30.5127002,80.3622328 36.0000002,80.3622328 C41.4873002,80.3622328 46.0000002,75.8495328 46.0000002,70.3622328 C46.0000002,64.8749328 41.4873002,60.3622328 36.0000002,60.3622328 Z M66.0000002,60.3622328 C60.5127002,60.3622328 56.0000002,64.8748328 56.0000002,70.3622328 C56.0000002,75.8495328 60.5127002,80.3622328 66.0000002,80.3622328 C71.4873002,80.3622328 76.0000002,75.8495328 76.0000002,70.3622328 C76.0000002,64.8749328 71.4873002,60.3622328 66.0000002,60.3622328 Z M36.0000002,66.3622328 C38.2447002,66.3622328 40.0000002,68.1175328 40.0000002,70.3622328 C40.0000002,72.6069328 38.2447002,74.3622328 36.0000002,74.3622328 C33.7555002,74.3622328 32.0000002,72.6068328 32.0000002,70.3622328 C32.0000002,68.1176328 33.7555002,66.3622328 36.0000002,66.3622328 Z M66.0000002,66.3622328 C68.2447002,66.3622328 70.0000002,68.1175328 70.0000002,70.3622328 C70.0000002,72.6069328 68.2447002,74.3622328 66.0000002,74.3622328 C63.7555002,74.3622328 62.0000002,72.6068328 62.0000002,70.3622328 C62.0000002,68.1176328 63.7555002,66.3622328 66.0000002,66.3622328 Z" id="Shape"></path>
                </g>
            </g>
        </g>
    </g>
</svg>