<svg xmlns="http://www.w3.org/2000/svg" xmlns:xlink="http://www.w3.org/1999/xlink" version="1.1" x="0px" y="0px" viewBox="0 0 512 640" enable-background="new 0 0 512 512" xml:space="preserve"><g><ellipse cx="209.7" cy="270.1" rx="12.7" ry="12.7"/><path d="M439.3,217.3c-3.5-3.1-85.2-76.7-110.8-93.8h0c-4-2.7-9-5.1-14.7-7.2c-7.4-16.9-19.5-32-35.9-43.1l-7-4.7l-4.7,7   c-7.3,10.8-12.1,22.6-14.8,34.6c-8.8,1.2-18.6,3.4-28.8,7.2c-18.7-28.5-50.3-46-84.6-46h-8.5v8.5c0,30.4,13.6,58.8,36.8,78   c-0.3,0.4-0.7,0.8-1,1.2c-44.6,54.5-31.9,101.9-25.6,117.7l-68.7,78.3l-0.4,2.3c-5.7,29.5,34,47.4,43.2,51.2   c22.9,18.8,76.8,1.8,96.6-5.4l24.2,40.3h207.6V219.8L439.3,217.3z M275.6,92.6c11.2,9.4,19.4,21.3,24.4,34.3c1,2.5,1.8,5.1,2.6,7.7   c0.2,0.8,0.4,1.6,0.6,2.4c0.5,1.9,0.9,3.8,1.2,5.7c0.2,1.1,0.3,2.2,0.5,3.3c0.2,1.7,0.4,3.4,0.5,5.2c0.1,1,0.2,2.1,0.2,3.1   c0.1,2.3,0.1,4.7,0,7c0,0.4,0,0.7,0,1.1c-0.2,2.8-0.5,5.5-0.9,8.2c-0.1,0.7-0.3,1.4-0.4,2.1c-0.4,2.1-0.8,4.2-1.4,6.2   c-0.2,0.8-0.4,1.5-0.6,2.3c-0.6,2.1-1.3,4.1-2.1,6.2c-0.2,0.6-0.5,1.3-0.7,1.9c-1.1,2.6-2.3,5.2-3.6,7.8c-2.6-2.2-5.1-4.6-7.4-7.2   c-0.2-0.3-0.5-0.5-0.7-0.8c-16.8-18.7-24.8-44.4-20.8-69.9l0.2-1.4C268.5,109.1,271.3,100.7,275.6,92.6z M146.8,88.7   c24.2,2.6,46.2,15.6,60.2,35.6c-9.8,5.2-19.8,12.2-29.3,21.2C160.3,131.4,149.2,111,146.8,88.7z M425.2,426.6H244.1l-26.6-44.4   l-6.7,2.7c-16.3,6.6-38.4,12.8-56.6,14.7c26.3-14.8,54.5-40.8,65.7-51.6l-11.7-12.2c-31.9,30.8-74.4,61.4-87.2,57.3   c-3.1-1.2-7.7-3.3-12.6-6.2c2.2-1.4,3.9-3.7,4.7-6.2c1.2-3.7,1-7.7,0.5-11.6c-0.3-2.3-0.6-4.6-1-6.9c-0.7-3.8-1.6-7.6-3.5-10.9   c-1.6-2.7-4.1-5-7.1-6.1l57.8-65.9l-2.8-5.2c-0.3-0.5-25.2-47.6,21.3-104.4c1.8-2.2,3.7-4.1,5.5-6.1l1-1   c11.1-11.7,23.9-20.7,37.9-26.9l2.8-1.2c8.2-3.3,16.2-5.5,23.5-6.8c0,0.2,0,0.5,0,0.7c-0.5,12.6,1.4,25.2,5.5,37.2   c0.1,0.2,0.2,0.5,0.2,0.7c4.1,11.6,10.3,22.6,18.6,32.2c0.5,0.5,0.9,1.1,1.4,1.6c2.2,2.5,4.5,4.8,7,7.1c0.7,0.6,1.3,1.3,2,1.9   c3,2.6,6.2,5.2,9.6,7.5l7,4.7l4.7-7c1.9-2.8,3.6-5.7,5.2-8.7c0.8-1.5,1.5-3.1,2.3-4.7c0.7-1.4,1.4-2.8,2-4.3   c0.8-1.9,1.4-3.8,2.1-5.7c0.4-1.2,0.9-2.4,1.3-3.7c0.6-1.9,1-3.7,1.4-5.6c0.3-1.3,0.7-2.7,1-4c0.3-1.6,0.5-3.3,0.8-5   c0.2-1.6,0.5-3.2,0.7-4.9c0.1-1.3,0.1-2.6,0.2-4c0.1-2,0.3-4,0.3-5.9c0-1-0.1-1.9-0.1-2.9c-0.1-2.3-0.1-4.7-0.3-7   c-0.1-0.7-0.2-1.3-0.3-2c-0.3-2.4-0.5-4.7-1-7.1c23.7,16.5,89.9,75.6,104.3,88.6V426.6z"/></g><text x="0" y="527" fill="#000000" font-size="5px" font-weight="bold" font-family="'Helvetica Neue', Helvetica, Arial-Unicode, Arial, Sans-serif">Created by Creative Stall</text><text x="0" y="532" fill="#000000" font-size="5px" font-weight="bold" font-family="'Helvetica Neue', Helvetica, Arial-Unicode, Arial, Sans-serif">from the Noun Project</text></svg>