<?xml version="1.0" encoding="UTF-8"?>
<svg width="230px" height="244px" viewBox="0 0 230 244" version="1.1" xmlns="http://www.w3.org/2000/svg" xmlns:xlink="http://www.w3.org/1999/xlink">
    <!-- Generator: Sketch 58 (84663) - https://sketch.com -->
    <title>Group</title>
    <desc>Created with Sketch.</desc>
    <g id="Page-1" stroke="none" stroke-width="1" fill="none" fill-rule="evenodd">
        <g id="Menu" transform="translate(-936.000000, -518.000000)" fill="#000000" fill-rule="nonzero">
            <g id="Group" transform="translate(936.000000, 518.000000)">
                <path d="M222.44205,13.5790801 C222.40868,13.5790801 222.37744,13.5868943 222.34478,13.5890254 C221.62413,10.9094667 219.11357,7.8377774 214.71228,7.48471784 C213.65722,5.36138777 210.97413,3.09598141 205.24443,3.06046234 C200.38519,-1.02352045 189.10542,0.00866375359 185.65553,0.440575658 C181.43671,0.968389054 175.22918,3.64794778 173.43288,7.4555922 C173.3988,7.45914411 173.36543,7.45701296 173.33206,7.46269601 C168.09865,8.3350444 166.87035,11.4784822 166.5544,13.5790801 C159,13.5805008 159,21.948794 159,25.5227229 L159,35.6037457 C159,46.2992483 174.96719,55 194.59443,55 C214.44816,55 230,46.4803956 230,35.604456 L230,25.5227229 C230,21.948794 230,13.5790801 222.44205,13.5790801 Z M175.82842,9.13138197 C176.47807,6.57827114 181.96992,3.77297491 186.00982,3.26718334 C188.12136,3.00292145 190.34934,2.85445173 192.50277,2.85445173 C197.39325,2.85445173 201.89465,3.62237405 203.7442,5.54892846 C204.52875,6.36728786 204.795,7.34761422 204.582,8.63269421 C203.90395,12.701759 195.8419,12.701759 191.96743,12.701759 C189.75223,12.701759 188.57221,11.7470064 188.57221,11.0579364 C188.57221,10.3759702 189.89778,9.41482416 192.84357,9.41482416 C193.62954,9.41482416 194.26712,8.77690164 194.26712,7.99050941 C194.26712,7.20411718 193.62954,6.56619466 192.84357,6.56619466 C190.73416,6.56619466 189.02732,6.96045635 187.7692,7.73761362 C186.4699,8.54034463 185.72511,9.75083457 185.72511,11.0586468 C185.72511,13.2366762 187.91333,15.5510989 191.96814,15.5510989 C196.62574,15.5510989 206.31653,15.5510989 207.39076,9.10083557 C207.57323,8.00897933 207.52211,6.98034703 207.2445,6.04122279 C211.45338,6.60526564 212.44809,8.816683 212.44809,9.74373076 C212.44809,10.1280471 212.4559,10.6608332 212.46371,11.2476082 C212.48146,12.4907757 212.50631,14.1928496 212.45164,14.8939961 C212.1648,18.6419684 204.1134,21.4685761 193.72326,21.4685761 C185.28065,21.4685761 175.87386,18.3400563 175.87386,13.8504458 L175.8696,13.735364 C175.72689,12.0006125 175.67151,9.74657228 175.82842,9.13138197 Z M172.8876,10.4697406 C172.87411,11.869192 172.98487,13.4071678 173.02463,13.9129593 C173.08782,19.753005 182.15594,24.317916 193.72113,24.317916 C204.10559,24.317916 214.80245,21.4714177 215.2888,15.1135039 C215.35341,14.283068 215.32998,12.6484804 215.30868,11.2064061 C215.30442,10.9321989 215.30087,10.6707785 215.29803,10.43138 C218.76993,11.1147669 219.68725,14.2098988 219.71778,15.0033948 L219.71778,22.2499957 C219.71778,28.4793304 208.12561,33.741836 194.40415,33.741836 C180.78493,33.741836 169.27938,28.4793304 169.27938,22.2499957 L169.27867,15.0566734 C169.34612,13.2551461 169.70964,11.2994661 172.8876,10.4697406 Z M166.43299,16.4355238 L166.43299,22.2499957 C166.43299,30.2915134 178.72025,36.5911758 194.40486,36.5911758 C210.19597,36.5911758 222.5663,30.2922238 222.5663,22.2499957 L222.56559,16.4355238 C225.40985,16.4951958 226.56715,18.5354112 226.96759,21.8237668 C222.92414,22.9909235 222.99869,27.7156703 223.05407,31.2249546 C223.08247,33.037848 223.11939,35.2947297 222.50169,35.9120512 C222.4811,35.9319419 222.46122,35.9525429 222.44205,35.9710129 C222.43566,35.9575156 222.42927,35.9447287 222.4243,35.9319419 C221.97274,34.9679543 221.29114,33.5095412 219.57791,32.9383946 C217.91083,32.3828763 216.82808,32.8929302 216.21251,33.417902 C214.75772,34.6610695 214.39207,37.3171856 215.09497,41.5375617 C215.26679,42.5676147 215.05521,43.3099633 214.46733,43.7418752 C213.89081,44.1659729 212.97988,44.2448253 212.34585,43.9230225 C211.84672,43.6708371 211.78921,43.3078322 211.78921,43.0563572 C211.78921,39.8184386 208.86969,38.1255997 205.98496,38.1255997 C202.78925,38.1255997 201.34937,40.582809 201.06679,42.8823137 C200.98798,43.5266297 200.97591,44.186574 200.96384,44.8237861 C200.91698,47.4443832 200.70753,47.8869508 199.47142,47.97859 C199.46503,47.97859 199.45793,47.9793004 199.45225,47.9793004 C198.86011,47.9793004 198.27507,46.0591394 197.95912,45.0212722 C197.49762,43.5046078 197.13339,42.3083255 196.11809,41.7876159 C194.81879,41.1219885 193.72397,41.2889282 193.03456,41.5482174 C191.42925,42.1499105 190.11291,43.8534051 188.891,46.909466 C188.64889,47.5161317 188.18597,47.7931805 187.71382,47.6205578 C187.03293,47.3705035 186.32861,46.0690848 187.18274,43.5060286 C187.59099,42.2820414 187.39574,41.0246663 186.6332,39.966198 C185.28775,38.0986052 182.54999,37.2475683 180.57477,37.2475683 C175.94202,37.2475683 175.77872,40.1857058 175.70843,41.439529 C175.69849,41.6178348 175.69352,41.7869056 175.66725,41.9339545 C175.56643,42.5107842 175.32361,42.7906745 175.14682,42.8531881 C174.93169,42.93133 174.691,42.7473412 174.59728,42.6656474 C173.89793,42.0604024 173.2994,40.2652685 173.91355,37.1985519 C174.15921,35.9717232 173.96538,34.9629816 173.33703,34.1950593 C172.24789,32.8652253 170.30107,32.8652253 169.01242,32.8652253 C166.5828,32.8652253 166.07941,31.2412933 165.43615,27.2553432 C165.01228,24.6304838 164.5309,21.6738764 162.34197,20.1280864 C162.92488,17.8498932 164.11768,16.4845401 166.43299,16.4355238 Z M227.15219,35.604456 C227.15219,44.5737319 212.2429,52.1513705 194.59443,52.1513705 C176.84372,52.1513705 161.8471,44.5737319 161.8471,35.604456 L161.8471,25.5227229 C161.8471,25.0780241 161.85491,24.6496641 161.86698,24.2291183 C162.21772,25.2179693 162.42149,26.4398253 162.62668,27.7092769 C163.17125,31.087851 163.91746,35.7145652 169.01384,35.7145652 C170.26628,35.7145652 170.98054,35.8118874 171.13603,36.0015593 C171.15449,36.0235811 171.20987,36.2068595 171.12254,36.6394818 C170.38627,40.3142849 170.97415,43.2957557 172.73495,44.8209446 C173.71759,45.6712712 174.97713,45.9405057 176.1039,45.5377195 C177.34143,45.0958622 178.20479,43.9613831 178.47317,42.4241177 C178.52216,42.1449378 178.53778,41.8671787 178.55269,41.5986545 C178.61304,40.5060879 178.63576,40.0969082 180.57548,40.0969082 C182.0324,40.0969082 183.71368,40.7859781 184.32357,41.6320424 C184.55503,41.9524244 184.6026,42.2436808 184.4819,42.605265 C183.07397,46.831324 184.59905,49.5137243 186.73473,50.2958542 C188.65812,51.001263 190.7228,50.0003356 191.53504,47.9686447 C192.72997,44.98007 193.68066,44.3492513 194.03424,44.21641 C194.17766,44.1631314 194.36581,44.1283227 194.67537,44.2569018 C194.84222,44.5588139 195.07581,45.3267362 195.23627,45.8524184 C195.84332,47.8485902 196.75141,50.8307714 199.40823,50.8307714 C199.49769,50.8307714 199.58928,50.8272195 199.68371,50.8201157 C203.7087,50.5217555 203.77331,46.9876079 203.81165,44.8770647 C203.8223,44.285317 203.83224,43.7276676 203.8933,43.2296902 C204.01897,42.2010579 204.48473,40.9749396 205.98425,40.9749396 C206.10495,40.9749396 208.94069,40.9983822 208.94069,43.0570675 C208.94069,44.5410543 209.71317,45.7835114 211.05862,46.466188 C212.65967,47.2760228 214.70518,47.1026897 216.15216,46.0385384 C217.61263,44.965152 218.25021,43.1543898 217.90302,41.0694203 C217.28603,37.366202 217.73759,35.8623245 218.06206,35.5845654 C218.1359,35.5213414 218.3844,35.544784 218.67763,35.6421063 C219.19238,35.8133082 219.47354,36.3468046 219.84487,37.1403007 C220.22046,37.9430317 220.68764,38.9425383 221.83358,39.1435763 C222.94047,39.3396416 223.84714,38.5951618 224.51525,37.9266929 C225.98566,36.455493 225.94448,33.8924368 225.90117,31.1794902 C225.84508,27.636818 226.0311,25.6932144 227.1458,24.8798277 C227.14864,25.0936525 227.15219,25.3046358 227.15219,25.5227229 L227.15219,35.604456 L227.15219,35.604456 Z" id="Shape"></path>
                <path d="M222.44205,75.5790801 C222.40868,75.5790801 222.37744,75.5868943 222.34478,75.5890254 C221.62413,72.9094667 219.11357,69.8377774 214.71228,69.4847178 C213.65722,67.3613878 210.97413,65.0959814 205.24443,65.0604623 C200.38519,60.9764795 189.10542,62.0086638 185.65553,62.4405757 C181.43671,62.9683891 175.22918,65.6479478 173.43288,69.4555922 C173.3988,69.4591441 173.36543,69.457013 173.33206,69.462696 C168.09865,70.3350444 166.87035,73.4784822 166.5544,75.5790801 C159,75.5805008 159,83.948794 159,87.5227229 L159,97.6037457 C159,108.299248 174.96719,117 194.59443,117 C214.44816,117 230,108.480396 230,97.604456 L230,87.5227229 C230,83.948794 230,75.5790801 222.44205,75.5790801 Z M175.82842,71.131382 C176.47807,68.5782711 181.96992,65.7729749 186.00982,65.2671833 C188.12136,65.0029214 190.34934,64.8544517 192.50277,64.8544517 C197.39325,64.8544517 201.89465,65.622374 203.7442,67.5489285 C204.52875,68.3672879 204.795,69.3476142 204.582,70.6326942 C203.90395,74.701759 195.8419,74.701759 191.96743,74.701759 C189.75223,74.701759 188.57221,73.7470064 188.57221,73.0579364 C188.57221,72.3759702 189.89778,71.4148242 192.84357,71.4148242 C193.62954,71.4148242 194.26712,70.7769016 194.26712,69.9905094 C194.26712,69.2041172 193.62954,68.5661947 192.84357,68.5661947 C190.73416,68.5661947 189.02732,68.9604563 187.7692,69.7376136 C186.4699,70.5403446 185.72511,71.7508346 185.72511,73.0586468 C185.72511,75.2366762 187.91333,77.5510989 191.96814,77.5510989 C196.62574,77.5510989 206.31653,77.5510989 207.39076,71.1008356 C207.57323,70.0089793 207.52211,68.980347 207.2445,68.0412228 C211.45338,68.6052656 212.44809,70.816683 212.44809,71.7437308 C212.44809,72.1280471 212.4559,72.6608332 212.46371,73.2476082 C212.48146,74.4907757 212.50631,76.1928496 212.45164,76.8939961 C212.1648,80.6419684 204.1134,83.4685761 193.72326,83.4685761 C185.28065,83.4685761 175.87386,80.3400563 175.87386,75.8504458 L175.8696,75.735364 C175.72689,74.0006125 175.67151,71.7465723 175.82842,71.131382 Z M172.8876,72.4697406 C172.87411,73.869192 172.98487,75.4071678 173.02463,75.9129593 C173.08782,81.753005 182.15594,86.317916 193.72113,86.317916 C204.10559,86.317916 214.80245,83.4714177 215.2888,77.1135039 C215.35341,76.283068 215.32998,74.6484804 215.30868,73.2064061 C215.30442,72.9321989 215.30087,72.6707785 215.29803,72.43138 C218.76993,73.1147669 219.68725,76.2098988 219.71778,77.0033948 L219.71778,84.2499957 C219.71778,90.4793304 208.12561,95.741836 194.40415,95.741836 C180.78493,95.741836 169.27938,90.4793304 169.27938,84.2499957 L169.27867,77.0566734 C169.34612,75.2551461 169.70964,73.2994661 172.8876,72.4697406 Z M166.43299,78.4355238 L166.43299,84.2499957 C166.43299,92.2915134 178.72025,98.5911758 194.40486,98.5911758 C210.19597,98.5911758 222.5663,92.2922238 222.5663,84.2499957 L222.56559,78.4355238 C225.40985,78.4951958 226.56715,80.5354112 226.96759,83.8237668 C222.92414,84.9909235 222.99869,89.7156703 223.05407,93.2249546 C223.08247,95.037848 223.11939,97.2947297 222.50169,97.9120512 C222.4811,97.9319419 222.46122,97.9525429 222.44205,97.9710129 C222.43566,97.9575156 222.42927,97.9447287 222.4243,97.9319419 C221.97274,96.9679543 221.29114,95.5095412 219.57791,94.9383946 C217.91083,94.3828763 216.82808,94.8929302 216.21251,95.417902 C214.75772,96.6610695 214.39207,99.3171856 215.09497,103.537562 C215.26679,104.567615 215.05521,105.309963 214.46733,105.741875 C213.89081,106.165973 212.97988,106.244825 212.34585,105.923022 C211.84672,105.670837 211.78921,105.307832 211.78921,105.056357 C211.78921,101.818439 208.86969,100.1256 205.98496,100.1256 C202.78925,100.1256 201.34937,102.582809 201.06679,104.882314 C200.98798,105.52663 200.97591,106.186574 200.96384,106.823786 C200.91698,109.444383 200.70753,109.886951 199.47142,109.97859 C199.46503,109.97859 199.45793,109.9793 199.45225,109.9793 C198.86011,109.9793 198.27507,108.059139 197.95912,107.021272 C197.49762,105.504608 197.13339,104.308326 196.11809,103.787616 C194.81879,103.121989 193.72397,103.288928 193.03456,103.548217 C191.42925,104.14991 190.11291,105.853405 188.891,108.909466 C188.64889,109.516132 188.18597,109.79318 187.71382,109.620558 C187.03293,109.370504 186.32861,108.069085 187.18274,105.506029 C187.59099,104.282041 187.39574,103.024666 186.6332,101.966198 C185.28775,100.098605 182.54999,99.2475683 180.57477,99.2475683 C175.94202,99.2475683 175.77872,102.185706 175.70843,103.439529 C175.69849,103.617835 175.69352,103.786906 175.66725,103.933955 C175.56643,104.510784 175.32361,104.790675 175.14682,104.853188 C174.93169,104.93133 174.691,104.747341 174.59728,104.665647 C173.89793,104.060402 173.2994,102.265269 173.91355,99.1985519 C174.15921,97.9717232 173.96538,96.9629816 173.33703,96.1950593 C172.24789,94.8652253 170.30107,94.8652253 169.01242,94.8652253 C166.5828,94.8652253 166.07941,93.2412933 165.43615,89.2553432 C165.01228,86.6304838 164.5309,83.6738764 162.34197,82.1280864 C162.92488,79.8498932 164.11768,78.4845401 166.43299,78.4355238 Z M227.15219,97.604456 C227.15219,106.573732 212.2429,114.15137 194.59443,114.15137 C176.84372,114.15137 161.8471,106.573732 161.8471,97.604456 L161.8471,87.5227229 C161.8471,87.0780241 161.85491,86.6496641 161.86698,86.2291183 C162.21772,87.2179693 162.42149,88.4398253 162.62668,89.7092769 C163.17125,93.087851 163.91746,97.7145652 169.01384,97.7145652 C170.26628,97.7145652 170.98054,97.8118874 171.13603,98.0015593 C171.15449,98.0235811 171.20987,98.2068595 171.12254,98.6394818 C170.38627,102.314285 170.97415,105.295756 172.73495,106.820945 C173.71759,107.671271 174.97713,107.940506 176.1039,107.537719 C177.34143,107.095862 178.20479,105.961383 178.47317,104.424118 C178.52216,104.144938 178.53778,103.867179 178.55269,103.598654 C178.61304,102.506088 178.63576,102.096908 180.57548,102.096908 C182.0324,102.096908 183.71368,102.785978 184.32357,103.632042 C184.55503,103.952424 184.6026,104.243681 184.4819,104.605265 C183.07397,108.831324 184.59905,111.513724 186.73473,112.295854 C188.65812,113.001263 190.7228,112.000336 191.53504,109.968645 C192.72997,106.98007 193.68066,106.349251 194.03424,106.21641 C194.17766,106.163131 194.36581,106.128323 194.67537,106.256902 C194.84222,106.558814 195.07581,107.326736 195.23627,107.852418 C195.84332,109.84859 196.75141,112.830771 199.40823,112.830771 C199.49769,112.830771 199.58928,112.82722 199.68371,112.820116 C203.7087,112.521756 203.77331,108.987608 203.81165,106.877065 C203.8223,106.285317 203.83224,105.727668 203.8933,105.22969 C204.01897,104.201058 204.48473,102.97494 205.98425,102.97494 C206.10495,102.97494 208.94069,102.998382 208.94069,105.057068 C208.94069,106.541054 209.71317,107.783511 211.05862,108.466188 C212.65967,109.276023 214.70518,109.10269 216.15216,108.038538 C217.61263,106.965152 218.25021,105.15439 217.90302,103.06942 C217.28603,99.366202 217.73759,97.8623245 218.06206,97.5845654 C218.1359,97.5213414 218.3844,97.544784 218.67763,97.6421063 C219.19238,97.8133082 219.47354,98.3468046 219.84487,99.1403007 C220.22046,99.9430317 220.68764,100.942538 221.83358,101.143576 C222.94047,101.339642 223.84714,100.595162 224.51525,99.9266929 C225.98566,98.455493 225.94448,95.8924368 225.90117,93.1794902 C225.84508,89.636818 226.0311,87.6932144 227.1458,86.8798277 C227.14864,87.0936525 227.15219,87.3046358 227.15219,87.5227229 L227.15219,97.604456 L227.15219,97.604456 Z" id="Shape"></path>
                <path d="M145.44205,202.57908 C145.40868,202.57908 145.37744,202.586894 145.34478,202.589025 C144.62413,199.909467 142.11357,196.837777 137.71228,196.484718 C136.65722,194.361388 133.97413,192.095981 128.24443,192.060462 C123.38519,187.97648 112.10542,189.008664 108.65553,189.440576 C104.43671,189.968389 98.22918,192.647948 96.43288,196.455592 C96.3988,196.459144 96.36543,196.457013 96.33206,196.462696 C91.09865,197.335044 89.87035,200.478482 89.5544,202.57908 C82,202.580501 82,210.948794 82,214.522723 L82,224.603746 C82,235.299248 97.96719,244 117.59443,244 C137.44816,244 153,235.480396 153,224.604456 L153,214.522723 C153,210.948794 153,202.57908 145.44205,202.57908 Z M98.82842,198.131382 C99.47807,195.578271 104.96992,192.772975 109.00982,192.267183 C111.12136,192.002921 113.34934,191.854452 115.50277,191.854452 C120.39325,191.854452 124.89465,192.622374 126.7442,194.548928 C127.52875,195.367288 127.795,196.347614 127.582,197.632694 C126.90395,201.701759 118.8419,201.701759 114.96743,201.701759 C112.75223,201.701759 111.57221,200.747006 111.57221,200.057936 C111.57221,199.37597 112.89778,198.414824 115.84357,198.414824 C116.62954,198.414824 117.26712,197.776902 117.26712,196.990509 C117.26712,196.204117 116.62954,195.566195 115.84357,195.566195 C113.73416,195.566195 112.02732,195.960456 110.7692,196.737614 C109.4699,197.540345 108.72511,198.750835 108.72511,200.058647 C108.72511,202.236676 110.91333,204.551099 114.96814,204.551099 C119.62574,204.551099 129.31653,204.551099 130.39076,198.100836 C130.57323,197.008979 130.52211,195.980347 130.2445,195.041223 C134.45338,195.605266 135.44809,197.816683 135.44809,198.743731 C135.44809,199.128047 135.4559,199.660833 135.46371,200.247608 C135.48146,201.490776 135.50631,203.19285 135.45164,203.893996 C135.1648,207.641968 127.1134,210.468576 116.72326,210.468576 C108.28065,210.468576 98.87386,207.340056 98.87386,202.850446 L98.8696,202.735364 C98.72689,201.000613 98.67151,198.746572 98.82842,198.131382 Z M95.8876,199.469741 C95.87411,200.869192 95.98487,202.407168 96.02463,202.912959 C96.08782,208.753005 105.15594,213.317916 116.72113,213.317916 C127.10559,213.317916 137.80245,210.471418 138.2888,204.113504 C138.35341,203.283068 138.32998,201.64848 138.30868,200.206406 C138.30442,199.932199 138.30087,199.670779 138.29803,199.43138 C141.76993,200.114767 142.68725,203.209899 142.71778,204.003395 L142.71778,211.249996 C142.71778,217.47933 131.12561,222.741836 117.40415,222.741836 C103.78493,222.741836 92.27938,217.47933 92.27938,211.249996 L92.27867,204.056673 C92.34612,202.255146 92.70964,200.299466 95.8876,199.469741 Z M89.43299,205.435524 L89.43299,211.249996 C89.43299,219.291513 101.72025,225.591176 117.40486,225.591176 C133.19597,225.591176 145.5663,219.292224 145.5663,211.249996 L145.56559,205.435524 C148.40985,205.495196 149.56715,207.535411 149.96759,210.823767 C145.92414,211.990924 145.99869,216.71567 146.05407,220.224955 C146.08247,222.037848 146.11939,224.29473 145.50169,224.912051 C145.4811,224.931942 145.46122,224.952543 145.44205,224.971013 C145.43566,224.957516 145.42927,224.944729 145.4243,224.931942 C144.97274,223.967954 144.29114,222.509541 142.57791,221.938395 C140.91083,221.382876 139.82808,221.89293 139.21251,222.417902 C137.75772,223.66107 137.39207,226.317186 138.09497,230.537562 C138.26679,231.567615 138.05521,232.309963 137.46733,232.741875 C136.89081,233.165973 135.97988,233.244825 135.34585,232.923022 C134.84672,232.670837 134.78921,232.307832 134.78921,232.056357 C134.78921,228.818439 131.86969,227.1256 128.98496,227.1256 C125.78925,227.1256 124.34937,229.582809 124.06679,231.882314 C123.98798,232.52663 123.97591,233.186574 123.96384,233.823786 C123.91698,236.444383 123.70753,236.886951 122.47142,236.97859 C122.46503,236.97859 122.45793,236.9793 122.45225,236.9793 C121.86011,236.9793 121.27507,235.059139 120.95912,234.021272 C120.49762,232.504608 120.13339,231.308326 119.11809,230.787616 C117.81879,230.121989 116.72397,230.288928 116.03456,230.548217 C114.42925,231.14991 113.11291,232.853405 111.891,235.909466 C111.64889,236.516132 111.18597,236.79318 110.71382,236.620558 C110.03293,236.370504 109.32861,235.069085 110.18274,232.506029 C110.59099,231.282041 110.39574,230.024666 109.6332,228.966198 C108.28775,227.098605 105.54999,226.247568 103.57477,226.247568 C98.94202,226.247568 98.77872,229.185706 98.70843,230.439529 C98.69849,230.617835 98.69352,230.786906 98.66725,230.933955 C98.56643,231.510784 98.32361,231.790675 98.14682,231.853188 C97.93169,231.93133 97.691,231.747341 97.59728,231.665647 C96.89793,231.060402 96.2994,229.265269 96.91355,226.198552 C97.15921,224.971723 96.96538,223.962982 96.33703,223.195059 C95.24789,221.865225 93.30107,221.865225 92.01242,221.865225 C89.5828,221.865225 89.07941,220.241293 88.43615,216.255343 C88.01228,213.630484 87.5309,210.673876 85.34197,209.128086 C85.92488,206.849893 87.11768,205.48454 89.43299,205.435524 Z M150.15219,224.604456 C150.15219,233.573732 135.2429,241.15137 117.59443,241.15137 C99.84372,241.15137 84.8471,233.573732 84.8471,224.604456 L84.8471,214.522723 C84.8471,214.078024 84.85491,213.649664 84.86698,213.229118 C85.21772,214.217969 85.42149,215.439825 85.62668,216.709277 C86.17125,220.087851 86.91746,224.714565 92.01384,224.714565 C93.26628,224.714565 93.98054,224.811887 94.13603,225.001559 C94.15449,225.023581 94.20987,225.206859 94.12254,225.639482 C93.38627,229.314285 93.97415,232.295756 95.73495,233.820945 C96.71759,234.671271 97.97713,234.940506 99.1039,234.537719 C100.34143,234.095862 101.20479,232.961383 101.47317,231.424118 C101.52216,231.144938 101.53778,230.867179 101.55269,230.598654 C101.61304,229.506088 101.63576,229.096908 103.57548,229.096908 C105.0324,229.096908 106.71368,229.785978 107.32357,230.632042 C107.55503,230.952424 107.6026,231.243681 107.4819,231.605265 C106.07397,235.831324 107.59905,238.513724 109.73473,239.295854 C111.65812,240.001263 113.7228,239.000336 114.53504,236.968645 C115.72997,233.98007 116.68066,233.349251 117.03424,233.21641 C117.17766,233.163131 117.36581,233.128323 117.67537,233.256902 C117.84222,233.558814 118.07581,234.326736 118.23627,234.852418 C118.84332,236.84859 119.75141,239.830771 122.40823,239.830771 C122.49769,239.830771 122.58928,239.82722 122.68371,239.820116 C126.7087,239.521756 126.77331,235.987608 126.81165,233.877065 C126.8223,233.285317 126.83224,232.727668 126.8933,232.22969 C127.01897,231.201058 127.48473,229.97494 128.98425,229.97494 C129.10495,229.97494 131.94069,229.998382 131.94069,232.057068 C131.94069,233.541054 132.71317,234.783511 134.05862,235.466188 C135.65967,236.276023 137.70518,236.10269 139.15216,235.038538 C140.61263,233.965152 141.25021,232.15439 140.90302,230.06942 C140.28603,226.366202 140.73759,224.862324 141.06206,224.584565 C141.1359,224.521341 141.3844,224.544784 141.67763,224.642106 C142.19238,224.813308 142.47354,225.346805 142.84487,226.140301 C143.22046,226.943032 143.68764,227.942538 144.83358,228.143576 C145.94047,228.339642 146.84714,227.595162 147.51525,226.926693 C148.98566,225.455493 148.94448,222.892437 148.90117,220.17949 C148.84508,216.636818 149.0311,214.693214 150.1458,213.879828 C150.14864,214.093653 150.15219,214.304636 150.15219,214.522723 L150.15219,224.604456 L150.15219,224.604456 Z" id="Shape"></path>
                <path d="M63.44205,201.57908 C63.40868,201.57908 63.37744,201.586894 63.34478,201.589025 C62.62413,198.909467 60.11357,195.837777 55.71228,195.484718 C54.65722,193.361388 51.97413,191.095981 46.24443,191.060462 C41.38519,186.97648 30.10542,188.008664 26.65553,188.440576 C22.43671,188.968389 16.22918,191.647948 14.43288,195.455592 C14.3988,195.459144 14.36543,195.457013 14.33206,195.462696 C9.09865,196.335044 7.87035,199.478482 7.5544,201.57908 C0,201.580501 0,209.948794 0,213.522723 L0,223.603746 C0,234.299248 15.96719,243 35.59443,243 C55.44816,243 71,234.480396 71,223.604456 L71,213.522723 C71,209.948794 71,201.57908 63.44205,201.57908 Z M16.82842,197.131382 C17.47807,194.578271 22.96992,191.772975 27.00982,191.267183 C29.12136,191.002921 31.34934,190.854452 33.50277,190.854452 C38.39325,190.854452 42.89465,191.622374 44.7442,193.548928 C45.52875,194.367288 45.795,195.347614 45.582,196.632694 C44.90395,200.701759 36.8419,200.701759 32.96743,200.701759 C30.75223,200.701759 29.57221,199.747006 29.57221,199.057936 C29.57221,198.37597 30.89778,197.414824 33.84357,197.414824 C34.62954,197.414824 35.26712,196.776902 35.26712,195.990509 C35.26712,195.204117 34.62954,194.566195 33.84357,194.566195 C31.73416,194.566195 30.02732,194.960456 28.7692,195.737614 C27.4699,196.540345 26.72511,197.750835 26.72511,199.058647 C26.72511,201.236676 28.91333,203.551099 32.96814,203.551099 C37.62574,203.551099 47.31653,203.551099 48.39076,197.100836 C48.57323,196.008979 48.52211,194.980347 48.2445,194.041223 C52.45338,194.605266 53.44809,196.816683 53.44809,197.743731 C53.44809,198.128047 53.4559,198.660833 53.46371,199.247608 C53.48146,200.490776 53.50631,202.19285 53.45164,202.893996 C53.1648,206.641968 45.1134,209.468576 34.72326,209.468576 C26.28065,209.468576 16.87386,206.340056 16.87386,201.850446 L16.8696,201.735364 C16.72689,200.000613 16.67151,197.746572 16.82842,197.131382 Z M13.8876,198.469741 C13.87411,199.869192 13.98487,201.407168 14.02463,201.912959 C14.08782,207.753005 23.15594,212.317916 34.72113,212.317916 C45.10559,212.317916 55.80245,209.471418 56.2888,203.113504 C56.35341,202.283068 56.32998,200.64848 56.30868,199.206406 C56.30442,198.932199 56.30087,198.670779 56.29803,198.43138 C59.76993,199.114767 60.68725,202.209899 60.71778,203.003395 L60.71778,210.249996 C60.71778,216.47933 49.12561,221.741836 35.40415,221.741836 C21.78493,221.741836 10.27938,216.47933 10.27938,210.249996 L10.27867,203.056673 C10.34612,201.255146 10.70964,199.299466 13.8876,198.469741 Z M7.43299,204.435524 L7.43299,210.249996 C7.43299,218.291513 19.72025,224.591176 35.40486,224.591176 C51.19597,224.591176 63.5663,218.292224 63.5663,210.249996 L63.56559,204.435524 C66.40985,204.495196 67.56715,206.535411 67.96759,209.823767 C63.92414,210.990924 63.99869,215.71567 64.05407,219.224955 C64.08247,221.037848 64.11939,223.29473 63.50169,223.912051 C63.4811,223.931942 63.46122,223.952543 63.44205,223.971013 C63.43566,223.957516 63.42927,223.944729 63.4243,223.931942 C62.97274,222.967954 62.29114,221.509541 60.57791,220.938395 C58.91083,220.382876 57.82808,220.89293 57.21251,221.417902 C55.75772,222.66107 55.39207,225.317186 56.09497,229.537562 C56.26679,230.567615 56.05521,231.309963 55.46733,231.741875 C54.89081,232.165973 53.97988,232.244825 53.34585,231.923022 C52.84672,231.670837 52.78921,231.307832 52.78921,231.056357 C52.78921,227.818439 49.86969,226.1256 46.98496,226.1256 C43.78925,226.1256 42.34937,228.582809 42.06679,230.882314 C41.98798,231.52663 41.97591,232.186574 41.96384,232.823786 C41.91698,235.444383 41.70753,235.886951 40.47142,235.97859 C40.46503,235.97859 40.45793,235.9793 40.45225,235.9793 C39.86011,235.9793 39.27507,234.059139 38.95912,233.021272 C38.49762,231.504608 38.13339,230.308326 37.11809,229.787616 C35.81879,229.121989 34.72397,229.288928 34.03456,229.548217 C32.42925,230.14991 31.11291,231.853405 29.891,234.909466 C29.64889,235.516132 29.18597,235.79318 28.71382,235.620558 C28.03293,235.370504 27.32861,234.069085 28.18274,231.506029 C28.59099,230.282041 28.39574,229.024666 27.6332,227.966198 C26.28775,226.098605 23.54999,225.247568 21.57477,225.247568 C16.94202,225.247568 16.77872,228.185706 16.70843,229.439529 C16.69849,229.617835 16.69352,229.786906 16.66725,229.933955 C16.56643,230.510784 16.32361,230.790675 16.14682,230.853188 C15.93169,230.93133 15.691,230.747341 15.59728,230.665647 C14.89793,230.060402 14.2994,228.265269 14.91355,225.198552 C15.15921,223.971723 14.96538,222.962982 14.33703,222.195059 C13.24789,220.865225 11.30107,220.865225 10.01242,220.865225 C7.5828,220.865225 7.07941,219.241293 6.43615,215.255343 C6.01228,212.630484 5.5309,209.673876 3.34197,208.128086 C3.92488,205.849893 5.11768,204.48454 7.43299,204.435524 Z M68.15219,223.604456 C68.15219,232.573732 53.2429,240.15137 35.59443,240.15137 C17.84372,240.15137 2.8471,232.573732 2.8471,223.604456 L2.8471,213.522723 C2.8471,213.078024 2.85491,212.649664 2.86698,212.229118 C3.21772,213.217969 3.42149,214.439825 3.62668,215.709277 C4.17125,219.087851 4.91746,223.714565 10.01384,223.714565 C11.26628,223.714565 11.98054,223.811887 12.13603,224.001559 C12.15449,224.023581 12.20987,224.206859 12.12254,224.639482 C11.38627,228.314285 11.97415,231.295756 13.73495,232.820945 C14.71759,233.671271 15.97713,233.940506 17.1039,233.537719 C18.34143,233.095862 19.20479,231.961383 19.47317,230.424118 C19.52216,230.144938 19.53778,229.867179 19.55269,229.598654 C19.61304,228.506088 19.63576,228.096908 21.57548,228.096908 C23.0324,228.096908 24.71368,228.785978 25.32357,229.632042 C25.55503,229.952424 25.6026,230.243681 25.4819,230.605265 C24.07397,234.831324 25.59905,237.513724 27.73473,238.295854 C29.65812,239.001263 31.7228,238.000336 32.53504,235.968645 C33.72997,232.98007 34.68066,232.349251 35.03424,232.21641 C35.17766,232.163131 35.36581,232.128323 35.67537,232.256902 C35.84222,232.558814 36.07581,233.326736 36.23627,233.852418 C36.84332,235.84859 37.75141,238.830771 40.40823,238.830771 C40.49769,238.830771 40.58928,238.82722 40.68371,238.820116 C44.7087,238.521756 44.77331,234.987608 44.81165,232.877065 C44.8223,232.285317 44.83224,231.727668 44.8933,231.22969 C45.01897,230.201058 45.48473,228.97494 46.98425,228.97494 C47.10495,228.97494 49.94069,228.998382 49.94069,231.057068 C49.94069,232.541054 50.71317,233.783511 52.05862,234.466188 C53.65967,235.276023 55.70518,235.10269 57.15216,234.038538 C58.61263,232.965152 59.25021,231.15439 58.90302,229.06942 C58.28603,225.366202 58.73759,223.862324 59.06206,223.584565 C59.1359,223.521341 59.3844,223.544784 59.67763,223.642106 C60.19238,223.813308 60.47354,224.346805 60.84487,225.140301 C61.22046,225.943032 61.68764,226.942538 62.83358,227.143576 C63.94047,227.339642 64.84714,226.595162 65.51525,225.926693 C66.98566,224.455493 66.94448,221.892437 66.90117,219.17949 C66.84508,215.636818 67.0311,213.693214 68.1458,212.879828 C68.14864,213.093653 68.15219,213.304636 68.15219,213.522723 L68.15219,223.604456 L68.15219,223.604456 Z" id="Shape-Copy"></path>
                <path d="M222.44205,201.57908 C222.40868,201.57908 222.37744,201.586894 222.34478,201.589025 C221.62413,198.909467 219.11357,195.837777 214.71228,195.484718 C213.65722,193.361388 210.97413,191.095981 205.24443,191.060462 C200.38519,186.97648 189.10542,188.008664 185.65553,188.440576 C181.43671,188.968389 175.22918,191.647948 173.43288,195.455592 C173.3988,195.459144 173.36543,195.457013 173.33206,195.462696 C168.09865,196.335044 166.87035,199.478482 166.5544,201.57908 C159,201.580501 159,209.948794 159,213.522723 L159,223.603746 C159,234.299248 174.96719,243 194.59443,243 C214.44816,243 230,234.480396 230,223.604456 L230,213.522723 C230,209.948794 230,201.57908 222.44205,201.57908 Z M175.82842,197.131382 C176.47807,194.578271 181.96992,191.772975 186.00982,191.267183 C188.12136,191.002921 190.34934,190.854452 192.50277,190.854452 C197.39325,190.854452 201.89465,191.622374 203.7442,193.548928 C204.52875,194.367288 204.795,195.347614 204.582,196.632694 C203.90395,200.701759 195.8419,200.701759 191.96743,200.701759 C189.75223,200.701759 188.57221,199.747006 188.57221,199.057936 C188.57221,198.37597 189.89778,197.414824 192.84357,197.414824 C193.62954,197.414824 194.26712,196.776902 194.26712,195.990509 C194.26712,195.204117 193.62954,194.566195 192.84357,194.566195 C190.73416,194.566195 189.02732,194.960456 187.7692,195.737614 C186.4699,196.540345 185.72511,197.750835 185.72511,199.058647 C185.72511,201.236676 187.91333,203.551099 191.96814,203.551099 C196.62574,203.551099 206.31653,203.551099 207.39076,197.100836 C207.57323,196.008979 207.52211,194.980347 207.2445,194.041223 C211.45338,194.605266 212.44809,196.816683 212.44809,197.743731 C212.44809,198.128047 212.4559,198.660833 212.46371,199.247608 C212.48146,200.490776 212.50631,202.19285 212.45164,202.893996 C212.1648,206.641968 204.1134,209.468576 193.72326,209.468576 C185.28065,209.468576 175.87386,206.340056 175.87386,201.850446 L175.8696,201.735364 C175.72689,200.000613 175.67151,197.746572 175.82842,197.131382 Z M172.8876,198.469741 C172.87411,199.869192 172.98487,201.407168 173.02463,201.912959 C173.08782,207.753005 182.15594,212.317916 193.72113,212.317916 C204.10559,212.317916 214.80245,209.471418 215.2888,203.113504 C215.35341,202.283068 215.32998,200.64848 215.30868,199.206406 C215.30442,198.932199 215.30087,198.670779 215.29803,198.43138 C218.76993,199.114767 219.68725,202.209899 219.71778,203.003395 L219.71778,210.249996 C219.71778,216.47933 208.12561,221.741836 194.40415,221.741836 C180.78493,221.741836 169.27938,216.47933 169.27938,210.249996 L169.27867,203.056673 C169.34612,201.255146 169.70964,199.299466 172.8876,198.469741 Z M166.43299,204.435524 L166.43299,210.249996 C166.43299,218.291513 178.72025,224.591176 194.40486,224.591176 C210.19597,224.591176 222.5663,218.292224 222.5663,210.249996 L222.56559,204.435524 C225.40985,204.495196 226.56715,206.535411 226.96759,209.823767 C222.92414,210.990924 222.99869,215.71567 223.05407,219.224955 C223.08247,221.037848 223.11939,223.29473 222.50169,223.912051 C222.4811,223.931942 222.46122,223.952543 222.44205,223.971013 C222.43566,223.957516 222.42927,223.944729 222.4243,223.931942 C221.97274,222.967954 221.29114,221.509541 219.57791,220.938395 C217.91083,220.382876 216.82808,220.89293 216.21251,221.417902 C214.75772,222.66107 214.39207,225.317186 215.09497,229.537562 C215.26679,230.567615 215.05521,231.309963 214.46733,231.741875 C213.89081,232.165973 212.97988,232.244825 212.34585,231.923022 C211.84672,231.670837 211.78921,231.307832 211.78921,231.056357 C211.78921,227.818439 208.86969,226.1256 205.98496,226.1256 C202.78925,226.1256 201.34937,228.582809 201.06679,230.882314 C200.98798,231.52663 200.97591,232.186574 200.96384,232.823786 C200.91698,235.444383 200.70753,235.886951 199.47142,235.97859 C199.46503,235.97859 199.45793,235.9793 199.45225,235.9793 C198.86011,235.9793 198.27507,234.059139 197.95912,233.021272 C197.49762,231.504608 197.13339,230.308326 196.11809,229.787616 C194.81879,229.121989 193.72397,229.288928 193.03456,229.548217 C191.42925,230.14991 190.11291,231.853405 188.891,234.909466 C188.64889,235.516132 188.18597,235.79318 187.71382,235.620558 C187.03293,235.370504 186.32861,234.069085 187.18274,231.506029 C187.59099,230.282041 187.39574,229.024666 186.6332,227.966198 C185.28775,226.098605 182.54999,225.247568 180.57477,225.247568 C175.94202,225.247568 175.77872,228.185706 175.70843,229.439529 C175.69849,229.617835 175.69352,229.786906 175.66725,229.933955 C175.56643,230.510784 175.32361,230.790675 175.14682,230.853188 C174.93169,230.93133 174.691,230.747341 174.59728,230.665647 C173.89793,230.060402 173.2994,228.265269 173.91355,225.198552 C174.15921,223.971723 173.96538,222.962982 173.33703,222.195059 C172.24789,220.865225 170.30107,220.865225 169.01242,220.865225 C166.5828,220.865225 166.07941,219.241293 165.43615,215.255343 C165.01228,212.630484 164.5309,209.673876 162.34197,208.128086 C162.92488,205.849893 164.11768,204.48454 166.43299,204.435524 Z M227.15219,223.604456 C227.15219,232.573732 212.2429,240.15137 194.59443,240.15137 C176.84372,240.15137 161.8471,232.573732 161.8471,223.604456 L161.8471,213.522723 C161.8471,213.078024 161.85491,212.649664 161.86698,212.229118 C162.21772,213.217969 162.42149,214.439825 162.62668,215.709277 C163.17125,219.087851 163.91746,223.714565 169.01384,223.714565 C170.26628,223.714565 170.98054,223.811887 171.13603,224.001559 C171.15449,224.023581 171.20987,224.206859 171.12254,224.639482 C170.38627,228.314285 170.97415,231.295756 172.73495,232.820945 C173.71759,233.671271 174.97713,233.940506 176.1039,233.537719 C177.34143,233.095862 178.20479,231.961383 178.47317,230.424118 C178.52216,230.144938 178.53778,229.867179 178.55269,229.598654 C178.61304,228.506088 178.63576,228.096908 180.57548,228.096908 C182.0324,228.096908 183.71368,228.785978 184.32357,229.632042 C184.55503,229.952424 184.6026,230.243681 184.4819,230.605265 C183.07397,234.831324 184.59905,237.513724 186.73473,238.295854 C188.65812,239.001263 190.7228,238.000336 191.53504,235.968645 C192.72997,232.98007 193.68066,232.349251 194.03424,232.21641 C194.17766,232.163131 194.36581,232.128323 194.67537,232.256902 C194.84222,232.558814 195.07581,233.326736 195.23627,233.852418 C195.84332,235.84859 196.75141,238.830771 199.40823,238.830771 C199.49769,238.830771 199.58928,238.82722 199.68371,238.820116 C203.7087,238.521756 203.77331,234.987608 203.81165,232.877065 C203.8223,232.285317 203.83224,231.727668 203.8933,231.22969 C204.01897,230.201058 204.48473,228.97494 205.98425,228.97494 C206.10495,228.97494 208.94069,228.998382 208.94069,231.057068 C208.94069,232.541054 209.71317,233.783511 211.05862,234.466188 C212.65967,235.276023 214.70518,235.10269 216.15216,234.038538 C217.61263,232.965152 218.25021,231.15439 217.90302,229.06942 C217.28603,225.366202 217.73759,223.862324 218.06206,223.584565 C218.1359,223.521341 218.3844,223.544784 218.67763,223.642106 C219.19238,223.813308 219.47354,224.346805 219.84487,225.140301 C220.22046,225.943032 220.68764,226.942538 221.83358,227.143576 C222.94047,227.339642 223.84714,226.595162 224.51525,225.926693 C225.98566,224.455493 225.94448,221.892437 225.90117,219.17949 C225.84508,215.636818 226.0311,213.693214 227.1458,212.879828 C227.14864,213.093653 227.15219,213.304636 227.15219,213.522723 L227.15219,223.604456 L227.15219,223.604456 Z" id="Shape-Copy-2"></path>
                <path d="M222.44205,140.57908 C222.40868,140.57908 222.37744,140.586894 222.34478,140.589025 C221.62413,137.909467 219.11357,134.837777 214.71228,134.484718 C213.65722,132.361388 210.97413,130.095981 205.24443,130.060462 C200.38519,125.97648 189.10542,127.008664 185.65553,127.440576 C181.43671,127.968389 175.22918,130.647948 173.43288,134.455592 C173.3988,134.459144 173.36543,134.457013 173.33206,134.462696 C168.09865,135.335044 166.87035,138.478482 166.5544,140.57908 C159,140.580501 159,148.948794 159,152.522723 L159,162.603746 C159,173.299248 174.96719,182 194.59443,182 C214.44816,182 230,173.480396 230,162.604456 L230,152.522723 C230,148.948794 230,140.57908 222.44205,140.57908 Z M175.82842,136.131382 C176.47807,133.578271 181.96992,130.772975 186.00982,130.267183 C188.12136,130.002921 190.34934,129.854452 192.50277,129.854452 C197.39325,129.854452 201.89465,130.622374 203.7442,132.548928 C204.52875,133.367288 204.795,134.347614 204.582,135.632694 C203.90395,139.701759 195.8419,139.701759 191.96743,139.701759 C189.75223,139.701759 188.57221,138.747006 188.57221,138.057936 C188.57221,137.37597 189.89778,136.414824 192.84357,136.414824 C193.62954,136.414824 194.26712,135.776902 194.26712,134.990509 C194.26712,134.204117 193.62954,133.566195 192.84357,133.566195 C190.73416,133.566195 189.02732,133.960456 187.7692,134.737614 C186.4699,135.540345 185.72511,136.750835 185.72511,138.058647 C185.72511,140.236676 187.91333,142.551099 191.96814,142.551099 C196.62574,142.551099 206.31653,142.551099 207.39076,136.100836 C207.57323,135.008979 207.52211,133.980347 207.2445,133.041223 C211.45338,133.605266 212.44809,135.816683 212.44809,136.743731 C212.44809,137.128047 212.4559,137.660833 212.46371,138.247608 C212.48146,139.490776 212.50631,141.19285 212.45164,141.893996 C212.1648,145.641968 204.1134,148.468576 193.72326,148.468576 C185.28065,148.468576 175.87386,145.340056 175.87386,140.850446 L175.8696,140.735364 C175.72689,139.000613 175.67151,136.746572 175.82842,136.131382 Z M172.8876,137.469741 C172.87411,138.869192 172.98487,140.407168 173.02463,140.912959 C173.08782,146.753005 182.15594,151.317916 193.72113,151.317916 C204.10559,151.317916 214.80245,148.471418 215.2888,142.113504 C215.35341,141.283068 215.32998,139.64848 215.30868,138.206406 C215.30442,137.932199 215.30087,137.670779 215.29803,137.43138 C218.76993,138.114767 219.68725,141.209899 219.71778,142.003395 L219.71778,149.249996 C219.71778,155.47933 208.12561,160.741836 194.40415,160.741836 C180.78493,160.741836 169.27938,155.47933 169.27938,149.249996 L169.27867,142.056673 C169.34612,140.255146 169.70964,138.299466 172.8876,137.469741 Z M166.43299,143.435524 L166.43299,149.249996 C166.43299,157.291513 178.72025,163.591176 194.40486,163.591176 C210.19597,163.591176 222.5663,157.292224 222.5663,149.249996 L222.56559,143.435524 C225.40985,143.495196 226.56715,145.535411 226.96759,148.823767 C222.92414,149.990924 222.99869,154.71567 223.05407,158.224955 C223.08247,160.037848 223.11939,162.29473 222.50169,162.912051 C222.4811,162.931942 222.46122,162.952543 222.44205,162.971013 C222.43566,162.957516 222.42927,162.944729 222.4243,162.931942 C221.97274,161.967954 221.29114,160.509541 219.57791,159.938395 C217.91083,159.382876 216.82808,159.89293 216.21251,160.417902 C214.75772,161.66107 214.39207,164.317186 215.09497,168.537562 C215.26679,169.567615 215.05521,170.309963 214.46733,170.741875 C213.89081,171.165973 212.97988,171.244825 212.34585,170.923022 C211.84672,170.670837 211.78921,170.307832 211.78921,170.056357 C211.78921,166.818439 208.86969,165.1256 205.98496,165.1256 C202.78925,165.1256 201.34937,167.582809 201.06679,169.882314 C200.98798,170.52663 200.97591,171.186574 200.96384,171.823786 C200.91698,174.444383 200.70753,174.886951 199.47142,174.97859 C199.46503,174.97859 199.45793,174.9793 199.45225,174.9793 C198.86011,174.9793 198.27507,173.059139 197.95912,172.021272 C197.49762,170.504608 197.13339,169.308326 196.11809,168.787616 C194.81879,168.121989 193.72397,168.288928 193.03456,168.548217 C191.42925,169.14991 190.11291,170.853405 188.891,173.909466 C188.64889,174.516132 188.18597,174.79318 187.71382,174.620558 C187.03293,174.370504 186.32861,173.069085 187.18274,170.506029 C187.59099,169.282041 187.39574,168.024666 186.6332,166.966198 C185.28775,165.098605 182.54999,164.247568 180.57477,164.247568 C175.94202,164.247568 175.77872,167.185706 175.70843,168.439529 C175.69849,168.617835 175.69352,168.786906 175.66725,168.933955 C175.56643,169.510784 175.32361,169.790675 175.14682,169.853188 C174.93169,169.93133 174.691,169.747341 174.59728,169.665647 C173.89793,169.060402 173.2994,167.265269 173.91355,164.198552 C174.15921,162.971723 173.96538,161.962982 173.33703,161.195059 C172.24789,159.865225 170.30107,159.865225 169.01242,159.865225 C166.5828,159.865225 166.07941,158.241293 165.43615,154.255343 C165.01228,151.630484 164.5309,148.673876 162.34197,147.128086 C162.92488,144.849893 164.11768,143.48454 166.43299,143.435524 Z M227.15219,162.604456 C227.15219,171.573732 212.2429,179.15137 194.59443,179.15137 C176.84372,179.15137 161.8471,171.573732 161.8471,162.604456 L161.8471,152.522723 C161.8471,152.078024 161.85491,151.649664 161.86698,151.229118 C162.21772,152.217969 162.42149,153.439825 162.62668,154.709277 C163.17125,158.087851 163.91746,162.714565 169.01384,162.714565 C170.26628,162.714565 170.98054,162.811887 171.13603,163.001559 C171.15449,163.023581 171.20987,163.206859 171.12254,163.639482 C170.38627,167.314285 170.97415,170.295756 172.73495,171.820945 C173.71759,172.671271 174.97713,172.940506 176.1039,172.537719 C177.34143,172.095862 178.20479,170.961383 178.47317,169.424118 C178.52216,169.144938 178.53778,168.867179 178.55269,168.598654 C178.61304,167.506088 178.63576,167.096908 180.57548,167.096908 C182.0324,167.096908 183.71368,167.785978 184.32357,168.632042 C184.55503,168.952424 184.6026,169.243681 184.4819,169.605265 C183.07397,173.831324 184.59905,176.513724 186.73473,177.295854 C188.65812,178.001263 190.7228,177.000336 191.53504,174.968645 C192.72997,171.98007 193.68066,171.349251 194.03424,171.21641 C194.17766,171.163131 194.36581,171.128323 194.67537,171.256902 C194.84222,171.558814 195.07581,172.326736 195.23627,172.852418 C195.84332,174.84859 196.75141,177.830771 199.40823,177.830771 C199.49769,177.830771 199.58928,177.82722 199.68371,177.820116 C203.7087,177.521756 203.77331,173.987608 203.81165,171.877065 C203.8223,171.285317 203.83224,170.727668 203.8933,170.22969 C204.01897,169.201058 204.48473,167.97494 205.98425,167.97494 C206.10495,167.97494 208.94069,167.998382 208.94069,170.057068 C208.94069,171.541054 209.71317,172.783511 211.05862,173.466188 C212.65967,174.276023 214.70518,174.10269 216.15216,173.038538 C217.61263,171.965152 218.25021,170.15439 217.90302,168.06942 C217.28603,164.366202 217.73759,162.862324 218.06206,162.584565 C218.1359,162.521341 218.3844,162.544784 218.67763,162.642106 C219.19238,162.813308 219.47354,163.346805 219.84487,164.140301 C220.22046,164.943032 220.68764,165.942538 221.83358,166.143576 C222.94047,166.339642 223.84714,165.595162 224.51525,164.926693 C225.98566,163.455493 225.94448,160.892437 225.90117,158.17949 C225.84508,154.636818 226.0311,152.693214 227.1458,151.879828 C227.14864,152.093653 227.15219,152.304636 227.15219,152.522723 L227.15219,162.604456 L227.15219,162.604456 Z" id="Shape-Copy-3"></path>
                <path d="M63.44205,13.5790801 C63.40868,13.5790801 63.37744,13.5868943 63.34478,13.5890254 C62.62413,10.9094667 60.11357,7.8377774 55.71228,7.48471784 C54.65722,5.36138777 51.97413,3.09598141 46.24443,3.06046234 C41.38519,-1.02352045 30.10542,0.00866375359 26.65553,0.440575658 C22.43671,0.968389054 16.22918,3.64794778 14.43288,7.4555922 C14.3988,7.45914411 14.36543,7.45701296 14.33206,7.46269601 C9.09865,8.3350444 7.87035,11.4784822 7.5544,13.5790801 C0,13.5805008 0,21.948794 0,25.5227229 L0,35.6037457 C0,46.2992483 15.96719,55 35.59443,55 C55.44816,55 71,46.4803956 71,35.604456 L71,25.5227229 C71,21.948794 71,13.5790801 63.44205,13.5790801 Z M16.82842,9.13138197 C17.47807,6.57827114 22.96992,3.77297491 27.00982,3.26718334 C29.12136,3.00292145 31.34934,2.85445173 33.50277,2.85445173 C38.39325,2.85445173 42.89465,3.62237405 44.7442,5.54892846 C45.52875,6.36728786 45.795,7.34761422 45.582,8.63269421 C44.90395,12.701759 36.8419,12.701759 32.96743,12.701759 C30.75223,12.701759 29.57221,11.7470064 29.57221,11.0579364 C29.57221,10.3759702 30.89778,9.41482416 33.84357,9.41482416 C34.62954,9.41482416 35.26712,8.77690164 35.26712,7.99050941 C35.26712,7.20411718 34.62954,6.56619466 33.84357,6.56619466 C31.73416,6.56619466 30.02732,6.96045635 28.7692,7.73761362 C27.4699,8.54034463 26.72511,9.75083457 26.72511,11.0586468 C26.72511,13.2366762 28.91333,15.5510989 32.96814,15.5510989 C37.62574,15.5510989 47.31653,15.5510989 48.39076,9.10083557 C48.57323,8.00897933 48.52211,6.98034703 48.2445,6.04122279 C52.45338,6.60526564 53.44809,8.816683 53.44809,9.74373076 C53.44809,10.1280471 53.4559,10.6608332 53.46371,11.2476082 C53.48146,12.4907757 53.50631,14.1928496 53.45164,14.8939961 C53.1648,18.6419684 45.1134,21.4685761 34.72326,21.4685761 C26.28065,21.4685761 16.87386,18.3400563 16.87386,13.8504458 L16.8696,13.735364 C16.72689,12.0006125 16.67151,9.74657228 16.82842,9.13138197 Z M13.8876,10.4697406 C13.87411,11.869192 13.98487,13.4071678 14.02463,13.9129593 C14.08782,19.753005 23.15594,24.317916 34.72113,24.317916 C45.10559,24.317916 55.80245,21.4714177 56.2888,15.1135039 C56.35341,14.283068 56.32998,12.6484804 56.30868,11.2064061 C56.30442,10.9321989 56.30087,10.6707785 56.29803,10.43138 C59.76993,11.1147669 60.68725,14.2098988 60.71778,15.0033948 L60.71778,22.2499957 C60.71778,28.4793304 49.12561,33.741836 35.40415,33.741836 C21.78493,33.741836 10.27938,28.4793304 10.27938,22.2499957 L10.27867,15.0566734 C10.34612,13.2551461 10.70964,11.2994661 13.8876,10.4697406 Z M7.43299,16.4355238 L7.43299,22.2499957 C7.43299,30.2915134 19.72025,36.5911758 35.40486,36.5911758 C51.19597,36.5911758 63.5663,30.2922238 63.5663,22.2499957 L63.56559,16.4355238 C66.40985,16.4951958 67.56715,18.5354112 67.96759,21.8237668 C63.92414,22.9909235 63.99869,27.7156703 64.05407,31.2249546 C64.08247,33.037848 64.11939,35.2947297 63.50169,35.9120512 C63.4811,35.9319419 63.46122,35.9525429 63.44205,35.9710129 C63.43566,35.9575156 63.42927,35.9447287 63.4243,35.9319419 C62.97274,34.9679543 62.29114,33.5095412 60.57791,32.9383946 C58.91083,32.3828763 57.82808,32.8929302 57.21251,33.417902 C55.75772,34.6610695 55.39207,37.3171856 56.09497,41.5375617 C56.26679,42.5676147 56.05521,43.3099633 55.46733,43.7418752 C54.89081,44.1659729 53.97988,44.2448253 53.34585,43.9230225 C52.84672,43.6708371 52.78921,43.3078322 52.78921,43.0563572 C52.78921,39.8184386 49.86969,38.1255997 46.98496,38.1255997 C43.78925,38.1255997 42.34937,40.582809 42.06679,42.8823137 C41.98798,43.5266297 41.97591,44.186574 41.96384,44.8237861 C41.91698,47.4443832 41.70753,47.8869508 40.47142,47.97859 C40.46503,47.97859 40.45793,47.9793004 40.45225,47.9793004 C39.86011,47.9793004 39.27507,46.0591394 38.95912,45.0212722 C38.49762,43.5046078 38.13339,42.3083255 37.11809,41.7876159 C35.81879,41.1219885 34.72397,41.2889282 34.03456,41.5482174 C32.42925,42.1499105 31.11291,43.8534051 29.891,46.909466 C29.64889,47.5161317 29.18597,47.7931805 28.71382,47.6205578 C28.03293,47.3705035 27.32861,46.0690848 28.18274,43.5060286 C28.59099,42.2820414 28.39574,41.0246663 27.6332,39.966198 C26.28775,38.0986052 23.54999,37.2475683 21.57477,37.2475683 C16.94202,37.2475683 16.77872,40.1857058 16.70843,41.439529 C16.69849,41.6178348 16.69352,41.7869056 16.66725,41.9339545 C16.56643,42.5107842 16.32361,42.7906745 16.14682,42.8531881 C15.93169,42.93133 15.691,42.7473412 15.59728,42.6656474 C14.89793,42.0604024 14.2994,40.2652685 14.91355,37.1985519 C15.15921,35.9717232 14.96538,34.9629816 14.33703,34.1950593 C13.24789,32.8652253 11.30107,32.8652253 10.01242,32.8652253 C7.5828,32.8652253 7.07941,31.2412933 6.43615,27.2553432 C6.01228,24.6304838 5.5309,21.6738764 3.34197,20.1280864 C3.92488,17.8498932 5.11768,16.4845401 7.43299,16.4355238 Z M68.15219,35.604456 C68.15219,44.5737319 53.2429,52.1513705 35.59443,52.1513705 C17.84372,52.1513705 2.8471,44.5737319 2.8471,35.604456 L2.8471,25.5227229 C2.8471,25.0780241 2.85491,24.6496641 2.86698,24.2291183 C3.21772,25.2179693 3.42149,26.4398253 3.62668,27.7092769 C4.17125,31.087851 4.91746,35.7145652 10.01384,35.7145652 C11.26628,35.7145652 11.98054,35.8118874 12.13603,36.0015593 C12.15449,36.0235811 12.20987,36.2068595 12.12254,36.6394818 C11.38627,40.3142849 11.97415,43.2957557 13.73495,44.8209446 C14.71759,45.6712712 15.97713,45.9405057 17.1039,45.5377195 C18.34143,45.0958622 19.20479,43.9613831 19.47317,42.4241177 C19.52216,42.1449378 19.53778,41.8671787 19.55269,41.5986545 C19.61304,40.5060879 19.63576,40.0969082 21.57548,40.0969082 C23.0324,40.0969082 24.71368,40.7859781 25.32357,41.6320424 C25.55503,41.9524244 25.6026,42.2436808 25.4819,42.605265 C24.07397,46.831324 25.59905,49.5137243 27.73473,50.2958542 C29.65812,51.001263 31.7228,50.0003356 32.53504,47.9686447 C33.72997,44.98007 34.68066,44.3492513 35.03424,44.21641 C35.17766,44.1631314 35.36581,44.1283227 35.67537,44.2569018 C35.84222,44.5588139 36.07581,45.3267362 36.23627,45.8524184 C36.84332,47.8485902 37.75141,50.8307714 40.40823,50.8307714 C40.49769,50.8307714 40.58928,50.8272195 40.68371,50.8201157 C44.7087,50.5217555 44.77331,46.9876079 44.81165,44.8770647 C44.8223,44.285317 44.83224,43.7276676 44.8933,43.2296902 C45.01897,42.2010579 45.48473,40.9749396 46.98425,40.9749396 C47.10495,40.9749396 49.94069,40.9983822 49.94069,43.0570675 C49.94069,44.5410543 50.71317,45.7835114 52.05862,46.466188 C53.65967,47.2760228 55.70518,47.1026897 57.15216,46.0385384 C58.61263,44.965152 59.25021,43.1543898 58.90302,41.0694203 C58.28603,37.366202 58.73759,35.8623245 59.06206,35.5845654 C59.1359,35.5213414 59.3844,35.544784 59.67763,35.6421063 C60.19238,35.8133082 60.47354,36.3468046 60.84487,37.1403007 C61.22046,37.9430317 61.68764,38.9425383 62.83358,39.1435763 C63.94047,39.3396416 64.84714,38.5951618 65.51525,37.9266929 C66.98566,36.455493 66.94448,33.8924368 66.90117,31.1794902 C66.84508,27.636818 67.0311,25.6932144 68.1458,24.8798277 C68.14864,25.0936525 68.15219,25.3046358 68.15219,25.5227229 L68.15219,35.604456 L68.15219,35.604456 Z" id="Shape"></path>
                <path d="M63.44205,75.5790801 C63.40868,75.5790801 63.37744,75.5868943 63.34478,75.5890254 C62.62413,72.9094667 60.11357,69.8377774 55.71228,69.4847178 C54.65722,67.3613878 51.97413,65.0959814 46.24443,65.0604623 C41.38519,60.9764795 30.10542,62.0086638 26.65553,62.4405757 C22.43671,62.9683891 16.22918,65.6479478 14.43288,69.4555922 C14.3988,69.4591441 14.36543,69.457013 14.33206,69.462696 C9.09865,70.3350444 7.87035,73.4784822 7.5544,75.5790801 C0,75.5805008 0,83.948794 0,87.5227229 L0,97.6037457 C0,108.299248 15.96719,117 35.59443,117 C55.44816,117 71,108.480396 71,97.604456 L71,87.5227229 C71,83.948794 71,75.5790801 63.44205,75.5790801 Z M16.82842,71.131382 C17.47807,68.5782711 22.96992,65.7729749 27.00982,65.2671833 C29.12136,65.0029214 31.34934,64.8544517 33.50277,64.8544517 C38.39325,64.8544517 42.89465,65.622374 44.7442,67.5489285 C45.52875,68.3672879 45.795,69.3476142 45.582,70.6326942 C44.90395,74.701759 36.8419,74.701759 32.96743,74.701759 C30.75223,74.701759 29.57221,73.7470064 29.57221,73.0579364 C29.57221,72.3759702 30.89778,71.4148242 33.84357,71.4148242 C34.62954,71.4148242 35.26712,70.7769016 35.26712,69.9905094 C35.26712,69.2041172 34.62954,68.5661947 33.84357,68.5661947 C31.73416,68.5661947 30.02732,68.9604563 28.7692,69.7376136 C27.4699,70.5403446 26.72511,71.7508346 26.72511,73.0586468 C26.72511,75.2366762 28.91333,77.5510989 32.96814,77.5510989 C37.62574,77.5510989 47.31653,77.5510989 48.39076,71.1008356 C48.57323,70.0089793 48.52211,68.980347 48.2445,68.0412228 C52.45338,68.6052656 53.44809,70.816683 53.44809,71.7437308 C53.44809,72.1280471 53.4559,72.6608332 53.46371,73.2476082 C53.48146,74.4907757 53.50631,76.1928496 53.45164,76.8939961 C53.1648,80.6419684 45.1134,83.4685761 34.72326,83.4685761 C26.28065,83.4685761 16.87386,80.3400563 16.87386,75.8504458 L16.8696,75.735364 C16.72689,74.0006125 16.67151,71.7465723 16.82842,71.131382 Z M13.8876,72.4697406 C13.87411,73.869192 13.98487,75.4071678 14.02463,75.9129593 C14.08782,81.753005 23.15594,86.317916 34.72113,86.317916 C45.10559,86.317916 55.80245,83.4714177 56.2888,77.1135039 C56.35341,76.283068 56.32998,74.6484804 56.30868,73.2064061 C56.30442,72.9321989 56.30087,72.6707785 56.29803,72.43138 C59.76993,73.1147669 60.68725,76.2098988 60.71778,77.0033948 L60.71778,84.2499957 C60.71778,90.4793304 49.12561,95.741836 35.40415,95.741836 C21.78493,95.741836 10.27938,90.4793304 10.27938,84.2499957 L10.27867,77.0566734 C10.34612,75.2551461 10.70964,73.2994661 13.8876,72.4697406 Z M7.43299,78.4355238 L7.43299,84.2499957 C7.43299,92.2915134 19.72025,98.5911758 35.40486,98.5911758 C51.19597,98.5911758 63.5663,92.2922238 63.5663,84.2499957 L63.56559,78.4355238 C66.40985,78.4951958 67.56715,80.5354112 67.96759,83.8237668 C63.92414,84.9909235 63.99869,89.7156703 64.05407,93.2249546 C64.08247,95.037848 64.11939,97.2947297 63.50169,97.9120512 C63.4811,97.9319419 63.46122,97.9525429 63.44205,97.9710129 C63.43566,97.9575156 63.42927,97.9447287 63.4243,97.9319419 C62.97274,96.9679543 62.29114,95.5095412 60.57791,94.9383946 C58.91083,94.3828763 57.82808,94.8929302 57.21251,95.417902 C55.75772,96.6610695 55.39207,99.3171856 56.09497,103.537562 C56.26679,104.567615 56.05521,105.309963 55.46733,105.741875 C54.89081,106.165973 53.97988,106.244825 53.34585,105.923022 C52.84672,105.670837 52.78921,105.307832 52.78921,105.056357 C52.78921,101.818439 49.86969,100.1256 46.98496,100.1256 C43.78925,100.1256 42.34937,102.582809 42.06679,104.882314 C41.98798,105.52663 41.97591,106.186574 41.96384,106.823786 C41.91698,109.444383 41.70753,109.886951 40.47142,109.97859 C40.46503,109.97859 40.45793,109.9793 40.45225,109.9793 C39.86011,109.9793 39.27507,108.059139 38.95912,107.021272 C38.49762,105.504608 38.13339,104.308326 37.11809,103.787616 C35.81879,103.121989 34.72397,103.288928 34.03456,103.548217 C32.42925,104.14991 31.11291,105.853405 29.891,108.909466 C29.64889,109.516132 29.18597,109.79318 28.71382,109.620558 C28.03293,109.370504 27.32861,108.069085 28.18274,105.506029 C28.59099,104.282041 28.39574,103.024666 27.6332,101.966198 C26.28775,100.098605 23.54999,99.2475683 21.57477,99.2475683 C16.94202,99.2475683 16.77872,102.185706 16.70843,103.439529 C16.69849,103.617835 16.69352,103.786906 16.66725,103.933955 C16.56643,104.510784 16.32361,104.790675 16.14682,104.853188 C15.93169,104.93133 15.691,104.747341 15.59728,104.665647 C14.89793,104.060402 14.2994,102.265269 14.91355,99.1985519 C15.15921,97.9717232 14.96538,96.9629816 14.33703,96.1950593 C13.24789,94.8652253 11.30107,94.8652253 10.01242,94.8652253 C7.5828,94.8652253 7.07941,93.2412933 6.43615,89.2553432 C6.01228,86.6304838 5.5309,83.6738764 3.34197,82.1280864 C3.92488,79.8498932 5.11768,78.4845401 7.43299,78.4355238 Z M68.15219,97.604456 C68.15219,106.573732 53.2429,114.15137 35.59443,114.15137 C17.84372,114.15137 2.8471,106.573732 2.8471,97.604456 L2.8471,87.5227229 C2.8471,87.0780241 2.85491,86.6496641 2.86698,86.2291183 C3.21772,87.2179693 3.42149,88.4398253 3.62668,89.7092769 C4.17125,93.087851 4.91746,97.7145652 10.01384,97.7145652 C11.26628,97.7145652 11.98054,97.8118874 12.13603,98.0015593 C12.15449,98.0235811 12.20987,98.2068595 12.12254,98.6394818 C11.38627,102.314285 11.97415,105.295756 13.73495,106.820945 C14.71759,107.671271 15.97713,107.940506 17.1039,107.537719 C18.34143,107.095862 19.20479,105.961383 19.47317,104.424118 C19.52216,104.144938 19.53778,103.867179 19.55269,103.598654 C19.61304,102.506088 19.63576,102.096908 21.57548,102.096908 C23.0324,102.096908 24.71368,102.785978 25.32357,103.632042 C25.55503,103.952424 25.6026,104.243681 25.4819,104.605265 C24.07397,108.831324 25.59905,111.513724 27.73473,112.295854 C29.65812,113.001263 31.7228,112.000336 32.53504,109.968645 C33.72997,106.98007 34.68066,106.349251 35.03424,106.21641 C35.17766,106.163131 35.36581,106.128323 35.67537,106.256902 C35.84222,106.558814 36.07581,107.326736 36.23627,107.852418 C36.84332,109.84859 37.75141,112.830771 40.40823,112.830771 C40.49769,112.830771 40.58928,112.82722 40.68371,112.820116 C44.7087,112.521756 44.77331,108.987608 44.81165,106.877065 C44.8223,106.285317 44.83224,105.727668 44.8933,105.22969 C45.01897,104.201058 45.48473,102.97494 46.98425,102.97494 C47.10495,102.97494 49.94069,102.998382 49.94069,105.057068 C49.94069,106.541054 50.71317,107.783511 52.05862,108.466188 C53.65967,109.276023 55.70518,109.10269 57.15216,108.038538 C58.61263,106.965152 59.25021,105.15439 58.90302,103.06942 C58.28603,99.366202 58.73759,97.8623245 59.06206,97.5845654 C59.1359,97.5213414 59.3844,97.544784 59.67763,97.6421063 C60.19238,97.8133082 60.47354,98.3468046 60.84487,99.1403007 C61.22046,99.9430317 61.68764,100.942538 62.83358,101.143576 C63.94047,101.339642 64.84714,100.595162 65.51525,99.9266929 C66.98566,98.455493 66.94448,95.8924368 66.90117,93.1794902 C66.84508,89.636818 67.0311,87.6932144 68.1458,86.8798277 C68.14864,87.0936525 68.15219,87.3046358 68.15219,87.5227229 L68.15219,97.604456 L68.15219,97.604456 Z" id="Shape"></path>
                <path d="M144.44205,75.5790801 C144.40868,75.5790801 144.37744,75.5868943 144.34478,75.5890254 C143.62413,72.9094667 141.11357,69.8377774 136.71228,69.4847178 C135.65722,67.3613878 132.97413,65.0959814 127.24443,65.0604623 C122.38519,60.9764795 111.10542,62.0086638 107.65553,62.4405757 C103.43671,62.9683891 97.22918,65.6479478 95.43288,69.4555922 C95.3988,69.4591441 95.36543,69.457013 95.33206,69.462696 C90.09865,70.3350444 88.87035,73.4784822 88.5544,75.5790801 C81,75.5805008 81,83.948794 81,87.5227229 L81,97.6037457 C81,108.299248 96.96719,117 116.59443,117 C136.44816,117 152,108.480396 152,97.604456 L152,87.5227229 C152,83.948794 152,75.5790801 144.44205,75.5790801 Z M97.82842,71.131382 C98.47807,68.5782711 103.96992,65.7729749 108.00982,65.2671833 C110.12136,65.0029214 112.34934,64.8544517 114.50277,64.8544517 C119.39325,64.8544517 123.89465,65.622374 125.7442,67.5489285 C126.52875,68.3672879 126.795,69.3476142 126.582,70.6326942 C125.90395,74.701759 117.8419,74.701759 113.96743,74.701759 C111.75223,74.701759 110.57221,73.7470064 110.57221,73.0579364 C110.57221,72.3759702 111.89778,71.4148242 114.84357,71.4148242 C115.62954,71.4148242 116.26712,70.7769016 116.26712,69.9905094 C116.26712,69.2041172 115.62954,68.5661947 114.84357,68.5661947 C112.73416,68.5661947 111.02732,68.9604563 109.7692,69.7376136 C108.4699,70.5403446 107.72511,71.7508346 107.72511,73.0586468 C107.72511,75.2366762 109.91333,77.5510989 113.96814,77.5510989 C118.62574,77.5510989 128.31653,77.5510989 129.39076,71.1008356 C129.57323,70.0089793 129.52211,68.980347 129.2445,68.0412228 C133.45338,68.6052656 134.44809,70.816683 134.44809,71.7437308 C134.44809,72.1280471 134.4559,72.6608332 134.46371,73.2476082 C134.48146,74.4907757 134.50631,76.1928496 134.45164,76.8939961 C134.1648,80.6419684 126.1134,83.4685761 115.72326,83.4685761 C107.28065,83.4685761 97.87386,80.3400563 97.87386,75.8504458 L97.8696,75.735364 C97.72689,74.0006125 97.67151,71.7465723 97.82842,71.131382 Z M94.8876,72.4697406 C94.87411,73.869192 94.98487,75.4071678 95.02463,75.9129593 C95.08782,81.753005 104.15594,86.317916 115.72113,86.317916 C126.10559,86.317916 136.80245,83.4714177 137.2888,77.1135039 C137.35341,76.283068 137.32998,74.6484804 137.30868,73.2064061 C137.30442,72.9321989 137.30087,72.6707785 137.29803,72.43138 C140.76993,73.1147669 141.68725,76.2098988 141.71778,77.0033948 L141.71778,84.2499957 C141.71778,90.4793304 130.12561,95.741836 116.40415,95.741836 C102.78493,95.741836 91.27938,90.4793304 91.27938,84.2499957 L91.27867,77.0566734 C91.34612,75.2551461 91.70964,73.2994661 94.8876,72.4697406 Z M88.43299,78.4355238 L88.43299,84.2499957 C88.43299,92.2915134 100.72025,98.5911758 116.40486,98.5911758 C132.19597,98.5911758 144.5663,92.2922238 144.5663,84.2499957 L144.56559,78.4355238 C147.40985,78.4951958 148.56715,80.5354112 148.96759,83.8237668 C144.92414,84.9909235 144.99869,89.7156703 145.05407,93.2249546 C145.08247,95.037848 145.11939,97.2947297 144.50169,97.9120512 C144.4811,97.9319419 144.46122,97.9525429 144.44205,97.9710129 C144.43566,97.9575156 144.42927,97.9447287 144.4243,97.9319419 C143.97274,96.9679543 143.29114,95.5095412 141.57791,94.9383946 C139.91083,94.3828763 138.82808,94.8929302 138.21251,95.417902 C136.75772,96.6610695 136.39207,99.3171856 137.09497,103.537562 C137.26679,104.567615 137.05521,105.309963 136.46733,105.741875 C135.89081,106.165973 134.97988,106.244825 134.34585,105.923022 C133.84672,105.670837 133.78921,105.307832 133.78921,105.056357 C133.78921,101.818439 130.86969,100.1256 127.98496,100.1256 C124.78925,100.1256 123.34937,102.582809 123.06679,104.882314 C122.98798,105.52663 122.97591,106.186574 122.96384,106.823786 C122.91698,109.444383 122.70753,109.886951 121.47142,109.97859 C121.46503,109.97859 121.45793,109.9793 121.45225,109.9793 C120.86011,109.9793 120.27507,108.059139 119.95912,107.021272 C119.49762,105.504608 119.13339,104.308326 118.11809,103.787616 C116.81879,103.121989 115.72397,103.288928 115.03456,103.548217 C113.42925,104.14991 112.11291,105.853405 110.891,108.909466 C110.64889,109.516132 110.18597,109.79318 109.71382,109.620558 C109.03293,109.370504 108.32861,108.069085 109.18274,105.506029 C109.59099,104.282041 109.39574,103.024666 108.6332,101.966198 C107.28775,100.098605 104.54999,99.2475683 102.57477,99.2475683 C97.94202,99.2475683 97.77872,102.185706 97.70843,103.439529 C97.69849,103.617835 97.69352,103.786906 97.66725,103.933955 C97.56643,104.510784 97.32361,104.790675 97.14682,104.853188 C96.93169,104.93133 96.691,104.747341 96.59728,104.665647 C95.89793,104.060402 95.2994,102.265269 95.91355,99.1985519 C96.15921,97.9717232 95.96538,96.9629816 95.33703,96.1950593 C94.24789,94.8652253 92.30107,94.8652253 91.01242,94.8652253 C88.5828,94.8652253 88.07941,93.2412933 87.43615,89.2553432 C87.01228,86.6304838 86.5309,83.6738764 84.34197,82.1280864 C84.92488,79.8498932 86.11768,78.4845401 88.43299,78.4355238 Z M149.15219,97.604456 C149.15219,106.573732 134.2429,114.15137 116.59443,114.15137 C98.84372,114.15137 83.8471,106.573732 83.8471,97.604456 L83.8471,87.5227229 C83.8471,87.0780241 83.85491,86.6496641 83.86698,86.2291183 C84.21772,87.2179693 84.42149,88.4398253 84.62668,89.7092769 C85.17125,93.087851 85.91746,97.7145652 91.01384,97.7145652 C92.26628,97.7145652 92.98054,97.8118874 93.13603,98.0015593 C93.15449,98.0235811 93.20987,98.2068595 93.12254,98.6394818 C92.38627,102.314285 92.97415,105.295756 94.73495,106.820945 C95.71759,107.671271 96.97713,107.940506 98.1039,107.537719 C99.34143,107.095862 100.20479,105.961383 100.47317,104.424118 C100.52216,104.144938 100.53778,103.867179 100.55269,103.598654 C100.61304,102.506088 100.63576,102.096908 102.57548,102.096908 C104.0324,102.096908 105.71368,102.785978 106.32357,103.632042 C106.55503,103.952424 106.6026,104.243681 106.4819,104.605265 C105.07397,108.831324 106.59905,111.513724 108.73473,112.295854 C110.65812,113.001263 112.7228,112.000336 113.53504,109.968645 C114.72997,106.98007 115.68066,106.349251 116.03424,106.21641 C116.17766,106.163131 116.36581,106.128323 116.67537,106.256902 C116.84222,106.558814 117.07581,107.326736 117.23627,107.852418 C117.84332,109.84859 118.75141,112.830771 121.40823,112.830771 C121.49769,112.830771 121.58928,112.82722 121.68371,112.820116 C125.7087,112.521756 125.77331,108.987608 125.81165,106.877065 C125.8223,106.285317 125.83224,105.727668 125.8933,105.22969 C126.01897,104.201058 126.48473,102.97494 127.98425,102.97494 C128.10495,102.97494 130.94069,102.998382 130.94069,105.057068 C130.94069,106.541054 131.71317,107.783511 133.05862,108.466188 C134.65967,109.276023 136.70518,109.10269 138.15216,108.038538 C139.61263,106.965152 140.25021,105.15439 139.90302,103.06942 C139.28603,99.366202 139.73759,97.8623245 140.06206,97.5845654 C140.1359,97.5213414 140.3844,97.544784 140.67763,97.6421063 C141.19238,97.8133082 141.47354,98.3468046 141.84487,99.1403007 C142.22046,99.9430317 142.68764,100.942538 143.83358,101.143576 C144.94047,101.339642 145.84714,100.595162 146.51525,99.9266929 C147.98566,98.455493 147.94448,95.8924368 147.90117,93.1794902 C147.84508,89.636818 148.0311,87.6932144 149.1458,86.8798277 C149.14864,87.0936525 149.15219,87.3046358 149.15219,87.5227229 L149.15219,97.604456 L149.15219,97.604456 Z" id="Shape"></path>
                <path d="M144.44205,14.5790801 C144.40868,14.5790801 144.37744,14.5868943 144.34478,14.5890254 C143.62413,11.9094667 141.11357,8.8377774 136.71228,8.48471784 C135.65722,6.36138777 132.97413,4.09598141 127.24443,4.06046234 C122.38519,-0.0235204524 111.10542,1.00866375 107.65553,1.44057566 C103.43671,1.96838905 97.22918,4.64794778 95.43288,8.4555922 C95.3988,8.45914411 95.36543,8.45701296 95.33206,8.46269601 C90.09865,9.3350444 88.87035,12.4784822 88.5544,14.5790801 C81,14.5805008 81,22.948794 81,26.5227229 L81,36.6037457 C81,47.2992483 96.96719,56 116.59443,56 C136.44816,56 152,47.4803956 152,36.604456 L152,26.5227229 C152,22.948794 152,14.5790801 144.44205,14.5790801 Z M97.82842,10.131382 C98.47807,7.57827114 103.96992,4.77297491 108.00982,4.26718334 C110.12136,4.00292145 112.34934,3.85445173 114.50277,3.85445173 C119.39325,3.85445173 123.89465,4.62237405 125.7442,6.54892846 C126.52875,7.36728786 126.795,8.34761422 126.582,9.63269421 C125.90395,13.701759 117.8419,13.701759 113.96743,13.701759 C111.75223,13.701759 110.57221,12.7470064 110.57221,12.0579364 C110.57221,11.3759702 111.89778,10.4148242 114.84357,10.4148242 C115.62954,10.4148242 116.26712,9.77690164 116.26712,8.99050941 C116.26712,8.20411718 115.62954,7.56619466 114.84357,7.56619466 C112.73416,7.56619466 111.02732,7.96045635 109.7692,8.73761362 C108.4699,9.54034463 107.72511,10.7508346 107.72511,12.0586468 C107.72511,14.2366762 109.91333,16.5510989 113.96814,16.5510989 C118.62574,16.5510989 128.31653,16.5510989 129.39076,10.1008356 C129.57323,9.00897933 129.52211,7.98034703 129.2445,7.04122279 C133.45338,7.60526564 134.44809,9.816683 134.44809,10.7437308 C134.44809,11.1280471 134.4559,11.6608332 134.46371,12.2476082 C134.48146,13.4907757 134.50631,15.1928496 134.45164,15.8939961 C134.1648,19.6419684 126.1134,22.4685761 115.72326,22.4685761 C107.28065,22.4685761 97.87386,19.3400563 97.87386,14.8504458 L97.8696,14.735364 C97.72689,13.0006125 97.67151,10.7465723 97.82842,10.131382 Z M94.8876,11.4697406 C94.87411,12.869192 94.98487,14.4071678 95.02463,14.9129593 C95.08782,20.753005 104.15594,25.317916 115.72113,25.317916 C126.10559,25.317916 136.80245,22.4714177 137.2888,16.1135039 C137.35341,15.283068 137.32998,13.6484804 137.30868,12.2064061 C137.30442,11.9321989 137.30087,11.6707785 137.29803,11.43138 C140.76993,12.1147669 141.68725,15.2098988 141.71778,16.0033948 L141.71778,23.2499957 C141.71778,29.4793304 130.12561,34.741836 116.40415,34.741836 C102.78493,34.741836 91.27938,29.4793304 91.27938,23.2499957 L91.27867,16.0566734 C91.34612,14.2551461 91.70964,12.2994661 94.8876,11.4697406 Z M88.43299,17.4355238 L88.43299,23.2499957 C88.43299,31.2915134 100.72025,37.5911758 116.40486,37.5911758 C132.19597,37.5911758 144.5663,31.2922238 144.5663,23.2499957 L144.56559,17.4355238 C147.40985,17.4951958 148.56715,19.5354112 148.96759,22.8237668 C144.92414,23.9909235 144.99869,28.7156703 145.05407,32.2249546 C145.08247,34.037848 145.11939,36.2947297 144.50169,36.9120512 C144.4811,36.9319419 144.46122,36.9525429 144.44205,36.9710129 C144.43566,36.9575156 144.42927,36.9447287 144.4243,36.9319419 C143.97274,35.9679543 143.29114,34.5095412 141.57791,33.9383946 C139.91083,33.3828763 138.82808,33.8929302 138.21251,34.417902 C136.75772,35.6610695 136.39207,38.3171856 137.09497,42.5375617 C137.26679,43.5676147 137.05521,44.3099633 136.46733,44.7418752 C135.89081,45.1659729 134.97988,45.2448253 134.34585,44.9230225 C133.84672,44.6708371 133.78921,44.3078322 133.78921,44.0563572 C133.78921,40.8184386 130.86969,39.1255997 127.98496,39.1255997 C124.78925,39.1255997 123.34937,41.582809 123.06679,43.8823137 C122.98798,44.5266297 122.97591,45.186574 122.96384,45.8237861 C122.91698,48.4443832 122.70753,48.8869508 121.47142,48.97859 C121.46503,48.97859 121.45793,48.9793004 121.45225,48.9793004 C120.86011,48.9793004 120.27507,47.0591394 119.95912,46.0212722 C119.49762,44.5046078 119.13339,43.3083255 118.11809,42.7876159 C116.81879,42.1219885 115.72397,42.2889282 115.03456,42.5482174 C113.42925,43.1499105 112.11291,44.8534051 110.891,47.909466 C110.64889,48.5161317 110.18597,48.7931805 109.71382,48.6205578 C109.03293,48.3705035 108.32861,47.0690848 109.18274,44.5060286 C109.59099,43.2820414 109.39574,42.0246663 108.6332,40.966198 C107.28775,39.0986052 104.54999,38.2475683 102.57477,38.2475683 C97.94202,38.2475683 97.77872,41.1857058 97.70843,42.439529 C97.69849,42.6178348 97.69352,42.7869056 97.66725,42.9339545 C97.56643,43.5107842 97.32361,43.7906745 97.14682,43.8531881 C96.93169,43.93133 96.691,43.7473412 96.59728,43.6656474 C95.89793,43.0604024 95.2994,41.2652685 95.91355,38.1985519 C96.15921,36.9717232 95.96538,35.9629816 95.33703,35.1950593 C94.24789,33.8652253 92.30107,33.8652253 91.01242,33.8652253 C88.5828,33.8652253 88.07941,32.2412933 87.43615,28.2553432 C87.01228,25.6304838 86.5309,22.6738764 84.34197,21.1280864 C84.92488,18.8498932 86.11768,17.4845401 88.43299,17.4355238 Z M149.15219,36.604456 C149.15219,45.5737319 134.2429,53.1513705 116.59443,53.1513705 C98.84372,53.1513705 83.8471,45.5737319 83.8471,36.604456 L83.8471,26.5227229 C83.8471,26.0780241 83.85491,25.6496641 83.86698,25.2291183 C84.21772,26.2179693 84.42149,27.4398253 84.62668,28.7092769 C85.17125,32.087851 85.91746,36.7145652 91.01384,36.7145652 C92.26628,36.7145652 92.98054,36.8118874 93.13603,37.0015593 C93.15449,37.0235811 93.20987,37.2068595 93.12254,37.6394818 C92.38627,41.3142849 92.97415,44.2957557 94.73495,45.8209446 C95.71759,46.6712712 96.97713,46.9405057 98.1039,46.5377195 C99.34143,46.0958622 100.20479,44.9613831 100.47317,43.4241177 C100.52216,43.1449378 100.53778,42.8671787 100.55269,42.5986545 C100.61304,41.5060879 100.63576,41.0969082 102.57548,41.0969082 C104.0324,41.0969082 105.71368,41.7859781 106.32357,42.6320424 C106.55503,42.9524244 106.6026,43.2436808 106.4819,43.605265 C105.07397,47.831324 106.59905,50.5137243 108.73473,51.2958542 C110.65812,52.001263 112.7228,51.0003356 113.53504,48.9686447 C114.72997,45.98007 115.68066,45.3492513 116.03424,45.21641 C116.17766,45.1631314 116.36581,45.1283227 116.67537,45.2569018 C116.84222,45.5588139 117.07581,46.3267362 117.23627,46.8524184 C117.84332,48.8485902 118.75141,51.8307714 121.40823,51.8307714 C121.49769,51.8307714 121.58928,51.8272195 121.68371,51.8201157 C125.7087,51.5217555 125.77331,47.9876079 125.81165,45.8770647 C125.8223,45.285317 125.83224,44.7276676 125.8933,44.2296902 C126.01897,43.2010579 126.48473,41.9749396 127.98425,41.9749396 C128.10495,41.9749396 130.94069,41.9983822 130.94069,44.0570675 C130.94069,45.5410543 131.71317,46.7835114 133.05862,47.466188 C134.65967,48.2760228 136.70518,48.1026897 138.15216,47.0385384 C139.61263,45.965152 140.25021,44.1543898 139.90302,42.0694203 C139.28603,38.366202 139.73759,36.8623245 140.06206,36.5845654 C140.1359,36.5213414 140.3844,36.544784 140.67763,36.6421063 C141.19238,36.8133082 141.47354,37.3468046 141.84487,38.1403007 C142.22046,38.9430317 142.68764,39.9425383 143.83358,40.1435763 C144.94047,40.3396416 145.84714,39.5951618 146.51525,38.9266929 C147.98566,37.455493 147.94448,34.8924368 147.90117,32.1794902 C147.84508,28.636818 148.0311,26.6932144 149.1458,25.8798277 C149.14864,26.0936525 149.15219,26.3046358 149.15219,26.5227229 L149.15219,36.604456 L149.15219,36.604456 Z" id="Shape-Copy"></path>
                <path d="M144.44205,140.57908 C144.40868,140.57908 144.37744,140.586894 144.34478,140.589025 C143.62413,137.909467 141.11357,134.837777 136.71228,134.484718 C135.65722,132.361388 132.97413,130.095981 127.24443,130.060462 C122.38519,125.97648 111.10542,127.008664 107.65553,127.440576 C103.43671,127.968389 97.22918,130.647948 95.43288,134.455592 C95.3988,134.459144 95.36543,134.457013 95.33206,134.462696 C90.09865,135.335044 88.87035,138.478482 88.5544,140.57908 C81,140.580501 81,148.948794 81,152.522723 L81,162.603746 C81,173.299248 96.96719,182 116.59443,182 C136.44816,182 152,173.480396 152,162.604456 L152,152.522723 C152,148.948794 152,140.57908 144.44205,140.57908 Z M97.82842,136.131382 C98.47807,133.578271 103.96992,130.772975 108.00982,130.267183 C110.12136,130.002921 112.34934,129.854452 114.50277,129.854452 C119.39325,129.854452 123.89465,130.622374 125.7442,132.548928 C126.52875,133.367288 126.795,134.347614 126.582,135.632694 C125.90395,139.701759 117.8419,139.701759 113.96743,139.701759 C111.75223,139.701759 110.57221,138.747006 110.57221,138.057936 C110.57221,137.37597 111.89778,136.414824 114.84357,136.414824 C115.62954,136.414824 116.26712,135.776902 116.26712,134.990509 C116.26712,134.204117 115.62954,133.566195 114.84357,133.566195 C112.73416,133.566195 111.02732,133.960456 109.7692,134.737614 C108.4699,135.540345 107.72511,136.750835 107.72511,138.058647 C107.72511,140.236676 109.91333,142.551099 113.96814,142.551099 C118.62574,142.551099 128.31653,142.551099 129.39076,136.100836 C129.57323,135.008979 129.52211,133.980347 129.2445,133.041223 C133.45338,133.605266 134.44809,135.816683 134.44809,136.743731 C134.44809,137.128047 134.4559,137.660833 134.46371,138.247608 C134.48146,139.490776 134.50631,141.19285 134.45164,141.893996 C134.1648,145.641968 126.1134,148.468576 115.72326,148.468576 C107.28065,148.468576 97.87386,145.340056 97.87386,140.850446 L97.8696,140.735364 C97.72689,139.000613 97.67151,136.746572 97.82842,136.131382 Z M94.8876,137.469741 C94.87411,138.869192 94.98487,140.407168 95.02463,140.912959 C95.08782,146.753005 104.15594,151.317916 115.72113,151.317916 C126.10559,151.317916 136.80245,148.471418 137.2888,142.113504 C137.35341,141.283068 137.32998,139.64848 137.30868,138.206406 C137.30442,137.932199 137.30087,137.670779 137.29803,137.43138 C140.76993,138.114767 141.68725,141.209899 141.71778,142.003395 L141.71778,149.249996 C141.71778,155.47933 130.12561,160.741836 116.40415,160.741836 C102.78493,160.741836 91.27938,155.47933 91.27938,149.249996 L91.27867,142.056673 C91.34612,140.255146 91.70964,138.299466 94.8876,137.469741 Z M88.43299,143.435524 L88.43299,149.249996 C88.43299,157.291513 100.72025,163.591176 116.40486,163.591176 C132.19597,163.591176 144.5663,157.292224 144.5663,149.249996 L144.56559,143.435524 C147.40985,143.495196 148.56715,145.535411 148.96759,148.823767 C144.92414,149.990924 144.99869,154.71567 145.05407,158.224955 C145.08247,160.037848 145.11939,162.29473 144.50169,162.912051 C144.4811,162.931942 144.46122,162.952543 144.44205,162.971013 C144.43566,162.957516 144.42927,162.944729 144.4243,162.931942 C143.97274,161.967954 143.29114,160.509541 141.57791,159.938395 C139.91083,159.382876 138.82808,159.89293 138.21251,160.417902 C136.75772,161.66107 136.39207,164.317186 137.09497,168.537562 C137.26679,169.567615 137.05521,170.309963 136.46733,170.741875 C135.89081,171.165973 134.97988,171.244825 134.34585,170.923022 C133.84672,170.670837 133.78921,170.307832 133.78921,170.056357 C133.78921,166.818439 130.86969,165.1256 127.98496,165.1256 C124.78925,165.1256 123.34937,167.582809 123.06679,169.882314 C122.98798,170.52663 122.97591,171.186574 122.96384,171.823786 C122.91698,174.444383 122.70753,174.886951 121.47142,174.97859 C121.46503,174.97859 121.45793,174.9793 121.45225,174.9793 C120.86011,174.9793 120.27507,173.059139 119.95912,172.021272 C119.49762,170.504608 119.13339,169.308326 118.11809,168.787616 C116.81879,168.121989 115.72397,168.288928 115.03456,168.548217 C113.42925,169.14991 112.11291,170.853405 110.891,173.909466 C110.64889,174.516132 110.18597,174.79318 109.71382,174.620558 C109.03293,174.370504 108.32861,173.069085 109.18274,170.506029 C109.59099,169.282041 109.39574,168.024666 108.6332,166.966198 C107.28775,165.098605 104.54999,164.247568 102.57477,164.247568 C97.94202,164.247568 97.77872,167.185706 97.70843,168.439529 C97.69849,168.617835 97.69352,168.786906 97.66725,168.933955 C97.56643,169.510784 97.32361,169.790675 97.14682,169.853188 C96.93169,169.93133 96.691,169.747341 96.59728,169.665647 C95.89793,169.060402 95.2994,167.265269 95.91355,164.198552 C96.15921,162.971723 95.96538,161.962982 95.33703,161.195059 C94.24789,159.865225 92.30107,159.865225 91.01242,159.865225 C88.5828,159.865225 88.07941,158.241293 87.43615,154.255343 C87.01228,151.630484 86.5309,148.673876 84.34197,147.128086 C84.92488,144.849893 86.11768,143.48454 88.43299,143.435524 Z M149.15219,162.604456 C149.15219,171.573732 134.2429,179.15137 116.59443,179.15137 C98.84372,179.15137 83.8471,171.573732 83.8471,162.604456 L83.8471,152.522723 C83.8471,152.078024 83.85491,151.649664 83.86698,151.229118 C84.21772,152.217969 84.42149,153.439825 84.62668,154.709277 C85.17125,158.087851 85.91746,162.714565 91.01384,162.714565 C92.26628,162.714565 92.98054,162.811887 93.13603,163.001559 C93.15449,163.023581 93.20987,163.206859 93.12254,163.639482 C92.38627,167.314285 92.97415,170.295756 94.73495,171.820945 C95.71759,172.671271 96.97713,172.940506 98.1039,172.537719 C99.34143,172.095862 100.20479,170.961383 100.47317,169.424118 C100.52216,169.144938 100.53778,168.867179 100.55269,168.598654 C100.61304,167.506088 100.63576,167.096908 102.57548,167.096908 C104.0324,167.096908 105.71368,167.785978 106.32357,168.632042 C106.55503,168.952424 106.6026,169.243681 106.4819,169.605265 C105.07397,173.831324 106.59905,176.513724 108.73473,177.295854 C110.65812,178.001263 112.7228,177.000336 113.53504,174.968645 C114.72997,171.98007 115.68066,171.349251 116.03424,171.21641 C116.17766,171.163131 116.36581,171.128323 116.67537,171.256902 C116.84222,171.558814 117.07581,172.326736 117.23627,172.852418 C117.84332,174.84859 118.75141,177.830771 121.40823,177.830771 C121.49769,177.830771 121.58928,177.82722 121.68371,177.820116 C125.7087,177.521756 125.77331,173.987608 125.81165,171.877065 C125.8223,171.285317 125.83224,170.727668 125.8933,170.22969 C126.01897,169.201058 126.48473,167.97494 127.98425,167.97494 C128.10495,167.97494 130.94069,167.998382 130.94069,170.057068 C130.94069,171.541054 131.71317,172.783511 133.05862,173.466188 C134.65967,174.276023 136.70518,174.10269 138.15216,173.038538 C139.61263,171.965152 140.25021,170.15439 139.90302,168.06942 C139.28603,164.366202 139.73759,162.862324 140.06206,162.584565 C140.1359,162.521341 140.3844,162.544784 140.67763,162.642106 C141.19238,162.813308 141.47354,163.346805 141.84487,164.140301 C142.22046,164.943032 142.68764,165.942538 143.83358,166.143576 C144.94047,166.339642 145.84714,165.595162 146.51525,164.926693 C147.98566,163.455493 147.94448,160.892437 147.90117,158.17949 C147.84508,154.636818 148.0311,152.693214 149.1458,151.879828 C149.14864,152.093653 149.15219,152.304636 149.15219,152.522723 L149.15219,162.604456 L149.15219,162.604456 Z" id="Shape-Copy-2"></path>
                <path d="M63.44205,140.57908 C63.40868,140.57908 63.37744,140.586894 63.34478,140.589025 C62.62413,137.909467 60.11357,134.837777 55.71228,134.484718 C54.65722,132.361388 51.97413,130.095981 46.24443,130.060462 C41.38519,125.97648 30.10542,127.008664 26.65553,127.440576 C22.43671,127.968389 16.22918,130.647948 14.43288,134.455592 C14.3988,134.459144 14.36543,134.457013 14.33206,134.462696 C9.09865,135.335044 7.87035,138.478482 7.5544,140.57908 C0,140.580501 0,148.948794 0,152.522723 L0,162.603746 C0,173.299248 15.96719,182 35.59443,182 C55.44816,182 71,173.480396 71,162.604456 L71,152.522723 C71,148.948794 71,140.57908 63.44205,140.57908 Z M16.82842,136.131382 C17.47807,133.578271 22.96992,130.772975 27.00982,130.267183 C29.12136,130.002921 31.34934,129.854452 33.50277,129.854452 C38.39325,129.854452 42.89465,130.622374 44.7442,132.548928 C45.52875,133.367288 45.795,134.347614 45.582,135.632694 C44.90395,139.701759 36.8419,139.701759 32.96743,139.701759 C30.75223,139.701759 29.57221,138.747006 29.57221,138.057936 C29.57221,137.37597 30.89778,136.414824 33.84357,136.414824 C34.62954,136.414824 35.26712,135.776902 35.26712,134.990509 C35.26712,134.204117 34.62954,133.566195 33.84357,133.566195 C31.73416,133.566195 30.02732,133.960456 28.7692,134.737614 C27.4699,135.540345 26.72511,136.750835 26.72511,138.058647 C26.72511,140.236676 28.91333,142.551099 32.96814,142.551099 C37.62574,142.551099 47.31653,142.551099 48.39076,136.100836 C48.57323,135.008979 48.52211,133.980347 48.2445,133.041223 C52.45338,133.605266 53.44809,135.816683 53.44809,136.743731 C53.44809,137.128047 53.4559,137.660833 53.46371,138.247608 C53.48146,139.490776 53.50631,141.19285 53.45164,141.893996 C53.1648,145.641968 45.1134,148.468576 34.72326,148.468576 C26.28065,148.468576 16.87386,145.340056 16.87386,140.850446 L16.8696,140.735364 C16.72689,139.000613 16.67151,136.746572 16.82842,136.131382 Z M13.8876,137.469741 C13.87411,138.869192 13.98487,140.407168 14.02463,140.912959 C14.08782,146.753005 23.15594,151.317916 34.72113,151.317916 C45.10559,151.317916 55.80245,148.471418 56.2888,142.113504 C56.35341,141.283068 56.32998,139.64848 56.30868,138.206406 C56.30442,137.932199 56.30087,137.670779 56.29803,137.43138 C59.76993,138.114767 60.68725,141.209899 60.71778,142.003395 L60.71778,149.249996 C60.71778,155.47933 49.12561,160.741836 35.40415,160.741836 C21.78493,160.741836 10.27938,155.47933 10.27938,149.249996 L10.27867,142.056673 C10.34612,140.255146 10.70964,138.299466 13.8876,137.469741 Z M7.43299,143.435524 L7.43299,149.249996 C7.43299,157.291513 19.72025,163.591176 35.40486,163.591176 C51.19597,163.591176 63.5663,157.292224 63.5663,149.249996 L63.56559,143.435524 C66.40985,143.495196 67.56715,145.535411 67.96759,148.823767 C63.92414,149.990924 63.99869,154.71567 64.05407,158.224955 C64.08247,160.037848 64.11939,162.29473 63.50169,162.912051 C63.4811,162.931942 63.46122,162.952543 63.44205,162.971013 C63.43566,162.957516 63.42927,162.944729 63.4243,162.931942 C62.97274,161.967954 62.29114,160.509541 60.57791,159.938395 C58.91083,159.382876 57.82808,159.89293 57.21251,160.417902 C55.75772,161.66107 55.39207,164.317186 56.09497,168.537562 C56.26679,169.567615 56.05521,170.309963 55.46733,170.741875 C54.89081,171.165973 53.97988,171.244825 53.34585,170.923022 C52.84672,170.670837 52.78921,170.307832 52.78921,170.056357 C52.78921,166.818439 49.86969,165.1256 46.98496,165.1256 C43.78925,165.1256 42.34937,167.582809 42.06679,169.882314 C41.98798,170.52663 41.97591,171.186574 41.96384,171.823786 C41.91698,174.444383 41.70753,174.886951 40.47142,174.97859 C40.46503,174.97859 40.45793,174.9793 40.45225,174.9793 C39.86011,174.9793 39.27507,173.059139 38.95912,172.021272 C38.49762,170.504608 38.13339,169.308326 37.11809,168.787616 C35.81879,168.121989 34.72397,168.288928 34.03456,168.548217 C32.42925,169.14991 31.11291,170.853405 29.891,173.909466 C29.64889,174.516132 29.18597,174.79318 28.71382,174.620558 C28.03293,174.370504 27.32861,173.069085 28.18274,170.506029 C28.59099,169.282041 28.39574,168.024666 27.6332,166.966198 C26.28775,165.098605 23.54999,164.247568 21.57477,164.247568 C16.94202,164.247568 16.77872,167.185706 16.70843,168.439529 C16.69849,168.617835 16.69352,168.786906 16.66725,168.933955 C16.56643,169.510784 16.32361,169.790675 16.14682,169.853188 C15.93169,169.93133 15.691,169.747341 15.59728,169.665647 C14.89793,169.060402 14.2994,167.265269 14.91355,164.198552 C15.15921,162.971723 14.96538,161.962982 14.33703,161.195059 C13.24789,159.865225 11.30107,159.865225 10.01242,159.865225 C7.5828,159.865225 7.07941,158.241293 6.43615,154.255343 C6.01228,151.630484 5.5309,148.673876 3.34197,147.128086 C3.92488,144.849893 5.11768,143.48454 7.43299,143.435524 Z M68.15219,162.604456 C68.15219,171.573732 53.2429,179.15137 35.59443,179.15137 C17.84372,179.15137 2.8471,171.573732 2.8471,162.604456 L2.8471,152.522723 C2.8471,152.078024 2.85491,151.649664 2.86698,151.229118 C3.21772,152.217969 3.42149,153.439825 3.62668,154.709277 C4.17125,158.087851 4.91746,162.714565 10.01384,162.714565 C11.26628,162.714565 11.98054,162.811887 12.13603,163.001559 C12.15449,163.023581 12.20987,163.206859 12.12254,163.639482 C11.38627,167.314285 11.97415,170.295756 13.73495,171.820945 C14.71759,172.671271 15.97713,172.940506 17.1039,172.537719 C18.34143,172.095862 19.20479,170.961383 19.47317,169.424118 C19.52216,169.144938 19.53778,168.867179 19.55269,168.598654 C19.61304,167.506088 19.63576,167.096908 21.57548,167.096908 C23.0324,167.096908 24.71368,167.785978 25.32357,168.632042 C25.55503,168.952424 25.6026,169.243681 25.4819,169.605265 C24.07397,173.831324 25.59905,176.513724 27.73473,177.295854 C29.65812,178.001263 31.7228,177.000336 32.53504,174.968645 C33.72997,171.98007 34.68066,171.349251 35.03424,171.21641 C35.17766,171.163131 35.36581,171.128323 35.67537,171.256902 C35.84222,171.558814 36.07581,172.326736 36.23627,172.852418 C36.84332,174.84859 37.75141,177.830771 40.40823,177.830771 C40.49769,177.830771 40.58928,177.82722 40.68371,177.820116 C44.7087,177.521756 44.77331,173.987608 44.81165,171.877065 C44.8223,171.285317 44.83224,170.727668 44.8933,170.22969 C45.01897,169.201058 45.48473,167.97494 46.98425,167.97494 C47.10495,167.97494 49.94069,167.998382 49.94069,170.057068 C49.94069,171.541054 50.71317,172.783511 52.05862,173.466188 C53.65967,174.276023 55.70518,174.10269 57.15216,173.038538 C58.61263,171.965152 59.25021,170.15439 58.90302,168.06942 C58.28603,164.366202 58.73759,162.862324 59.06206,162.584565 C59.1359,162.521341 59.3844,162.544784 59.67763,162.642106 C60.19238,162.813308 60.47354,163.346805 60.84487,164.140301 C61.22046,164.943032 61.68764,165.942538 62.83358,166.143576 C63.94047,166.339642 64.84714,165.595162 65.51525,164.926693 C66.98566,163.455493 66.94448,160.892437 66.90117,158.17949 C66.84508,154.636818 67.0311,152.693214 68.1458,151.879828 C68.14864,152.093653 68.15219,152.304636 68.15219,152.522723 L68.15219,162.604456 L68.15219,162.604456 Z" id="Shape-Copy-3"></path>
            </g>
        </g>
    </g>
</svg>