<?xml version="1.0" encoding="utf-8"?>
<!-- Generator: Adobe Illustrator 23.1.1, SVG Export Plug-In . SVG Version: 6.00 Build 0)  -->
<svg version="1.1" id="Layer_1" xmlns="http://www.w3.org/2000/svg" xmlns:xlink="http://www.w3.org/1999/xlink" x="0px" y="0px"
	 viewBox="0 0 100 77.4" style="enable-background:new 0 0 100 77.4;" xml:space="preserve">
<style type="text/css">
	.st0{fill:#642CC2;}
	.st1{fill:none;stroke:#000000;stroke-width:3;stroke-linecap:round;stroke-linejoin:round;stroke-miterlimit:10;}
</style>
<path class="st0" d="M89.4,19.1L89.4,19.1c-1.1-3.8-4.7-8.1-10.9-8.6c-1.5-3-5.3-6.2-13.3-6.2C58.3-1.4,42.4,0,37.5,0.6
	c-5.9,0.7-14.7,4.5-17.2,9.9h-0.1c-7.4,1.2-9.1,5.7-9.5,8.6C0,19.1,0,30.9,0,35.9v14.2c0,15.1,22.5,27.3,50.1,27.3
	c28,0,49.9-12,49.9-27.3V35.9C100,30.9,100,19.1,89.4,19.1z M23.7,12.9c0.9-3.6,8.6-7.5,14.3-8.3C41,4.2,44.2,4,47.2,4
	C54.1,4,60.4,5.1,63,7.8c1.1,1.2,1.5,2.5,1.2,4.3c-1,5.7-12.3,5.7-17.8,5.7c-3.1,0-4.8-1.3-4.8-2.3s1.9-2.3,6-2.3c1.1,0,2-0.9,2-2
	s-0.9-2-2-2c-3,0-5.4,0.6-7.1,1.6c-1.8,1.1-2.9,2.8-2.9,4.7c0,3.1,3.1,6.3,8.8,6.3c6.6,0,20.2,0,21.7-9.1c0.3-1.5,0.2-3-0.2-4.3
	c5.9,0.8,7.3,3.9,7.3,5.2c0,0.5,0,1.3,0,2.1c0,1.8,0.1,4.1,0,5.1c-0.4,5.3-11.7,9.3-26.4,9.3c-11.9,0-25.1-4.4-25.1-10.7v-0.2
	C23.6,16.9,23.5,13.7,23.7,12.9z M19.6,14.7c0,2,0.1,4.1,0.2,4.8c0.1,8.2,12.9,14.6,29.1,14.6c14.6,0,29.7-4,30.4-13
	c0.1-1.2,0.1-3.5,0-5.5c0-0.4,0-0.8,0-1.1c4.9,1,6.2,5.3,6.2,6.4v10.2c0,8.8-16.3,16.2-35.7,16.2c-19.2,0-35.4-7.4-35.4-16.2V21
	C14.6,18.7,15.1,15.9,19.6,14.7z M10.5,23.1v8.2c0,11.3,17.3,20.2,39.4,20.2c22.2,0,39.7-8.9,39.7-20.2v-8.2c4,0.1,5.6,3,6.2,7.6
	C90,32.4,90.1,39,90.2,44c0,2.6,0.1,5.7-0.8,6.6l-0.1,0.1c0,0,0,0,0-0.1c-0.6-1.4-1.6-3.4-4-4.2c-2.3-0.8-3.9-0.1-4.7,0.7
	c-2,1.8-2.6,5.5-1.6,11.4c0.2,1.5-0.1,2.5-0.9,3.1s-2.1,0.7-3,0.3c-0.7-0.4-0.8-0.9-0.8-1.2c0-4.6-4.1-6.9-8.2-6.9
	c-4.5,0-6.5,3.5-6.9,6.7c-0.1,0.9-0.1,1.8-0.1,2.7c-0.1,3.7-0.4,4.3-2.1,4.4l0,0c-0.8,0-1.7-2.7-2.1-4.2c-0.7-2.1-1.2-3.8-2.6-4.6
	c-1.8-0.9-3.4-0.7-4.3-0.3c-2.3,0.8-4.1,3.2-5.8,7.5c-0.3,0.9-1,1.2-1.7,1c-1-0.4-2-2.2-0.7-5.8c0.6-1.7,0.3-3.5-0.8-5
	c-1.9-2.6-5.8-3.8-8.5-3.8c-6.5,0-6.8,4.1-6.9,5.9c0,0.3,0,0.5-0.1,0.7c-0.1,0.8-0.5,1.2-0.7,1.3c-0.3,0.1-0.6-0.1-0.8-0.3
	c-1-0.9-1.8-3.4-1-7.7c0.3-1.7,0.1-3.1-0.8-4.2c-1.5-1.9-4.3-1.9-6.1-1.9c-3.4,0-4.1-2.3-5-7.9c-0.6-3.7-1.3-7.9-4.4-10
	C5.5,25.1,7.2,23.2,10.5,23.1z M96,50.1c0,12.6-21,23.3-45.9,23.3C25.1,73.4,4,62.7,4,50.1V35.9c0-0.6,0-1.2,0-1.8
	c0.5,1.4,0.8,3.1,1.1,4.9c0.8,4.8,1.8,11.3,9,11.3c1.8,0,2.8,0.1,3,0.4c0,0,0.1,0.3,0,0.9c-1,5.2-0.2,9.4,2.3,11.5
	c1.4,1.2,3.2,1.6,4.7,1c1.7-0.6,3-2.2,3.3-4.4c0.1-0.4,0.1-0.8,0.1-1.2c0.1-1.5,0.1-2.1,2.8-2.1c2.1,0,4.4,1,5.3,2.2
	c0.3,0.5,0.4,0.9,0.2,1.4c-2,5.9,0.2,9.7,3.2,10.8c2.7,1,5.6-0.4,6.8-3.3c1.7-4.2,3-5.1,3.5-5.3c0.2-0.1,0.5-0.1,0.9,0.1
	c0.2,0.4,0.6,1.5,0.8,2.2c0.9,2.8,2.1,7,5.9,7c0.1,0,0.3,0,0.4,0c5.7-0.4,5.8-5.4,5.8-8.4c0-0.8,0-1.6,0.1-2.3
	c0.2-1.4,0.8-3.2,2.9-3.2c0.2,0,4.2,0,4.2,2.9c0,2.1,1.1,3.8,3,4.8c2.3,1.1,5.1,0.9,7.2-0.6s3-4.1,2.5-7c-0.9-5.2-0.2-7.3,0.2-7.7
	c0.1-0.1,0.5-0.1,0.9,0.1c0.7,0.2,1.1,1,1.6,2.1s1.2,2.5,2.8,2.8c1.6,0.3,2.8-0.8,3.8-1.7c2.1-2.1,2-5.7,2-9.5
	c-0.1-5,0.2-7.7,1.8-8.9c0,0.3,0,0.6,0,0.9C96,35.9,96,50.1,96,50.1z"/>
<path class="st1" d="M30.4,6.4"/>
</svg>
