<?xml version="1.0" encoding="UTF-8"?>
<svg width="209px" height="162px" viewBox="0 0 209 162" version="1.1" xmlns="http://www.w3.org/2000/svg" xmlns:xlink="http://www.w3.org/1999/xlink">
    <!-- Generator: Sketch 58 (84663) - https://sketch.com -->
    <title>Group Copy</title>
    <desc>Created with Sketch.</desc>
    <g id="Page-1" stroke="none" stroke-width="1" fill="none" fill-rule="evenodd">
        <g id="Menu" transform="translate(-351.000000, -552.000000)" fill="#000000" fill-rule="nonzero">
            <g id="Group-Copy" transform="translate(351.000000, 552.000000)">
                <path d="M136.5679,18.7638197 C136.52184,18.7638197 136.47872,18.7746175 136.43364,18.7775624 C135.43894,15.0748994 131.97366,10.8303833 125.89864,10.3425192 C124.44236,7.4084631 120.73894,4.27808341 112.83034,4.22900251 C106.12322,-1.41431917 90.55396,0.0119717322 85.79214,0.608795455 C79.96898,1.3381376 71.40084,5.04080057 68.92144,10.3022729 C68.8744,10.3071809 68.82834,10.3042361 68.78228,10.312089 C61.5587,11.5175159 59.8633,15.8611754 59.4272,18.7638197 C49,18.7657829 49,30.3292426 49,35.2677626 L49,49.1979031 C49,63.9771432 71.03922,76 98.13034,76 C125.53408,76 147,64.2274557 147,49.1988847 L147,35.2677626 C147,30.3292426 147,18.7638197 136.5679,18.7638197 Z M72.22796,12.6179096 C73.12466,9.08997467 80.70496,5.21356533 86.28116,4.51465334 C89.19568,4.14949145 92.27092,3.9443333 95.24326,3.9443333 C101.9935,3.9443333 108.2067,5.00546232 110.7596,7.66761024 C111.8425,8.79843413 112.21,10.1530669 111.916,11.9288138 C110.9801,17.5515215 99.8522,17.5515215 94.50434,17.5515215 C91.44674,17.5515215 89.81798,16.232227 89.81798,15.2800576 C89.81798,14.3377043 91.64764,13.0095752 95.71366,13.0095752 C96.79852,13.0095752 97.67856,12.1280823 97.67856,11.0414312 C97.67856,9.9547801 96.79852,9.07328716 95.71366,9.07328716 C92.80208,9.07328716 90.44616,9.61808514 88.7096,10.6919752 C86.9162,11.8012035 85.88818,13.4738805 85.88818,15.2810392 C85.88818,18.2906799 88.90854,21.4887912 94.50532,21.4887912 C100.93412,21.4887912 114.31014,21.4887912 115.79288,12.5757001 C116.04474,11.0669533 115.97418,9.64557044 115.591,8.34787149 C121.40044,9.12727615 122.77342,12.1830529 122.77342,13.4640643 C122.77342,13.9951196 122.7842,14.7313331 122.79498,15.5421496 C122.81948,17.259981 122.85378,19.6119376 122.77832,20.5807946 C122.3824,25.7598109 111.2692,29.6656688 96.92788,29.6656688 C85.2747,29.6656688 72.29068,25.3426233 72.29068,19.1387978 L72.2848,18.9797757 C72.08782,16.5826646 72.01138,13.4679908 72.22796,12.6179096 Z M68.1688,14.4672779 C68.15018,16.4010653 68.30306,18.5262682 68.35794,19.2251802 C68.44516,27.2950614 80.96172,33.6029385 96.92494,33.6029385 C111.25842,33.6029385 126.0231,29.6695953 126.6944,20.8841145 C126.78358,19.7366031 126.75124,17.4779002 126.72184,15.4852157 C126.71596,15.1063112 126.71106,14.7450758 126.70714,14.4142705 C131.49934,15.358587 132.7655,19.6354965 132.80764,20.7319637 L132.80764,30.7454486 C132.80764,39.3532565 116.80718,46.6250824 97.8677,46.6250824 C79.06934,46.6250824 63.18844,39.3532565 63.18844,30.7454486 L63.18746,20.8055851 C63.28056,18.3162019 63.78232,15.6138077 68.1688,14.4672779 Z M59.25962,22.7109055 L59.25962,30.7454486 C59.25962,41.857364 76.2195,50.5623521 97.86868,50.5623521 C119.66486,50.5623521 136.7394,41.8583456 136.7394,30.7454486 L136.73842,22.7109055 C140.6643,22.7933615 142.2617,25.6125683 142.81442,30.1564778 C137.23332,31.7692761 137.33622,38.2980172 137.41266,43.14721 C137.45186,45.652299 137.50282,48.7708993 136.65022,49.6239253 C136.6218,49.6514106 136.59436,49.6798775 136.5679,49.7053996 C136.55908,49.6867488 136.55026,49.6690797 136.5434,49.6514106 C135.92012,48.319355 134.97932,46.3040933 132.61458,45.5148725 C130.31354,44.7472472 128.81904,45.4520489 127.96938,46.1774646 C125.96136,47.8952961 125.45666,51.5655656 126.42686,57.397358 C126.66402,58.820704 126.37198,59.8464948 125.56054,60.4433185 C124.76478,61.0293444 123.50744,61.138304 122.6323,60.6936311 C121.94336,60.3451567 121.86398,59.8435499 121.86398,59.4960572 C121.86398,55.0218425 117.83422,52.6826469 113.85248,52.6826469 C109.4415,52.6826469 107.45406,56.0780634 107.06402,59.2555608 C106.95524,60.1458883 106.93858,61.0578113 106.92192,61.9383227 C106.85724,65.5595113 106.56814,66.1710593 104.86196,66.297688 C104.85314,66.297688 104.84334,66.2986697 104.8355,66.2986697 C104.01818,66.2986697 103.21066,63.6453563 102.77456,62.2112124 C102.13756,60.1154581 101.63482,58.4624134 100.23342,57.7428875 C98.44002,56.8231114 96.92886,57.0537917 95.97728,57.4120822 C93.7615,58.2435126 91.94458,60.5974325 90.258,64.820353 C89.92382,65.6586547 89.28486,66.0414857 88.63316,65.8029526 C87.69334,65.4574231 86.72118,63.6590989 87.90012,60.1174213 C88.46362,58.4260936 88.19412,56.6886298 87.1416,55.226019 C85.2845,52.6453454 81.50562,51.4693671 78.77926,51.4693671 C72.38476,51.4693671 72.15936,55.529339 72.06234,57.2618947 C72.04862,57.5082808 72.04176,57.7419059 72.0055,57.9451008 C71.86634,58.7421746 71.53118,59.128932 71.28716,59.2153144 C70.99022,59.3232924 70.658,59.0690533 70.52864,58.9561673 C69.56334,58.1198288 68.7372,55.6392802 69.5849,51.4016354 C69.92398,49.7063812 69.65644,48.3124837 68.78914,47.2513547 C67.28582,45.4137658 64.59866,45.4137658 62.81996,45.4137658 C59.4664,45.4137658 58.77158,43.1697872 57.8837,37.6619288 C57.29864,34.0348504 56.6342,29.9493564 53.61286,27.8133557 C54.41744,24.6653069 56.06384,22.7786372 59.25962,22.7109055 Z M143.06922,49.1988847 C143.06922,61.5927931 122.4902,72.063712 98.13034,72.063712 C73.62936,72.063712 52.9298,61.5927931 52.9298,49.1988847 L52.9298,35.2677626 C52.9298,34.6532697 52.94058,34.0613541 52.95724,33.4802362 C53.44136,34.8466484 53.72262,36.5350313 54.00584,38.2891826 C54.7575,42.9577577 55.78748,49.3510355 62.82192,49.3510355 C64.55064,49.3510355 65.53652,49.4855172 65.75114,49.7476092 C65.77662,49.7780393 65.85306,50.0312967 65.73252,50.6291021 C64.71626,55.7070118 65.5277,59.8268624 67.9581,61.9343962 C69.31442,63.1093929 71.05294,63.4814261 72.6082,62.9248487 C74.31634,62.3142823 75.50802,60.7466384 75.87846,58.6224172 C75.94608,58.2366413 75.96764,57.8528287 75.98822,57.4817771 C76.07152,55.9720487 76.10288,55.4066367 78.78024,55.4066367 C80.7912,55.4066367 83.11184,56.3588061 83.95366,57.5279131 C84.27314,57.9706228 84.3388,58.3730862 84.1722,58.8727298 C82.22886,64.712375 84.3339,68.4189645 87.28174,69.4997258 C89.93656,70.4744725 92.7864,69.0913728 93.90752,66.2839454 C95.55686,62.1542786 96.86908,61.2826019 97.35712,61.0990393 C97.55508,61.0254179 97.81478,60.9773187 98.24206,61.1549915 C98.47236,61.5721792 98.79478,62.6333082 99.01626,63.3597055 C99.85416,66.1180519 101.10758,70.2388842 104.77474,70.2388842 C104.89822,70.2388842 105.02464,70.2339761 105.15498,70.2241599 C110.7106,69.8118804 110.79978,64.928331 110.8527,62.011944 C110.8674,61.1942562 110.88112,60.4236861 110.9654,59.7355719 C111.13886,58.3141891 111.78174,56.6199165 113.8515,56.6199165 C114.0181,56.6199165 117.93222,56.6523099 117.93222,59.4970388 C117.93222,61.5476387 118.99846,63.2644885 120.85556,64.2078234 C123.06546,65.3268679 125.88884,65.0873531 127.88608,63.6168894 C129.90194,62.1336646 130.78198,59.6315204 130.30276,56.7504717 C129.45114,51.6332973 130.07442,49.555212 130.52228,49.1713994 C130.6242,49.0840354 130.9672,49.1164288 131.37194,49.2509105 C132.08244,49.4874804 132.47052,50.2246755 132.98306,51.3211427 C133.50148,52.430371 134.14632,53.8115075 135.72804,54.0893054 C137.25586,54.360232 138.50732,53.3314963 139.4295,52.4077938 C141.45908,50.374863 141.40224,46.8331854 141.34246,43.0843864 C141.26504,38.1890576 141.5218,35.5033509 143.0604,34.3793983 C143.06432,34.6748653 143.06922,34.9664058 143.06922,35.2677626 L143.06922,49.1988847 L143.06922,49.1988847 Z" id="Shape"></path>
                <path d="M87.5679,104.76382 C87.52184,104.76382 87.47872,104.774618 87.43364,104.777562 C86.43894,101.074899 82.97366,96.8303833 76.89864,96.3425192 C75.44236,93.4084631 71.73894,90.2780834 63.83034,90.2290025 C57.12322,84.5856808 41.55396,86.0119717 36.79214,86.6087955 C30.96898,87.3381376 22.40084,91.0408006 19.92144,96.3022729 C19.8744,96.3071809 19.82834,96.3042361 19.78228,96.312089 C12.5587,97.5175159 10.8633,101.861175 10.4272,104.76382 C0,104.765783 0,116.329243 0,121.267763 L0,135.197903 C0,149.977143 22.03922,162 49.13034,162 C76.53408,162 98,150.227456 98,135.198885 L98,121.267763 C98,116.329243 98,104.76382 87.5679,104.76382 Z M23.22796,98.6179096 C24.12466,95.0899747 31.70496,91.2135653 37.28116,90.5146533 C40.19568,90.1494915 43.27092,89.9443333 46.24326,89.9443333 C52.9935,89.9443333 59.2067,91.0054623 61.7596,93.6676102 C62.8425,94.7984341 63.21,96.1530669 62.916,97.9288138 C61.9801,103.551522 50.8522,103.551522 45.50434,103.551522 C42.44674,103.551522 40.81798,102.232227 40.81798,101.280058 C40.81798,100.337704 42.64764,99.0095752 46.71366,99.0095752 C47.79852,99.0095752 48.67856,98.1280823 48.67856,97.0414312 C48.67856,95.9547801 47.79852,95.0732872 46.71366,95.0732872 C43.80208,95.0732872 41.44616,95.6180851 39.7096,96.6919752 C37.9162,97.8012035 36.88818,99.4738805 36.88818,101.281039 C36.88818,104.29068 39.90854,107.488791 45.50532,107.488791 C51.93412,107.488791 65.31014,107.488791 66.79288,98.5757001 C67.04474,97.0669533 66.97418,95.6455704 66.591,94.3478715 C72.40044,95.1272762 73.77342,98.1830529 73.77342,99.4640643 C73.77342,99.9951196 73.7842,100.731333 73.79498,101.54215 C73.81948,103.259981 73.85378,105.611938 73.77832,106.580795 C73.3824,111.759811 62.2692,115.665669 47.92788,115.665669 C36.2747,115.665669 23.29068,111.342623 23.29068,105.138798 L23.2848,104.979776 C23.08782,102.582665 23.01138,99.4679908 23.22796,98.6179096 Z M19.1688,100.467278 C19.15018,102.401065 19.30306,104.526268 19.35794,105.22518 C19.44516,113.295061 31.96172,119.602938 47.92494,119.602938 C62.25842,119.602938 77.0231,115.669595 77.6944,106.884115 C77.78358,105.736603 77.75124,103.4779 77.72184,101.485216 C77.71596,101.106311 77.71106,100.745076 77.70714,100.414271 C82.49934,101.358587 83.7655,105.635496 83.80764,106.731964 L83.80764,116.745449 C83.80764,125.353257 67.80718,132.625082 48.8677,132.625082 C30.06934,132.625082 14.18844,125.353257 14.18844,116.745449 L14.18746,106.805585 C14.28056,104.316202 14.78232,101.613808 19.1688,100.467278 Z M10.25962,108.710906 L10.25962,116.745449 C10.25962,127.857364 27.2195,136.562352 48.86868,136.562352 C70.66486,136.562352 87.7394,127.858346 87.7394,116.745449 L87.73842,108.710906 C91.6643,108.793361 93.2617,111.612568 93.81442,116.156478 C88.23332,117.769276 88.33622,124.298017 88.41266,129.14721 C88.45186,131.652299 88.50282,134.770899 87.65022,135.623925 C87.6218,135.651411 87.59436,135.679878 87.5679,135.7054 C87.55908,135.686749 87.55026,135.66908 87.5434,135.651411 C86.92012,134.319355 85.97932,132.304093 83.61458,131.514872 C81.31354,130.747247 79.81904,131.452049 78.96938,132.177465 C76.96136,133.895296 76.45666,137.565566 77.42686,143.397358 C77.66402,144.820704 77.37198,145.846495 76.56054,146.443318 C75.76478,147.029344 74.50744,147.138304 73.6323,146.693631 C72.94336,146.345157 72.86398,145.84355 72.86398,145.496057 C72.86398,141.021842 68.83422,138.682647 64.85248,138.682647 C60.4415,138.682647 58.45406,142.078063 58.06402,145.255561 C57.95524,146.145888 57.93858,147.057811 57.92192,147.938323 C57.85724,151.559511 57.56814,152.171059 55.86196,152.297688 C55.85314,152.297688 55.84334,152.29867 55.8355,152.29867 C55.01818,152.29867 54.21066,149.645356 53.77456,148.211212 C53.13756,146.115458 52.63482,144.462413 51.23342,143.742887 C49.44002,142.823111 47.92886,143.053792 46.97728,143.412082 C44.7615,144.243513 42.94458,146.597433 41.258,150.820353 C40.92382,151.658655 40.28486,152.041486 39.63316,151.802953 C38.69334,151.457423 37.72118,149.659099 38.90012,146.117421 C39.46362,144.426094 39.19412,142.68863 38.1416,141.226019 C36.2845,138.645345 32.50562,137.469367 29.77926,137.469367 C23.38476,137.469367 23.15936,141.529339 23.06234,143.261895 C23.04862,143.508281 23.04176,143.741906 23.0055,143.945101 C22.86634,144.742175 22.53118,145.128932 22.28716,145.215314 C21.99022,145.323292 21.658,145.069053 21.52864,144.956167 C20.56334,144.119829 19.7372,141.63928 20.5849,137.401635 C20.92398,135.706381 20.65644,134.312484 19.78914,133.251355 C18.28582,131.413766 15.59866,131.413766 13.81996,131.413766 C10.4664,131.413766 9.77158,129.169787 8.8837,123.661929 C8.29864,120.03485 7.6342,115.949356 4.61286,113.813356 C5.41744,110.665307 7.06384,108.778637 10.25962,108.710906 Z M94.06922,135.198885 C94.06922,147.592793 73.4902,158.063712 49.13034,158.063712 C24.62936,158.063712 3.9298,147.592793 3.9298,135.198885 L3.9298,121.267763 C3.9298,120.65327 3.94058,120.061354 3.95724,119.480236 C4.44136,120.846648 4.72262,122.535031 5.00584,124.289183 C5.7575,128.957758 6.78748,135.351035 13.82192,135.351035 C15.55064,135.351035 16.53652,135.485517 16.75114,135.747609 C16.77662,135.778039 16.85306,136.031297 16.73252,136.629102 C15.71626,141.707012 16.5277,145.826862 18.9581,147.934396 C20.31442,149.109393 22.05294,149.481426 23.6082,148.924849 C25.31634,148.314282 26.50802,146.746638 26.87846,144.622417 C26.94608,144.236641 26.96764,143.852829 26.98822,143.481777 C27.07152,141.972049 27.10288,141.406637 29.78024,141.406637 C31.7912,141.406637 34.11184,142.358806 34.95366,143.527913 C35.27314,143.970623 35.3388,144.373086 35.1722,144.87273 C33.22886,150.712375 35.3339,154.418964 38.28174,155.499726 C40.93656,156.474472 43.7864,155.091373 44.90752,152.283945 C46.55686,148.154279 47.86908,147.282602 48.35712,147.099039 C48.55508,147.025418 48.81478,146.977319 49.24206,147.154992 C49.47236,147.572179 49.79478,148.633308 50.01626,149.359705 C50.85416,152.118052 52.10758,156.238884 55.77474,156.238884 C55.89822,156.238884 56.02464,156.233976 56.15498,156.22416 C61.7106,155.81188 61.79978,150.928331 61.8527,148.011944 C61.8674,147.194256 61.88112,146.423686 61.9654,145.735572 C62.13886,144.314189 62.78174,142.619917 64.8515,142.619917 C65.0181,142.619917 68.93222,142.65231 68.93222,145.497039 C68.93222,147.547639 69.99846,149.264489 71.85556,150.207823 C74.06546,151.326868 76.88884,151.087353 78.88608,149.616889 C80.90194,148.133665 81.78198,145.63152 81.30276,142.750472 C80.45114,137.633297 81.07442,135.555212 81.52228,135.171399 C81.6242,135.084035 81.9672,135.116429 82.37194,135.25091 C83.08244,135.48748 83.47052,136.224675 83.98306,137.321143 C84.50148,138.430371 85.14632,139.811508 86.72804,140.089305 C88.25586,140.360232 89.50732,139.331496 90.4295,138.407794 C92.45908,136.374863 92.40224,132.833185 92.34246,129.084386 C92.26504,124.189058 92.5218,121.503351 94.0604,120.379398 C94.06432,120.674865 94.06922,120.966406 94.06922,121.267763 L94.06922,135.198885 L94.06922,135.198885 Z" id="Shape"></path>
                <path d="M198.5679,104.76382 C198.52184,104.76382 198.47872,104.774618 198.43364,104.777562 C197.43894,101.074899 193.97366,96.8303833 187.89864,96.3425192 C186.44236,93.4084631 182.73894,90.2780834 174.83034,90.2290025 C168.12322,84.5856808 152.55396,86.0119717 147.79214,86.6087955 C141.96898,87.3381376 133.40084,91.0408006 130.92144,96.3022729 C130.8744,96.3071809 130.82834,96.3042361 130.78228,96.312089 C123.5587,97.5175159 121.8633,101.861175 121.4272,104.76382 C111,104.765783 111,116.329243 111,121.267763 L111,135.197903 C111,149.977143 133.03922,162 160.13034,162 C187.53408,162 209,150.227456 209,135.198885 L209,121.267763 C209,116.329243 209,104.76382 198.5679,104.76382 Z M134.22796,98.6179096 C135.12466,95.0899747 142.70496,91.2135653 148.28116,90.5146533 C151.19568,90.1494915 154.27092,89.9443333 157.24326,89.9443333 C163.9935,89.9443333 170.2067,91.0054623 172.7596,93.6676102 C173.8425,94.7984341 174.21,96.1530669 173.916,97.9288138 C172.9801,103.551522 161.8522,103.551522 156.50434,103.551522 C153.44674,103.551522 151.81798,102.232227 151.81798,101.280058 C151.81798,100.337704 153.64764,99.0095752 157.71366,99.0095752 C158.79852,99.0095752 159.67856,98.1280823 159.67856,97.0414312 C159.67856,95.9547801 158.79852,95.0732872 157.71366,95.0732872 C154.80208,95.0732872 152.44616,95.6180851 150.7096,96.6919752 C148.9162,97.8012035 147.88818,99.4738805 147.88818,101.281039 C147.88818,104.29068 150.90854,107.488791 156.50532,107.488791 C162.93412,107.488791 176.31014,107.488791 177.79288,98.5757001 C178.04474,97.0669533 177.97418,95.6455704 177.591,94.3478715 C183.40044,95.1272762 184.77342,98.1830529 184.77342,99.4640643 C184.77342,99.9951196 184.7842,100.731333 184.79498,101.54215 C184.81948,103.259981 184.85378,105.611938 184.77832,106.580795 C184.3824,111.759811 173.2692,115.665669 158.92788,115.665669 C147.2747,115.665669 134.29068,111.342623 134.29068,105.138798 L134.2848,104.979776 C134.08782,102.582665 134.01138,99.4679908 134.22796,98.6179096 Z M130.1688,100.467278 C130.15018,102.401065 130.30306,104.526268 130.35794,105.22518 C130.44516,113.295061 142.96172,119.602938 158.92494,119.602938 C173.25842,119.602938 188.0231,115.669595 188.6944,106.884115 C188.78358,105.736603 188.75124,103.4779 188.72184,101.485216 C188.71596,101.106311 188.71106,100.745076 188.70714,100.414271 C193.49934,101.358587 194.7655,105.635496 194.80764,106.731964 L194.80764,116.745449 C194.80764,125.353257 178.80718,132.625082 159.8677,132.625082 C141.06934,132.625082 125.18844,125.353257 125.18844,116.745449 L125.18746,106.805585 C125.28056,104.316202 125.78232,101.613808 130.1688,100.467278 Z M121.25962,108.710906 L121.25962,116.745449 C121.25962,127.857364 138.2195,136.562352 159.86868,136.562352 C181.66486,136.562352 198.7394,127.858346 198.7394,116.745449 L198.73842,108.710906 C202.6643,108.793361 204.2617,111.612568 204.81442,116.156478 C199.23332,117.769276 199.33622,124.298017 199.41266,129.14721 C199.45186,131.652299 199.50282,134.770899 198.65022,135.623925 C198.6218,135.651411 198.59436,135.679878 198.5679,135.7054 C198.55908,135.686749 198.55026,135.66908 198.5434,135.651411 C197.92012,134.319355 196.97932,132.304093 194.61458,131.514872 C192.31354,130.747247 190.81904,131.452049 189.96938,132.177465 C187.96136,133.895296 187.45666,137.565566 188.42686,143.397358 C188.66402,144.820704 188.37198,145.846495 187.56054,146.443318 C186.76478,147.029344 185.50744,147.138304 184.6323,146.693631 C183.94336,146.345157 183.86398,145.84355 183.86398,145.496057 C183.86398,141.021842 179.83422,138.682647 175.85248,138.682647 C171.4415,138.682647 169.45406,142.078063 169.06402,145.255561 C168.95524,146.145888 168.93858,147.057811 168.92192,147.938323 C168.85724,151.559511 168.56814,152.171059 166.86196,152.297688 C166.85314,152.297688 166.84334,152.29867 166.8355,152.29867 C166.01818,152.29867 165.21066,149.645356 164.77456,148.211212 C164.13756,146.115458 163.63482,144.462413 162.23342,143.742887 C160.44002,142.823111 158.92886,143.053792 157.97728,143.412082 C155.7615,144.243513 153.94458,146.597433 152.258,150.820353 C151.92382,151.658655 151.28486,152.041486 150.63316,151.802953 C149.69334,151.457423 148.72118,149.659099 149.90012,146.117421 C150.46362,144.426094 150.19412,142.68863 149.1416,141.226019 C147.2845,138.645345 143.50562,137.469367 140.77926,137.469367 C134.38476,137.469367 134.15936,141.529339 134.06234,143.261895 C134.04862,143.508281 134.04176,143.741906 134.0055,143.945101 C133.86634,144.742175 133.53118,145.128932 133.28716,145.215314 C132.99022,145.323292 132.658,145.069053 132.52864,144.956167 C131.56334,144.119829 130.7372,141.63928 131.5849,137.401635 C131.92398,135.706381 131.65644,134.312484 130.78914,133.251355 C129.28582,131.413766 126.59866,131.413766 124.81996,131.413766 C121.4664,131.413766 120.77158,129.169787 119.8837,123.661929 C119.29864,120.03485 118.6342,115.949356 115.61286,113.813356 C116.41744,110.665307 118.06384,108.778637 121.25962,108.710906 Z M205.06922,135.198885 C205.06922,147.592793 184.4902,158.063712 160.13034,158.063712 C135.62936,158.063712 114.9298,147.592793 114.9298,135.198885 L114.9298,121.267763 C114.9298,120.65327 114.94058,120.061354 114.95724,119.480236 C115.44136,120.846648 115.72262,122.535031 116.00584,124.289183 C116.7575,128.957758 117.78748,135.351035 124.82192,135.351035 C126.55064,135.351035 127.53652,135.485517 127.75114,135.747609 C127.77662,135.778039 127.85306,136.031297 127.73252,136.629102 C126.71626,141.707012 127.5277,145.826862 129.9581,147.934396 C131.31442,149.109393 133.05294,149.481426 134.6082,148.924849 C136.31634,148.314282 137.50802,146.746638 137.87846,144.622417 C137.94608,144.236641 137.96764,143.852829 137.98822,143.481777 C138.07152,141.972049 138.10288,141.406637 140.78024,141.406637 C142.7912,141.406637 145.11184,142.358806 145.95366,143.527913 C146.27314,143.970623 146.3388,144.373086 146.1722,144.87273 C144.22886,150.712375 146.3339,154.418964 149.28174,155.499726 C151.93656,156.474472 154.7864,155.091373 155.90752,152.283945 C157.55686,148.154279 158.86908,147.282602 159.35712,147.099039 C159.55508,147.025418 159.81478,146.977319 160.24206,147.154992 C160.47236,147.572179 160.79478,148.633308 161.01626,149.359705 C161.85416,152.118052 163.10758,156.238884 166.77474,156.238884 C166.89822,156.238884 167.02464,156.233976 167.15498,156.22416 C172.7106,155.81188 172.79978,150.928331 172.8527,148.011944 C172.8674,147.194256 172.88112,146.423686 172.9654,145.735572 C173.13886,144.314189 173.78174,142.619917 175.8515,142.619917 C176.0181,142.619917 179.93222,142.65231 179.93222,145.497039 C179.93222,147.547639 180.99846,149.264489 182.85556,150.207823 C185.06546,151.326868 187.88884,151.087353 189.88608,149.616889 C191.90194,148.133665 192.78198,145.63152 192.30276,142.750472 C191.45114,137.633297 192.07442,135.555212 192.52228,135.171399 C192.6242,135.084035 192.9672,135.116429 193.37194,135.25091 C194.08244,135.48748 194.47052,136.224675 194.98306,137.321143 C195.50148,138.430371 196.14632,139.811508 197.72804,140.089305 C199.25586,140.360232 200.50732,139.331496 201.4295,138.407794 C203.45908,136.374863 203.40224,132.833185 203.34246,129.084386 C203.26504,124.189058 203.5218,121.503351 205.0604,120.379398 C205.06432,120.674865 205.06922,120.966406 205.06922,121.267763 L205.06922,135.198885 L205.06922,135.198885 Z" id="Shape"></path>
            </g>
        </g>
    </g>
</svg>