<svg xmlns="http://www.w3.org/2000/svg" xmlns:xlink="http://www.w3.org/1999/xlink" version="1.1" x="0px" y="0px" viewBox="0 0 512 640" enable-background="new 0 0 512 512" xml:space="preserve"><g><circle cx="200.6" cy="192.1" r="12.8"/><circle cx="311.4" cy="192.1" r="12.8"/><ellipse cx="256" cy="217.6" rx="17" ry="12.8"/><path d="M256,239c-18.8,0-34.1,15.3-34.1,34.1h17c0-9.4,7.6-17,17-17s17,7.6,17,17h17C290.1,254.2,274.8,239,256,239z"/><path d="M443.5,247.5v-17h-42.6v-17H435v-17h-35.2C391.3,124.5,330.1,68.5,256,68.5s-135.3,56-143.8,127.8H77v17h34.1v17H68.5v17   h42.6v17H77v17h34.1v161.9h289.8V281.6H435v-17h-34.1v-17H443.5z M383.8,264.5h-25.6v17h25.6v144.9H128.2V281.6h25.6v-17h-25.6v-17   h25.6v-17h-25.6v-17h25.6v-17h-24.3c8.4-62.4,61.9-110.8,126.6-110.8s118.2,48.4,126.6,110.8h-24.3v17h25.6v17h-25.6v17h25.6V264.5   z"/></g><text x="0" y="527" fill="#000000" font-size="5px" font-weight="bold" font-family="'Helvetica Neue', Helvetica, Arial-Unicode, Arial, Sans-serif">Created by Creative Stall</text><text x="0" y="532" fill="#000000" font-size="5px" font-weight="bold" font-family="'Helvetica Neue', Helvetica, Arial-Unicode, Arial, Sans-serif">from the Noun Project</text></svg>