<svg xmlns="http://www.w3.org/2000/svg" xmlns:xlink="http://www.w3.org/1999/xlink" version="1.1" x="0px" y="0px" viewBox="0 0 512 640" enable-background="new 0 0 512 512" xml:space="preserve"><g><path d="M440.6,218.2c-15-15-30.6-25.1-46.6-30.4c2-23-6.9-50.1-24.1-71.3c-17.7-21.9-51.8-48-113.5-48   c-106.9,0-184,178.7-187.3,186.4l-0.7,1.6v187.1H356l2.3-5c12.7-28.3,9-56.4,6-79c-2.3-17.5-4.3-32.7,1.9-42.1   c14.2-21.8,17.5-48.6,18.2-60.1l53.4-23.4c2.9-1.3,5-3.9,5.6-7.1C443.9,223.7,442.9,220.4,440.6,218.2z M351.8,308.1   c-9.6,14.7-7.1,33.6-4.5,53.6c2.6,20,5.6,42.5-2.6,64.7H85.5V260c7.7-17.4,80-174.4,170.9-174.4c55,0,84.9,22.7,100.3,41.7   c16.4,20.2,21.2,41.7,20.5,56.9c-4.5-0.5-8.9-0.8-13.5-0.6c-41.9,2-69.9,35.1-71.1,36.5l-2.7,3.2l0.9,4.1   c3.5,15.6,11.5,26.9,23.8,33.3c8.6,4.5,18.2,6,27.3,6c9.2,0,17.9-1.6,24.6-3.2C365.2,275.1,361.5,293.2,351.8,308.1z M372.9,243.7   c-0.3,0.1-30.8,12.1-50.3,1.8c-6.7-3.5-11.3-9.4-14-17.7c7.4-7.5,28.5-26.1,56-27.3c18.9-0.8,37.7,6.7,56,22.3L372.9,243.7z"/><ellipse cx="252.2" cy="192.1" rx="21.4" ry="21.3"/></g><text x="0" y="527" fill="#000000" font-size="5px" font-weight="bold" font-family="'Helvetica Neue', Helvetica, Arial-Unicode, Arial, Sans-serif">Created by Creative Stall</text><text x="0" y="532" fill="#000000" font-size="5px" font-weight="bold" font-family="'Helvetica Neue', Helvetica, Arial-Unicode, Arial, Sans-serif">from the Noun Project</text></svg>