<?xml version="1.0" encoding="UTF-8"?>
<svg width="209px" height="250px" viewBox="0 0 209 250" version="1.1" xmlns="http://www.w3.org/2000/svg" xmlns:xlink="http://www.w3.org/1999/xlink">
    <!-- Generator: Sketch 58 (84663) - https://sketch.com -->
    <title>Group</title>
    <desc>Created with Sketch.</desc>
    <g id="Page-1" stroke="none" stroke-width="1" fill="none" fill-rule="evenodd">
        <g id="Menu" transform="translate(-651.000000, -512.000000)" fill="#000000" fill-rule="nonzero">
            <g id="Group" transform="translate(651.000000, 512.000000)">
                <path d="M87.5679,18.7638197 C87.52184,18.7638197 87.47872,18.7746175 87.43364,18.7775624 C86.43894,15.0748994 82.97366,10.8303833 76.89864,10.3425192 C75.44236,7.4084631 71.73894,4.27808341 63.83034,4.22900251 C57.12322,-1.41431917 41.55396,0.0119717322 36.79214,0.608795455 C30.96898,1.3381376 22.40084,5.04080057 19.92144,10.3022729 C19.8744,10.3071809 19.82834,10.3042361 19.78228,10.312089 C12.5587,11.5175159 10.8633,15.8611754 10.4272,18.7638197 C0,18.7657829 0,30.3292426 0,35.2677626 L0,49.1979031 C0,63.9771432 22.03922,76 49.13034,76 C76.53408,76 98,64.2274557 98,49.1988847 L98,35.2677626 C98,30.3292426 98,18.7638197 87.5679,18.7638197 Z M23.22796,12.6179096 C24.12466,9.08997467 31.70496,5.21356533 37.28116,4.51465334 C40.19568,4.14949145 43.27092,3.9443333 46.24326,3.9443333 C52.9935,3.9443333 59.2067,5.00546232 61.7596,7.66761024 C62.8425,8.79843413 63.21,10.1530669 62.916,11.9288138 C61.9801,17.5515215 50.8522,17.5515215 45.50434,17.5515215 C42.44674,17.5515215 40.81798,16.232227 40.81798,15.2800576 C40.81798,14.3377043 42.64764,13.0095752 46.71366,13.0095752 C47.79852,13.0095752 48.67856,12.1280823 48.67856,11.0414312 C48.67856,9.9547801 47.79852,9.07328716 46.71366,9.07328716 C43.80208,9.07328716 41.44616,9.61808514 39.7096,10.6919752 C37.9162,11.8012035 36.88818,13.4738805 36.88818,15.2810392 C36.88818,18.2906799 39.90854,21.4887912 45.50532,21.4887912 C51.93412,21.4887912 65.31014,21.4887912 66.79288,12.5757001 C67.04474,11.0669533 66.97418,9.64557044 66.591,8.34787149 C72.40044,9.12727615 73.77342,12.1830529 73.77342,13.4640643 C73.77342,13.9951196 73.7842,14.7313331 73.79498,15.5421496 C73.81948,17.259981 73.85378,19.6119376 73.77832,20.5807946 C73.3824,25.7598109 62.2692,29.6656688 47.92788,29.6656688 C36.2747,29.6656688 23.29068,25.3426233 23.29068,19.1387978 L23.2848,18.9797757 C23.08782,16.5826646 23.01138,13.4679908 23.22796,12.6179096 Z M19.1688,14.4672779 C19.15018,16.4010653 19.30306,18.5262682 19.35794,19.2251802 C19.44516,27.2950614 31.96172,33.6029385 47.92494,33.6029385 C62.25842,33.6029385 77.0231,29.6695953 77.6944,20.8841145 C77.78358,19.7366031 77.75124,17.4779002 77.72184,15.4852157 C77.71596,15.1063112 77.71106,14.7450758 77.70714,14.4142705 C82.49934,15.358587 83.7655,19.6354965 83.80764,20.7319637 L83.80764,30.7454486 C83.80764,39.3532565 67.80718,46.6250824 48.8677,46.6250824 C30.06934,46.6250824 14.18844,39.3532565 14.18844,30.7454486 L14.18746,20.8055851 C14.28056,18.3162019 14.78232,15.6138077 19.1688,14.4672779 Z M10.25962,22.7109055 L10.25962,30.7454486 C10.25962,41.857364 27.2195,50.5623521 48.86868,50.5623521 C70.66486,50.5623521 87.7394,41.8583456 87.7394,30.7454486 L87.73842,22.7109055 C91.6643,22.7933615 93.2617,25.6125683 93.81442,30.1564778 C88.23332,31.7692761 88.33622,38.2980172 88.41266,43.14721 C88.45186,45.652299 88.50282,48.7708993 87.65022,49.6239253 C87.6218,49.6514106 87.59436,49.6798775 87.5679,49.7053996 C87.55908,49.6867488 87.55026,49.6690797 87.5434,49.6514106 C86.92012,48.319355 85.97932,46.3040933 83.61458,45.5148725 C81.31354,44.7472472 79.81904,45.4520489 78.96938,46.1774646 C76.96136,47.8952961 76.45666,51.5655656 77.42686,57.397358 C77.66402,58.820704 77.37198,59.8464948 76.56054,60.4433185 C75.76478,61.0293444 74.50744,61.138304 73.6323,60.6936311 C72.94336,60.3451567 72.86398,59.8435499 72.86398,59.4960572 C72.86398,55.0218425 68.83422,52.6826469 64.85248,52.6826469 C60.4415,52.6826469 58.45406,56.0780634 58.06402,59.2555608 C57.95524,60.1458883 57.93858,61.0578113 57.92192,61.9383227 C57.85724,65.5595113 57.56814,66.1710593 55.86196,66.297688 C55.85314,66.297688 55.84334,66.2986697 55.8355,66.2986697 C55.01818,66.2986697 54.21066,63.6453563 53.77456,62.2112124 C53.13756,60.1154581 52.63482,58.4624134 51.23342,57.7428875 C49.44002,56.8231114 47.92886,57.0537917 46.97728,57.4120822 C44.7615,58.2435126 42.94458,60.5974325 41.258,64.820353 C40.92382,65.6586547 40.28486,66.0414857 39.63316,65.8029526 C38.69334,65.4574231 37.72118,63.6590989 38.90012,60.1174213 C39.46362,58.4260936 39.19412,56.6886298 38.1416,55.226019 C36.2845,52.6453454 32.50562,51.4693671 29.77926,51.4693671 C23.38476,51.4693671 23.15936,55.529339 23.06234,57.2618947 C23.04862,57.5082808 23.04176,57.7419059 23.0055,57.9451008 C22.86634,58.7421746 22.53118,59.128932 22.28716,59.2153144 C21.99022,59.3232924 21.658,59.0690533 21.52864,58.9561673 C20.56334,58.1198288 19.7372,55.6392802 20.5849,51.4016354 C20.92398,49.7063812 20.65644,48.3124837 19.78914,47.2513547 C18.28582,45.4137658 15.59866,45.4137658 13.81996,45.4137658 C10.4664,45.4137658 9.77158,43.1697872 8.8837,37.6619288 C8.29864,34.0348504 7.6342,29.9493564 4.61286,27.8133557 C5.41744,24.6653069 7.06384,22.7786372 10.25962,22.7109055 Z M94.06922,49.1988847 C94.06922,61.5927931 73.4902,72.063712 49.13034,72.063712 C24.62936,72.063712 3.9298,61.5927931 3.9298,49.1988847 L3.9298,35.2677626 C3.9298,34.6532697 3.94058,34.0613541 3.95724,33.4802362 C4.44136,34.8466484 4.72262,36.5350313 5.00584,38.2891826 C5.7575,42.9577577 6.78748,49.3510355 13.82192,49.3510355 C15.55064,49.3510355 16.53652,49.4855172 16.75114,49.7476092 C16.77662,49.7780393 16.85306,50.0312967 16.73252,50.6291021 C15.71626,55.7070118 16.5277,59.8268624 18.9581,61.9343962 C20.31442,63.1093929 22.05294,63.4814261 23.6082,62.9248487 C25.31634,62.3142823 26.50802,60.7466384 26.87846,58.6224172 C26.94608,58.2366413 26.96764,57.8528287 26.98822,57.4817771 C27.07152,55.9720487 27.10288,55.4066367 29.78024,55.4066367 C31.7912,55.4066367 34.11184,56.3588061 34.95366,57.5279131 C35.27314,57.9706228 35.3388,58.3730862 35.1722,58.8727298 C33.22886,64.712375 35.3339,68.4189645 38.28174,69.4997258 C40.93656,70.4744725 43.7864,69.0913728 44.90752,66.2839454 C46.55686,62.1542786 47.86908,61.2826019 48.35712,61.0990393 C48.55508,61.0254179 48.81478,60.9773187 49.24206,61.1549915 C49.47236,61.5721792 49.79478,62.6333082 50.01626,63.3597055 C50.85416,66.1180519 52.10758,70.2388842 55.77474,70.2388842 C55.89822,70.2388842 56.02464,70.2339761 56.15498,70.2241599 C61.7106,69.8118804 61.79978,64.928331 61.8527,62.011944 C61.8674,61.1942562 61.88112,60.4236861 61.9654,59.7355719 C62.13886,58.3141891 62.78174,56.6199165 64.8515,56.6199165 C65.0181,56.6199165 68.93222,56.6523099 68.93222,59.4970388 C68.93222,61.5476387 69.99846,63.2644885 71.85556,64.2078234 C74.06546,65.3268679 76.88884,65.0873531 78.88608,63.6168894 C80.90194,62.1336646 81.78198,59.6315204 81.30276,56.7504717 C80.45114,51.6332973 81.07442,49.555212 81.52228,49.1713994 C81.6242,49.0840354 81.9672,49.1164288 82.37194,49.2509105 C83.08244,49.4874804 83.47052,50.2246755 83.98306,51.3211427 C84.50148,52.430371 85.14632,53.8115075 86.72804,54.0893054 C88.25586,54.360232 89.50732,53.3314963 90.4295,52.4077938 C92.45908,50.374863 92.40224,46.8331854 92.34246,43.0843864 C92.26504,38.1890576 92.5218,35.5033509 94.0604,34.3793983 C94.06432,34.6748653 94.06922,34.9664058 94.06922,35.2677626 L94.06922,49.1988847 L94.06922,49.1988847 Z" id="Shape"></path>
                <path d="M87.5679,103.76382 C87.52184,103.76382 87.47872,103.774618 87.43364,103.777562 C86.43894,100.074899 82.97366,95.8303833 76.89864,95.3425192 C75.44236,92.4084631 71.73894,89.2780834 63.83034,89.2290025 C57.12322,83.5856808 41.55396,85.0119717 36.79214,85.6087955 C30.96898,86.3381376 22.40084,90.0408006 19.92144,95.3022729 C19.8744,95.3071809 19.82834,95.3042361 19.78228,95.312089 C12.5587,96.5175159 10.8633,100.861175 10.4272,103.76382 C0,103.765783 0,115.329243 0,120.267763 L0,134.197903 C0,148.977143 22.03922,161 49.13034,161 C76.53408,161 98,149.227456 98,134.198885 L98,120.267763 C98,115.329243 98,103.76382 87.5679,103.76382 Z M23.22796,97.6179096 C24.12466,94.0899747 31.70496,90.2135653 37.28116,89.5146533 C40.19568,89.1494915 43.27092,88.9443333 46.24326,88.9443333 C52.9935,88.9443333 59.2067,90.0054623 61.7596,92.6676102 C62.8425,93.7984341 63.21,95.1530669 62.916,96.9288138 C61.9801,102.551522 50.8522,102.551522 45.50434,102.551522 C42.44674,102.551522 40.81798,101.232227 40.81798,100.280058 C40.81798,99.3377043 42.64764,98.0095752 46.71366,98.0095752 C47.79852,98.0095752 48.67856,97.1280823 48.67856,96.0414312 C48.67856,94.9547801 47.79852,94.0732872 46.71366,94.0732872 C43.80208,94.0732872 41.44616,94.6180851 39.7096,95.6919752 C37.9162,96.8012035 36.88818,98.4738805 36.88818,100.281039 C36.88818,103.29068 39.90854,106.488791 45.50532,106.488791 C51.93412,106.488791 65.31014,106.488791 66.79288,97.5757001 C67.04474,96.0669533 66.97418,94.6455704 66.591,93.3478715 C72.40044,94.1272762 73.77342,97.1830529 73.77342,98.4640643 C73.77342,98.9951196 73.7842,99.7313331 73.79498,100.54215 C73.81948,102.259981 73.85378,104.611938 73.77832,105.580795 C73.3824,110.759811 62.2692,114.665669 47.92788,114.665669 C36.2747,114.665669 23.29068,110.342623 23.29068,104.138798 L23.2848,103.979776 C23.08782,101.582665 23.01138,98.4679908 23.22796,97.6179096 Z M19.1688,99.4672779 C19.15018,101.401065 19.30306,103.526268 19.35794,104.22518 C19.44516,112.295061 31.96172,118.602938 47.92494,118.602938 C62.25842,118.602938 77.0231,114.669595 77.6944,105.884115 C77.78358,104.736603 77.75124,102.4779 77.72184,100.485216 C77.71596,100.106311 77.71106,99.7450758 77.70714,99.4142705 C82.49934,100.358587 83.7655,104.635496 83.80764,105.731964 L83.80764,115.745449 C83.80764,124.353257 67.80718,131.625082 48.8677,131.625082 C30.06934,131.625082 14.18844,124.353257 14.18844,115.745449 L14.18746,105.805585 C14.28056,103.316202 14.78232,100.613808 19.1688,99.4672779 Z M10.25962,107.710906 L10.25962,115.745449 C10.25962,126.857364 27.2195,135.562352 48.86868,135.562352 C70.66486,135.562352 87.7394,126.858346 87.7394,115.745449 L87.73842,107.710906 C91.6643,107.793361 93.2617,110.612568 93.81442,115.156478 C88.23332,116.769276 88.33622,123.298017 88.41266,128.14721 C88.45186,130.652299 88.50282,133.770899 87.65022,134.623925 C87.6218,134.651411 87.59436,134.679878 87.5679,134.7054 C87.55908,134.686749 87.55026,134.66908 87.5434,134.651411 C86.92012,133.319355 85.97932,131.304093 83.61458,130.514872 C81.31354,129.747247 79.81904,130.452049 78.96938,131.177465 C76.96136,132.895296 76.45666,136.565566 77.42686,142.397358 C77.66402,143.820704 77.37198,144.846495 76.56054,145.443318 C75.76478,146.029344 74.50744,146.138304 73.6323,145.693631 C72.94336,145.345157 72.86398,144.84355 72.86398,144.496057 C72.86398,140.021842 68.83422,137.682647 64.85248,137.682647 C60.4415,137.682647 58.45406,141.078063 58.06402,144.255561 C57.95524,145.145888 57.93858,146.057811 57.92192,146.938323 C57.85724,150.559511 57.56814,151.171059 55.86196,151.297688 C55.85314,151.297688 55.84334,151.29867 55.8355,151.29867 C55.01818,151.29867 54.21066,148.645356 53.77456,147.211212 C53.13756,145.115458 52.63482,143.462413 51.23342,142.742887 C49.44002,141.823111 47.92886,142.053792 46.97728,142.412082 C44.7615,143.243513 42.94458,145.597433 41.258,149.820353 C40.92382,150.658655 40.28486,151.041486 39.63316,150.802953 C38.69334,150.457423 37.72118,148.659099 38.90012,145.117421 C39.46362,143.426094 39.19412,141.68863 38.1416,140.226019 C36.2845,137.645345 32.50562,136.469367 29.77926,136.469367 C23.38476,136.469367 23.15936,140.529339 23.06234,142.261895 C23.04862,142.508281 23.04176,142.741906 23.0055,142.945101 C22.86634,143.742175 22.53118,144.128932 22.28716,144.215314 C21.99022,144.323292 21.658,144.069053 21.52864,143.956167 C20.56334,143.119829 19.7372,140.63928 20.5849,136.401635 C20.92398,134.706381 20.65644,133.312484 19.78914,132.251355 C18.28582,130.413766 15.59866,130.413766 13.81996,130.413766 C10.4664,130.413766 9.77158,128.169787 8.8837,122.661929 C8.29864,119.03485 7.6342,114.949356 4.61286,112.813356 C5.41744,109.665307 7.06384,107.778637 10.25962,107.710906 Z M94.06922,134.198885 C94.06922,146.592793 73.4902,157.063712 49.13034,157.063712 C24.62936,157.063712 3.9298,146.592793 3.9298,134.198885 L3.9298,120.267763 C3.9298,119.65327 3.94058,119.061354 3.95724,118.480236 C4.44136,119.846648 4.72262,121.535031 5.00584,123.289183 C5.7575,127.957758 6.78748,134.351035 13.82192,134.351035 C15.55064,134.351035 16.53652,134.485517 16.75114,134.747609 C16.77662,134.778039 16.85306,135.031297 16.73252,135.629102 C15.71626,140.707012 16.5277,144.826862 18.9581,146.934396 C20.31442,148.109393 22.05294,148.481426 23.6082,147.924849 C25.31634,147.314282 26.50802,145.746638 26.87846,143.622417 C26.94608,143.236641 26.96764,142.852829 26.98822,142.481777 C27.07152,140.972049 27.10288,140.406637 29.78024,140.406637 C31.7912,140.406637 34.11184,141.358806 34.95366,142.527913 C35.27314,142.970623 35.3388,143.373086 35.1722,143.87273 C33.22886,149.712375 35.3339,153.418964 38.28174,154.499726 C40.93656,155.474472 43.7864,154.091373 44.90752,151.283945 C46.55686,147.154279 47.86908,146.282602 48.35712,146.099039 C48.55508,146.025418 48.81478,145.977319 49.24206,146.154992 C49.47236,146.572179 49.79478,147.633308 50.01626,148.359705 C50.85416,151.118052 52.10758,155.238884 55.77474,155.238884 C55.89822,155.238884 56.02464,155.233976 56.15498,155.22416 C61.7106,154.81188 61.79978,149.928331 61.8527,147.011944 C61.8674,146.194256 61.88112,145.423686 61.9654,144.735572 C62.13886,143.314189 62.78174,141.619917 64.8515,141.619917 C65.0181,141.619917 68.93222,141.65231 68.93222,144.497039 C68.93222,146.547639 69.99846,148.264489 71.85556,149.207823 C74.06546,150.326868 76.88884,150.087353 78.88608,148.616889 C80.90194,147.133665 81.78198,144.63152 81.30276,141.750472 C80.45114,136.633297 81.07442,134.555212 81.52228,134.171399 C81.6242,134.084035 81.9672,134.116429 82.37194,134.25091 C83.08244,134.48748 83.47052,135.224675 83.98306,136.321143 C84.50148,137.430371 85.14632,138.811508 86.72804,139.089305 C88.25586,139.360232 89.50732,138.331496 90.4295,137.407794 C92.45908,135.374863 92.40224,131.833185 92.34246,128.084386 C92.26504,123.189058 92.5218,120.503351 94.0604,119.379398 C94.06432,119.674865 94.06922,119.966406 94.06922,120.267763 L94.06922,134.198885 L94.06922,134.198885 Z" id="Shape"></path>
                <path d="M198.5679,103.76382 C198.52184,103.76382 198.47872,103.774618 198.43364,103.777562 C197.43894,100.074899 193.97366,95.8303833 187.89864,95.3425192 C186.44236,92.4084631 182.73894,89.2780834 174.83034,89.2290025 C168.12322,83.5856808 152.55396,85.0119717 147.79214,85.6087955 C141.96898,86.3381376 133.40084,90.0408006 130.92144,95.3022729 C130.8744,95.3071809 130.82834,95.3042361 130.78228,95.312089 C123.5587,96.5175159 121.8633,100.861175 121.4272,103.76382 C111,103.765783 111,115.329243 111,120.267763 L111,134.197903 C111,148.977143 133.03922,161 160.13034,161 C187.53408,161 209,149.227456 209,134.198885 L209,120.267763 C209,115.329243 209,103.76382 198.5679,103.76382 Z M134.22796,97.6179096 C135.12466,94.0899747 142.70496,90.2135653 148.28116,89.5146533 C151.19568,89.1494915 154.27092,88.9443333 157.24326,88.9443333 C163.9935,88.9443333 170.2067,90.0054623 172.7596,92.6676102 C173.8425,93.7984341 174.21,95.1530669 173.916,96.9288138 C172.9801,102.551522 161.8522,102.551522 156.50434,102.551522 C153.44674,102.551522 151.81798,101.232227 151.81798,100.280058 C151.81798,99.3377043 153.64764,98.0095752 157.71366,98.0095752 C158.79852,98.0095752 159.67856,97.1280823 159.67856,96.0414312 C159.67856,94.9547801 158.79852,94.0732872 157.71366,94.0732872 C154.80208,94.0732872 152.44616,94.6180851 150.7096,95.6919752 C148.9162,96.8012035 147.88818,98.4738805 147.88818,100.281039 C147.88818,103.29068 150.90854,106.488791 156.50532,106.488791 C162.93412,106.488791 176.31014,106.488791 177.79288,97.5757001 C178.04474,96.0669533 177.97418,94.6455704 177.591,93.3478715 C183.40044,94.1272762 184.77342,97.1830529 184.77342,98.4640643 C184.77342,98.9951196 184.7842,99.7313331 184.79498,100.54215 C184.81948,102.259981 184.85378,104.611938 184.77832,105.580795 C184.3824,110.759811 173.2692,114.665669 158.92788,114.665669 C147.2747,114.665669 134.29068,110.342623 134.29068,104.138798 L134.2848,103.979776 C134.08782,101.582665 134.01138,98.4679908 134.22796,97.6179096 Z M130.1688,99.4672779 C130.15018,101.401065 130.30306,103.526268 130.35794,104.22518 C130.44516,112.295061 142.96172,118.602938 158.92494,118.602938 C173.25842,118.602938 188.0231,114.669595 188.6944,105.884115 C188.78358,104.736603 188.75124,102.4779 188.72184,100.485216 C188.71596,100.106311 188.71106,99.7450758 188.70714,99.4142705 C193.49934,100.358587 194.7655,104.635496 194.80764,105.731964 L194.80764,115.745449 C194.80764,124.353257 178.80718,131.625082 159.8677,131.625082 C141.06934,131.625082 125.18844,124.353257 125.18844,115.745449 L125.18746,105.805585 C125.28056,103.316202 125.78232,100.613808 130.1688,99.4672779 Z M121.25962,107.710906 L121.25962,115.745449 C121.25962,126.857364 138.2195,135.562352 159.86868,135.562352 C181.66486,135.562352 198.7394,126.858346 198.7394,115.745449 L198.73842,107.710906 C202.6643,107.793361 204.2617,110.612568 204.81442,115.156478 C199.23332,116.769276 199.33622,123.298017 199.41266,128.14721 C199.45186,130.652299 199.50282,133.770899 198.65022,134.623925 C198.6218,134.651411 198.59436,134.679878 198.5679,134.7054 C198.55908,134.686749 198.55026,134.66908 198.5434,134.651411 C197.92012,133.319355 196.97932,131.304093 194.61458,130.514872 C192.31354,129.747247 190.81904,130.452049 189.96938,131.177465 C187.96136,132.895296 187.45666,136.565566 188.42686,142.397358 C188.66402,143.820704 188.37198,144.846495 187.56054,145.443318 C186.76478,146.029344 185.50744,146.138304 184.6323,145.693631 C183.94336,145.345157 183.86398,144.84355 183.86398,144.496057 C183.86398,140.021842 179.83422,137.682647 175.85248,137.682647 C171.4415,137.682647 169.45406,141.078063 169.06402,144.255561 C168.95524,145.145888 168.93858,146.057811 168.92192,146.938323 C168.85724,150.559511 168.56814,151.171059 166.86196,151.297688 C166.85314,151.297688 166.84334,151.29867 166.8355,151.29867 C166.01818,151.29867 165.21066,148.645356 164.77456,147.211212 C164.13756,145.115458 163.63482,143.462413 162.23342,142.742887 C160.44002,141.823111 158.92886,142.053792 157.97728,142.412082 C155.7615,143.243513 153.94458,145.597433 152.258,149.820353 C151.92382,150.658655 151.28486,151.041486 150.63316,150.802953 C149.69334,150.457423 148.72118,148.659099 149.90012,145.117421 C150.46362,143.426094 150.19412,141.68863 149.1416,140.226019 C147.2845,137.645345 143.50562,136.469367 140.77926,136.469367 C134.38476,136.469367 134.15936,140.529339 134.06234,142.261895 C134.04862,142.508281 134.04176,142.741906 134.0055,142.945101 C133.86634,143.742175 133.53118,144.128932 133.28716,144.215314 C132.99022,144.323292 132.658,144.069053 132.52864,143.956167 C131.56334,143.119829 130.7372,140.63928 131.5849,136.401635 C131.92398,134.706381 131.65644,133.312484 130.78914,132.251355 C129.28582,130.413766 126.59866,130.413766 124.81996,130.413766 C121.4664,130.413766 120.77158,128.169787 119.8837,122.661929 C119.29864,119.03485 118.6342,114.949356 115.61286,112.813356 C116.41744,109.665307 118.06384,107.778637 121.25962,107.710906 Z M205.06922,134.198885 C205.06922,146.592793 184.4902,157.063712 160.13034,157.063712 C135.62936,157.063712 114.9298,146.592793 114.9298,134.198885 L114.9298,120.267763 C114.9298,119.65327 114.94058,119.061354 114.95724,118.480236 C115.44136,119.846648 115.72262,121.535031 116.00584,123.289183 C116.7575,127.957758 117.78748,134.351035 124.82192,134.351035 C126.55064,134.351035 127.53652,134.485517 127.75114,134.747609 C127.77662,134.778039 127.85306,135.031297 127.73252,135.629102 C126.71626,140.707012 127.5277,144.826862 129.9581,146.934396 C131.31442,148.109393 133.05294,148.481426 134.6082,147.924849 C136.31634,147.314282 137.50802,145.746638 137.87846,143.622417 C137.94608,143.236641 137.96764,142.852829 137.98822,142.481777 C138.07152,140.972049 138.10288,140.406637 140.78024,140.406637 C142.7912,140.406637 145.11184,141.358806 145.95366,142.527913 C146.27314,142.970623 146.3388,143.373086 146.1722,143.87273 C144.22886,149.712375 146.3339,153.418964 149.28174,154.499726 C151.93656,155.474472 154.7864,154.091373 155.90752,151.283945 C157.55686,147.154279 158.86908,146.282602 159.35712,146.099039 C159.55508,146.025418 159.81478,145.977319 160.24206,146.154992 C160.47236,146.572179 160.79478,147.633308 161.01626,148.359705 C161.85416,151.118052 163.10758,155.238884 166.77474,155.238884 C166.89822,155.238884 167.02464,155.233976 167.15498,155.22416 C172.7106,154.81188 172.79978,149.928331 172.8527,147.011944 C172.8674,146.194256 172.88112,145.423686 172.9654,144.735572 C173.13886,143.314189 173.78174,141.619917 175.8515,141.619917 C176.0181,141.619917 179.93222,141.65231 179.93222,144.497039 C179.93222,146.547639 180.99846,148.264489 182.85556,149.207823 C185.06546,150.326868 187.88884,150.087353 189.88608,148.616889 C191.90194,147.133665 192.78198,144.63152 192.30276,141.750472 C191.45114,136.633297 192.07442,134.555212 192.52228,134.171399 C192.6242,134.084035 192.9672,134.116429 193.37194,134.25091 C194.08244,134.48748 194.47052,135.224675 194.98306,136.321143 C195.50148,137.430371 196.14632,138.811508 197.72804,139.089305 C199.25586,139.360232 200.50732,138.331496 201.4295,137.407794 C203.45908,135.374863 203.40224,131.833185 203.34246,128.084386 C203.26504,123.189058 203.5218,120.503351 205.0604,119.379398 C205.06432,119.674865 205.06922,119.966406 205.06922,120.267763 L205.06922,134.198885 L205.06922,134.198885 Z" id="Shape"></path>
                <path d="M198.5679,19.7638197 C198.52184,19.7638197 198.47872,19.7746175 198.43364,19.7775624 C197.43894,16.0748994 193.97366,11.8303833 187.89864,11.3425192 C186.44236,8.4084631 182.73894,5.27808341 174.83034,5.22900251 C168.12322,-0.414319171 152.55396,1.01197173 147.79214,1.60879545 C141.96898,2.3381376 133.40084,6.04080057 130.92144,11.3022729 C130.8744,11.3071809 130.82834,11.3042361 130.78228,11.312089 C123.5587,12.5175159 121.8633,16.8611754 121.4272,19.7638197 C111,19.7657829 111,31.3292426 111,36.2677626 L111,50.1979031 C111,64.9771432 133.03922,77 160.13034,77 C187.53408,77 209,65.2274557 209,50.1988847 L209,36.2677626 C209,31.3292426 209,19.7638197 198.5679,19.7638197 Z M134.22796,13.6179096 C135.12466,10.0899747 142.70496,6.21356533 148.28116,5.51465334 C151.19568,5.14949145 154.27092,4.9443333 157.24326,4.9443333 C163.9935,4.9443333 170.2067,6.00546232 172.7596,8.66761024 C173.8425,9.79843413 174.21,11.1530669 173.916,12.9288138 C172.9801,18.5515215 161.8522,18.5515215 156.50434,18.5515215 C153.44674,18.5515215 151.81798,17.232227 151.81798,16.2800576 C151.81798,15.3377043 153.64764,14.0095752 157.71366,14.0095752 C158.79852,14.0095752 159.67856,13.1280823 159.67856,12.0414312 C159.67856,10.9547801 158.79852,10.0732872 157.71366,10.0732872 C154.80208,10.0732872 152.44616,10.6180851 150.7096,11.6919752 C148.9162,12.8012035 147.88818,14.4738805 147.88818,16.2810392 C147.88818,19.2906799 150.90854,22.4887912 156.50532,22.4887912 C162.93412,22.4887912 176.31014,22.4887912 177.79288,13.5757001 C178.04474,12.0669533 177.97418,10.6455704 177.591,9.34787149 C183.40044,10.1272762 184.77342,13.1830529 184.77342,14.4640643 C184.77342,14.9951196 184.7842,15.7313331 184.79498,16.5421496 C184.81948,18.259981 184.85378,20.6119376 184.77832,21.5807946 C184.3824,26.7598109 173.2692,30.6656688 158.92788,30.6656688 C147.2747,30.6656688 134.29068,26.3426233 134.29068,20.1387978 L134.2848,19.9797757 C134.08782,17.5826646 134.01138,14.4679908 134.22796,13.6179096 Z M130.1688,15.4672779 C130.15018,17.4010653 130.30306,19.5262682 130.35794,20.2251802 C130.44516,28.2950614 142.96172,34.6029385 158.92494,34.6029385 C173.25842,34.6029385 188.0231,30.6695953 188.6944,21.8841145 C188.78358,20.7366031 188.75124,18.4779002 188.72184,16.4852157 C188.71596,16.1063112 188.71106,15.7450758 188.70714,15.4142705 C193.49934,16.358587 194.7655,20.6354965 194.80764,21.7319637 L194.80764,31.7454486 C194.80764,40.3532565 178.80718,47.6250824 159.8677,47.6250824 C141.06934,47.6250824 125.18844,40.3532565 125.18844,31.7454486 L125.18746,21.8055851 C125.28056,19.3162019 125.78232,16.6138077 130.1688,15.4672779 Z M121.25962,23.7109055 L121.25962,31.7454486 C121.25962,42.857364 138.2195,51.5623521 159.86868,51.5623521 C181.66486,51.5623521 198.7394,42.8583456 198.7394,31.7454486 L198.73842,23.7109055 C202.6643,23.7933615 204.2617,26.6125683 204.81442,31.1564778 C199.23332,32.7692761 199.33622,39.2980172 199.41266,44.14721 C199.45186,46.652299 199.50282,49.7708993 198.65022,50.6239253 C198.6218,50.6514106 198.59436,50.6798775 198.5679,50.7053996 C198.55908,50.6867488 198.55026,50.6690797 198.5434,50.6514106 C197.92012,49.319355 196.97932,47.3040933 194.61458,46.5148725 C192.31354,45.7472472 190.81904,46.4520489 189.96938,47.1774646 C187.96136,48.8952961 187.45666,52.5655656 188.42686,58.397358 C188.66402,59.820704 188.37198,60.8464948 187.56054,61.4433185 C186.76478,62.0293444 185.50744,62.138304 184.6323,61.6936311 C183.94336,61.3451567 183.86398,60.8435499 183.86398,60.4960572 C183.86398,56.0218425 179.83422,53.6826469 175.85248,53.6826469 C171.4415,53.6826469 169.45406,57.0780634 169.06402,60.2555608 C168.95524,61.1458883 168.93858,62.0578113 168.92192,62.9383227 C168.85724,66.5595113 168.56814,67.1710593 166.86196,67.297688 C166.85314,67.297688 166.84334,67.2986697 166.8355,67.2986697 C166.01818,67.2986697 165.21066,64.6453563 164.77456,63.2112124 C164.13756,61.1154581 163.63482,59.4624134 162.23342,58.7428875 C160.44002,57.8231114 158.92886,58.0537917 157.97728,58.4120822 C155.7615,59.2435126 153.94458,61.5974325 152.258,65.820353 C151.92382,66.6586547 151.28486,67.0414857 150.63316,66.8029526 C149.69334,66.4574231 148.72118,64.6590989 149.90012,61.1174213 C150.46362,59.4260936 150.19412,57.6886298 149.1416,56.226019 C147.2845,53.6453454 143.50562,52.4693671 140.77926,52.4693671 C134.38476,52.4693671 134.15936,56.529339 134.06234,58.2618947 C134.04862,58.5082808 134.04176,58.7419059 134.0055,58.9451008 C133.86634,59.7421746 133.53118,60.128932 133.28716,60.2153144 C132.99022,60.3232924 132.658,60.0690533 132.52864,59.9561673 C131.56334,59.1198288 130.7372,56.6392802 131.5849,52.4016354 C131.92398,50.7063812 131.65644,49.3124837 130.78914,48.2513547 C129.28582,46.4137658 126.59866,46.4137658 124.81996,46.4137658 C121.4664,46.4137658 120.77158,44.1697872 119.8837,38.6619288 C119.29864,35.0348504 118.6342,30.9493564 115.61286,28.8133557 C116.41744,25.6653069 118.06384,23.7786372 121.25962,23.7109055 Z M205.06922,50.1988847 C205.06922,62.5927931 184.4902,73.063712 160.13034,73.063712 C135.62936,73.063712 114.9298,62.5927931 114.9298,50.1988847 L114.9298,36.2677626 C114.9298,35.6532697 114.94058,35.0613541 114.95724,34.4802362 C115.44136,35.8466484 115.72262,37.5350313 116.00584,39.2891826 C116.7575,43.9577577 117.78748,50.3510355 124.82192,50.3510355 C126.55064,50.3510355 127.53652,50.4855172 127.75114,50.7476092 C127.77662,50.7780393 127.85306,51.0312967 127.73252,51.6291021 C126.71626,56.7070118 127.5277,60.8268624 129.9581,62.9343962 C131.31442,64.1093929 133.05294,64.4814261 134.6082,63.9248487 C136.31634,63.3142823 137.50802,61.7466384 137.87846,59.6224172 C137.94608,59.2366413 137.96764,58.8528287 137.98822,58.4817771 C138.07152,56.9720487 138.10288,56.4066367 140.78024,56.4066367 C142.7912,56.4066367 145.11184,57.3588061 145.95366,58.5279131 C146.27314,58.9706228 146.3388,59.3730862 146.1722,59.8727298 C144.22886,65.712375 146.3339,69.4189645 149.28174,70.4997258 C151.93656,71.4744725 154.7864,70.0913728 155.90752,67.2839454 C157.55686,63.1542786 158.86908,62.2826019 159.35712,62.0990393 C159.55508,62.0254179 159.81478,61.9773187 160.24206,62.1549915 C160.47236,62.5721792 160.79478,63.6333082 161.01626,64.3597055 C161.85416,67.1180519 163.10758,71.2388842 166.77474,71.2388842 C166.89822,71.2388842 167.02464,71.2339761 167.15498,71.2241599 C172.7106,70.8118804 172.79978,65.928331 172.8527,63.011944 C172.8674,62.1942562 172.88112,61.4236861 172.9654,60.7355719 C173.13886,59.3141891 173.78174,57.6199165 175.8515,57.6199165 C176.0181,57.6199165 179.93222,57.6523099 179.93222,60.4970388 C179.93222,62.5476387 180.99846,64.2644885 182.85556,65.2078234 C185.06546,66.3268679 187.88884,66.0873531 189.88608,64.6168894 C191.90194,63.1336646 192.78198,60.6315204 192.30276,57.7504717 C191.45114,52.6332973 192.07442,50.555212 192.52228,50.1713994 C192.6242,50.0840354 192.9672,50.1164288 193.37194,50.2509105 C194.08244,50.4874804 194.47052,51.2246755 194.98306,52.3211427 C195.50148,53.430371 196.14632,54.8115075 197.72804,55.0893054 C199.25586,55.360232 200.50732,54.3314963 201.4295,53.4077938 C203.45908,51.374863 203.40224,47.8331854 203.34246,44.0843864 C203.26504,39.1890576 203.5218,36.5033509 205.0604,35.3793983 C205.06432,35.6748653 205.06922,35.9664058 205.06922,36.2677626 L205.06922,50.1988847 L205.06922,50.1988847 Z" id="Shape-Copy"></path>
                <path d="M198.5679,192.76382 C198.52184,192.76382 198.47872,192.774618 198.43364,192.777562 C197.43894,189.074899 193.97366,184.830383 187.89864,184.342519 C186.44236,181.408463 182.73894,178.278083 174.83034,178.229003 C168.12322,172.585681 152.55396,174.011972 147.79214,174.608795 C141.96898,175.338138 133.40084,179.040801 130.92144,184.302273 C130.8744,184.307181 130.82834,184.304236 130.78228,184.312089 C123.5587,185.517516 121.8633,189.861175 121.4272,192.76382 C111,192.765783 111,204.329243 111,209.267763 L111,223.197903 C111,237.977143 133.03922,250 160.13034,250 C187.53408,250 209,238.227456 209,223.198885 L209,209.267763 C209,204.329243 209,192.76382 198.5679,192.76382 Z M134.22796,186.61791 C135.12466,183.089975 142.70496,179.213565 148.28116,178.514653 C151.19568,178.149491 154.27092,177.944333 157.24326,177.944333 C163.9935,177.944333 170.2067,179.005462 172.7596,181.66761 C173.8425,182.798434 174.21,184.153067 173.916,185.928814 C172.9801,191.551522 161.8522,191.551522 156.50434,191.551522 C153.44674,191.551522 151.81798,190.232227 151.81798,189.280058 C151.81798,188.337704 153.64764,187.009575 157.71366,187.009575 C158.79852,187.009575 159.67856,186.128082 159.67856,185.041431 C159.67856,183.95478 158.79852,183.073287 157.71366,183.073287 C154.80208,183.073287 152.44616,183.618085 150.7096,184.691975 C148.9162,185.801203 147.88818,187.473881 147.88818,189.281039 C147.88818,192.29068 150.90854,195.488791 156.50532,195.488791 C162.93412,195.488791 176.31014,195.488791 177.79288,186.5757 C178.04474,185.066953 177.97418,183.64557 177.591,182.347871 C183.40044,183.127276 184.77342,186.183053 184.77342,187.464064 C184.77342,187.99512 184.7842,188.731333 184.79498,189.54215 C184.81948,191.259981 184.85378,193.611938 184.77832,194.580795 C184.3824,199.759811 173.2692,203.665669 158.92788,203.665669 C147.2747,203.665669 134.29068,199.342623 134.29068,193.138798 L134.2848,192.979776 C134.08782,190.582665 134.01138,187.467991 134.22796,186.61791 Z M130.1688,188.467278 C130.15018,190.401065 130.30306,192.526268 130.35794,193.22518 C130.44516,201.295061 142.96172,207.602938 158.92494,207.602938 C173.25842,207.602938 188.0231,203.669595 188.6944,194.884115 C188.78358,193.736603 188.75124,191.4779 188.72184,189.485216 C188.71596,189.106311 188.71106,188.745076 188.70714,188.414271 C193.49934,189.358587 194.7655,193.635496 194.80764,194.731964 L194.80764,204.745449 C194.80764,213.353257 178.80718,220.625082 159.8677,220.625082 C141.06934,220.625082 125.18844,213.353257 125.18844,204.745449 L125.18746,194.805585 C125.28056,192.316202 125.78232,189.613808 130.1688,188.467278 Z M121.25962,196.710906 L121.25962,204.745449 C121.25962,215.857364 138.2195,224.562352 159.86868,224.562352 C181.66486,224.562352 198.7394,215.858346 198.7394,204.745449 L198.73842,196.710906 C202.6643,196.793361 204.2617,199.612568 204.81442,204.156478 C199.23332,205.769276 199.33622,212.298017 199.41266,217.14721 C199.45186,219.652299 199.50282,222.770899 198.65022,223.623925 C198.6218,223.651411 198.59436,223.679878 198.5679,223.7054 C198.55908,223.686749 198.55026,223.66908 198.5434,223.651411 C197.92012,222.319355 196.97932,220.304093 194.61458,219.514872 C192.31354,218.747247 190.81904,219.452049 189.96938,220.177465 C187.96136,221.895296 187.45666,225.565566 188.42686,231.397358 C188.66402,232.820704 188.37198,233.846495 187.56054,234.443318 C186.76478,235.029344 185.50744,235.138304 184.6323,234.693631 C183.94336,234.345157 183.86398,233.84355 183.86398,233.496057 C183.86398,229.021842 179.83422,226.682647 175.85248,226.682647 C171.4415,226.682647 169.45406,230.078063 169.06402,233.255561 C168.95524,234.145888 168.93858,235.057811 168.92192,235.938323 C168.85724,239.559511 168.56814,240.171059 166.86196,240.297688 C166.85314,240.297688 166.84334,240.29867 166.8355,240.29867 C166.01818,240.29867 165.21066,237.645356 164.77456,236.211212 C164.13756,234.115458 163.63482,232.462413 162.23342,231.742887 C160.44002,230.823111 158.92886,231.053792 157.97728,231.412082 C155.7615,232.243513 153.94458,234.597433 152.258,238.820353 C151.92382,239.658655 151.28486,240.041486 150.63316,239.802953 C149.69334,239.457423 148.72118,237.659099 149.90012,234.117421 C150.46362,232.426094 150.19412,230.68863 149.1416,229.226019 C147.2845,226.645345 143.50562,225.469367 140.77926,225.469367 C134.38476,225.469367 134.15936,229.529339 134.06234,231.261895 C134.04862,231.508281 134.04176,231.741906 134.0055,231.945101 C133.86634,232.742175 133.53118,233.128932 133.28716,233.215314 C132.99022,233.323292 132.658,233.069053 132.52864,232.956167 C131.56334,232.119829 130.7372,229.63928 131.5849,225.401635 C131.92398,223.706381 131.65644,222.312484 130.78914,221.251355 C129.28582,219.413766 126.59866,219.413766 124.81996,219.413766 C121.4664,219.413766 120.77158,217.169787 119.8837,211.661929 C119.29864,208.03485 118.6342,203.949356 115.61286,201.813356 C116.41744,198.665307 118.06384,196.778637 121.25962,196.710906 Z M205.06922,223.198885 C205.06922,235.592793 184.4902,246.063712 160.13034,246.063712 C135.62936,246.063712 114.9298,235.592793 114.9298,223.198885 L114.9298,209.267763 C114.9298,208.65327 114.94058,208.061354 114.95724,207.480236 C115.44136,208.846648 115.72262,210.535031 116.00584,212.289183 C116.7575,216.957758 117.78748,223.351035 124.82192,223.351035 C126.55064,223.351035 127.53652,223.485517 127.75114,223.747609 C127.77662,223.778039 127.85306,224.031297 127.73252,224.629102 C126.71626,229.707012 127.5277,233.826862 129.9581,235.934396 C131.31442,237.109393 133.05294,237.481426 134.6082,236.924849 C136.31634,236.314282 137.50802,234.746638 137.87846,232.622417 C137.94608,232.236641 137.96764,231.852829 137.98822,231.481777 C138.07152,229.972049 138.10288,229.406637 140.78024,229.406637 C142.7912,229.406637 145.11184,230.358806 145.95366,231.527913 C146.27314,231.970623 146.3388,232.373086 146.1722,232.87273 C144.22886,238.712375 146.3339,242.418964 149.28174,243.499726 C151.93656,244.474472 154.7864,243.091373 155.90752,240.283945 C157.55686,236.154279 158.86908,235.282602 159.35712,235.099039 C159.55508,235.025418 159.81478,234.977319 160.24206,235.154992 C160.47236,235.572179 160.79478,236.633308 161.01626,237.359705 C161.85416,240.118052 163.10758,244.238884 166.77474,244.238884 C166.89822,244.238884 167.02464,244.233976 167.15498,244.22416 C172.7106,243.81188 172.79978,238.928331 172.8527,236.011944 C172.8674,235.194256 172.88112,234.423686 172.9654,233.735572 C173.13886,232.314189 173.78174,230.619917 175.8515,230.619917 C176.0181,230.619917 179.93222,230.65231 179.93222,233.497039 C179.93222,235.547639 180.99846,237.264489 182.85556,238.207823 C185.06546,239.326868 187.88884,239.087353 189.88608,237.616889 C191.90194,236.133665 192.78198,233.63152 192.30276,230.750472 C191.45114,225.633297 192.07442,223.555212 192.52228,223.171399 C192.6242,223.084035 192.9672,223.116429 193.37194,223.25091 C194.08244,223.48748 194.47052,224.224675 194.98306,225.321143 C195.50148,226.430371 196.14632,227.811508 197.72804,228.089305 C199.25586,228.360232 200.50732,227.331496 201.4295,226.407794 C203.45908,224.374863 203.40224,220.833185 203.34246,217.084386 C203.26504,212.189058 203.5218,209.503351 205.0604,208.379398 C205.06432,208.674865 205.06922,208.966406 205.06922,209.267763 L205.06922,223.198885 L205.06922,223.198885 Z" id="Shape-Copy-2"></path>
                <path d="M87.5679,192.76382 C87.52184,192.76382 87.47872,192.774618 87.43364,192.777562 C86.43894,189.074899 82.97366,184.830383 76.89864,184.342519 C75.44236,181.408463 71.73894,178.278083 63.83034,178.229003 C57.12322,172.585681 41.55396,174.011972 36.79214,174.608795 C30.96898,175.338138 22.40084,179.040801 19.92144,184.302273 C19.8744,184.307181 19.82834,184.304236 19.78228,184.312089 C12.5587,185.517516 10.8633,189.861175 10.4272,192.76382 C0,192.765783 0,204.329243 0,209.267763 L0,223.197903 C0,237.977143 22.03922,250 49.13034,250 C76.53408,250 98,238.227456 98,223.198885 L98,209.267763 C98,204.329243 98,192.76382 87.5679,192.76382 Z M23.22796,186.61791 C24.12466,183.089975 31.70496,179.213565 37.28116,178.514653 C40.19568,178.149491 43.27092,177.944333 46.24326,177.944333 C52.9935,177.944333 59.2067,179.005462 61.7596,181.66761 C62.8425,182.798434 63.21,184.153067 62.916,185.928814 C61.9801,191.551522 50.8522,191.551522 45.50434,191.551522 C42.44674,191.551522 40.81798,190.232227 40.81798,189.280058 C40.81798,188.337704 42.64764,187.009575 46.71366,187.009575 C47.79852,187.009575 48.67856,186.128082 48.67856,185.041431 C48.67856,183.95478 47.79852,183.073287 46.71366,183.073287 C43.80208,183.073287 41.44616,183.618085 39.7096,184.691975 C37.9162,185.801203 36.88818,187.473881 36.88818,189.281039 C36.88818,192.29068 39.90854,195.488791 45.50532,195.488791 C51.93412,195.488791 65.31014,195.488791 66.79288,186.5757 C67.04474,185.066953 66.97418,183.64557 66.591,182.347871 C72.40044,183.127276 73.77342,186.183053 73.77342,187.464064 C73.77342,187.99512 73.7842,188.731333 73.79498,189.54215 C73.81948,191.259981 73.85378,193.611938 73.77832,194.580795 C73.3824,199.759811 62.2692,203.665669 47.92788,203.665669 C36.2747,203.665669 23.29068,199.342623 23.29068,193.138798 L23.2848,192.979776 C23.08782,190.582665 23.01138,187.467991 23.22796,186.61791 Z M19.1688,188.467278 C19.15018,190.401065 19.30306,192.526268 19.35794,193.22518 C19.44516,201.295061 31.96172,207.602938 47.92494,207.602938 C62.25842,207.602938 77.0231,203.669595 77.6944,194.884115 C77.78358,193.736603 77.75124,191.4779 77.72184,189.485216 C77.71596,189.106311 77.71106,188.745076 77.70714,188.414271 C82.49934,189.358587 83.7655,193.635496 83.80764,194.731964 L83.80764,204.745449 C83.80764,213.353257 67.80718,220.625082 48.8677,220.625082 C30.06934,220.625082 14.18844,213.353257 14.18844,204.745449 L14.18746,194.805585 C14.28056,192.316202 14.78232,189.613808 19.1688,188.467278 Z M10.25962,196.710906 L10.25962,204.745449 C10.25962,215.857364 27.2195,224.562352 48.86868,224.562352 C70.66486,224.562352 87.7394,215.858346 87.7394,204.745449 L87.73842,196.710906 C91.6643,196.793361 93.2617,199.612568 93.81442,204.156478 C88.23332,205.769276 88.33622,212.298017 88.41266,217.14721 C88.45186,219.652299 88.50282,222.770899 87.65022,223.623925 C87.6218,223.651411 87.59436,223.679878 87.5679,223.7054 C87.55908,223.686749 87.55026,223.66908 87.5434,223.651411 C86.92012,222.319355 85.97932,220.304093 83.61458,219.514872 C81.31354,218.747247 79.81904,219.452049 78.96938,220.177465 C76.96136,221.895296 76.45666,225.565566 77.42686,231.397358 C77.66402,232.820704 77.37198,233.846495 76.56054,234.443318 C75.76478,235.029344 74.50744,235.138304 73.6323,234.693631 C72.94336,234.345157 72.86398,233.84355 72.86398,233.496057 C72.86398,229.021842 68.83422,226.682647 64.85248,226.682647 C60.4415,226.682647 58.45406,230.078063 58.06402,233.255561 C57.95524,234.145888 57.93858,235.057811 57.92192,235.938323 C57.85724,239.559511 57.56814,240.171059 55.86196,240.297688 C55.85314,240.297688 55.84334,240.29867 55.8355,240.29867 C55.01818,240.29867 54.21066,237.645356 53.77456,236.211212 C53.13756,234.115458 52.63482,232.462413 51.23342,231.742887 C49.44002,230.823111 47.92886,231.053792 46.97728,231.412082 C44.7615,232.243513 42.94458,234.597433 41.258,238.820353 C40.92382,239.658655 40.28486,240.041486 39.63316,239.802953 C38.69334,239.457423 37.72118,237.659099 38.90012,234.117421 C39.46362,232.426094 39.19412,230.68863 38.1416,229.226019 C36.2845,226.645345 32.50562,225.469367 29.77926,225.469367 C23.38476,225.469367 23.15936,229.529339 23.06234,231.261895 C23.04862,231.508281 23.04176,231.741906 23.0055,231.945101 C22.86634,232.742175 22.53118,233.128932 22.28716,233.215314 C21.99022,233.323292 21.658,233.069053 21.52864,232.956167 C20.56334,232.119829 19.7372,229.63928 20.5849,225.401635 C20.92398,223.706381 20.65644,222.312484 19.78914,221.251355 C18.28582,219.413766 15.59866,219.413766 13.81996,219.413766 C10.4664,219.413766 9.77158,217.169787 8.8837,211.661929 C8.29864,208.03485 7.6342,203.949356 4.61286,201.813356 C5.41744,198.665307 7.06384,196.778637 10.25962,196.710906 Z M94.06922,223.198885 C94.06922,235.592793 73.4902,246.063712 49.13034,246.063712 C24.62936,246.063712 3.9298,235.592793 3.9298,223.198885 L3.9298,209.267763 C3.9298,208.65327 3.94058,208.061354 3.95724,207.480236 C4.44136,208.846648 4.72262,210.535031 5.00584,212.289183 C5.7575,216.957758 6.78748,223.351035 13.82192,223.351035 C15.55064,223.351035 16.53652,223.485517 16.75114,223.747609 C16.77662,223.778039 16.85306,224.031297 16.73252,224.629102 C15.71626,229.707012 16.5277,233.826862 18.9581,235.934396 C20.31442,237.109393 22.05294,237.481426 23.6082,236.924849 C25.31634,236.314282 26.50802,234.746638 26.87846,232.622417 C26.94608,232.236641 26.96764,231.852829 26.98822,231.481777 C27.07152,229.972049 27.10288,229.406637 29.78024,229.406637 C31.7912,229.406637 34.11184,230.358806 34.95366,231.527913 C35.27314,231.970623 35.3388,232.373086 35.1722,232.87273 C33.22886,238.712375 35.3339,242.418964 38.28174,243.499726 C40.93656,244.474472 43.7864,243.091373 44.90752,240.283945 C46.55686,236.154279 47.86908,235.282602 48.35712,235.099039 C48.55508,235.025418 48.81478,234.977319 49.24206,235.154992 C49.47236,235.572179 49.79478,236.633308 50.01626,237.359705 C50.85416,240.118052 52.10758,244.238884 55.77474,244.238884 C55.89822,244.238884 56.02464,244.233976 56.15498,244.22416 C61.7106,243.81188 61.79978,238.928331 61.8527,236.011944 C61.8674,235.194256 61.88112,234.423686 61.9654,233.735572 C62.13886,232.314189 62.78174,230.619917 64.8515,230.619917 C65.0181,230.619917 68.93222,230.65231 68.93222,233.497039 C68.93222,235.547639 69.99846,237.264489 71.85556,238.207823 C74.06546,239.326868 76.88884,239.087353 78.88608,237.616889 C80.90194,236.133665 81.78198,233.63152 81.30276,230.750472 C80.45114,225.633297 81.07442,223.555212 81.52228,223.171399 C81.6242,223.084035 81.9672,223.116429 82.37194,223.25091 C83.08244,223.48748 83.47052,224.224675 83.98306,225.321143 C84.50148,226.430371 85.14632,227.811508 86.72804,228.089305 C88.25586,228.360232 89.50732,227.331496 90.4295,226.407794 C92.45908,224.374863 92.40224,220.833185 92.34246,217.084386 C92.26504,212.189058 92.5218,209.503351 94.0604,208.379398 C94.06432,208.674865 94.06922,208.966406 94.06922,209.267763 L94.06922,223.198885 L94.06922,223.198885 Z" id="Shape-Copy-3"></path>
            </g>
        </g>
    </g>
</svg>